<svg xmlns="http://www.w3.org/2000/svg" width="2000" height="500" viewBox="0 0 2000 500" font-family="system-ui, -apple-system, sans-serif">
  <rect x="0" y="0" width="2000" height="500" fill="#fcfcfb" />
  <text x="24" y="34" font-size="18" font-weight="600" fill="#0b0b0b">Backend coverage — per master push</text>
  <rect x="24" y="52" width="14" height="14" rx="2" fill="#1f6feb" />
<text x="44" y="63" font-size="12" fill="#52514e" font-family="system-ui, -apple-system, sans-serif">Lines</text>
<rect x="106" y="52" width="14" height="14" rx="2" fill="#1f6feb" opacity="0.55" />
<text x="126" y="63" font-size="12" fill="#52514e" font-family="system-ui, -apple-system, sans-serif">Lines (10-run avg)</text>
<rect x="281.6" y="52" width="14" height="14" rx="2" fill="#b5892a" />
<text x="301.6" y="63" font-size="12" fill="#52514e" font-family="system-ui, -apple-system, sans-serif">Functions</text>
<rect x="392.40000000000003" y="52" width="14" height="14" rx="2" fill="#b5892a" opacity="0.55" />
<text x="412.40000000000003" y="63" font-size="12" fill="#52514e" font-family="system-ui, -apple-system, sans-serif">Functions (10-run avg)</text>
<rect x="596.8000000000001" y="52" width="14" height="14" rx="2" fill="#9d3fae" />
<text x="616.8000000000001" y="63" font-size="12" fill="#52514e" font-family="system-ui, -apple-system, sans-serif">Branches</text>
<rect x="700.4000000000001" y="52" width="14" height="14" rx="2" fill="#9d3fae" opacity="0.55" />
<text x="720.4000000000001" y="63" font-size="12" fill="#52514e" font-family="system-ui, -apple-system, sans-serif">Branches (10-run avg)</text>
  <text x="48" y="82" font-size="14" font-weight="600" fill="#0b0b0b" font-family="system-ui, -apple-system, sans-serif">Backend coverage per master push (%)</text>
<line x1="60" y1="472" x2="1976" y2="472" stroke="#e1e0d9" stroke-width="1" />
<text x="50" y="476" font-size="11" text-anchor="end" fill="#898781" font-family="system-ui, -apple-system, sans-serif">0</text>
<line x1="60" y1="92" x2="1976" y2="92" stroke="#e1e0d9" stroke-width="1" />
<text x="50" y="96" font-size="11" text-anchor="end" fill="#898781" font-family="system-ui, -apple-system, sans-serif">1</text>
<line x1="60" y1="472" x2="1976" y2="472" stroke="#c3c2b7" stroke-width="1.5" />
<path d="M 60 -32170.000000000004 Q 67.79460541168233 -32170.000000000004 162.0502743808697 -32170.000000000007 Q 256.3059433500571 -32170.000000000007 640.2859254555196 -32170.000000000007 Q 1024.2659075609822 -32170.000000000004 1031.877719323219 -32170.000000000004 Q 1039.4895310854558 -32170.000000000004 1116.2005422415377 -32170 Q 1192.9115533976196 -32169.999999999996 1476.6062196151374 -32159.142857142855 Q 1760.300885832655 -32148.285714285714 1868.1504429163274 -32140.142857142855 Q 1760.300885832655 -32148.285714285714 1976 -32132" fill="none" stroke="#1f6feb" stroke-width="2" stroke-dasharray="1,4" stroke-linecap="round" opacity="0.55" />
<path d="M 60 -35894 Q 67.79460541168233 -35894 162.0502743808697 -35894 Q 256.3059433500571 -35894 640.2859254555196 -35894 Q 1024.2659075609822 -35894 1031.877719323219 -35894 Q 1039.4895310854558 -35894 1116.2005422415377 -35894 Q 1192.9115533976196 -35894 1476.6062196151374 -35891.28571428572 Q 1760.300885832655 -35888.571428571435 1868.1504429163274 -35886.535714285725 Q 1760.300885832655 -35888.571428571435 1976 -35884.50000000001" fill="none" stroke="#b5892a" stroke-width="2" stroke-dasharray="1,4" stroke-linecap="round" opacity="0.55" />
<path d="M 60 NaN Q 67.79460541168233 NaN 162.0502743808697 NaN Q 256.3059433500571 NaN 640.2859254555196 NaN Q 1024.2659075609822 NaN 1031.877719323219 NaN Q 1039.4895310854558 NaN 1116.2005422415377 NaN Q 1192.9115533976196 NaN 1476.6062196151374 NaN Q 1760.300885832655 NaN 1868.1504429163274 NaN Q 1760.300885832655 NaN 1976 NaN" fill="none" stroke="#9d3fae" stroke-width="2" stroke-dasharray="1,4" stroke-linecap="round" opacity="0.55" />
<path d="M 60 -32170.000000000004 Q 67.79460541168233 -32170.000000000004 162.0502743808697 -32170.000000000004 Q 256.3059433500571 -32170.000000000004 640.2859254555196 -32170.000000000004 Q 1024.2659075609822 -32170.000000000004 1031.877719323219 -32170.000000000004 Q 1039.4895310854558 -32170.000000000004 1116.2005422415377 -32170.000000000004 Q 1192.9115533976196 -32170.000000000004 1476.6062196151374 -32094 Q 1760.300885832655 -32018 1868.1504429163274 -32018 Q 1760.300885832655 -32018 1976 -32018" fill="none" stroke="#1f6feb" stroke-width="2" />
<path d="M 60 -35894 Q 67.79460541168233 -35894 162.0502743808697 -35894 Q 256.3059433500571 -35894 640.2859254555196 -35894 Q 1024.2659075609822 -35894 1031.877719323219 -35894 Q 1039.4895310854558 -35894 1116.2005422415377 -35894 Q 1192.9115533976196 -35894 1476.6062196151374 -35875 Q 1760.300885832655 -35856 1868.1504429163274 -35856 Q 1760.300885832655 -35856 1976 -35856" fill="none" stroke="#b5892a" stroke-width="2" />
<path d="M 60 NaN Q 67.79460541168233 NaN 162.0502743808697 NaN Q 256.3059433500571 NaN 640.2859254555196 NaN Q 1024.2659075609822 NaN 1031.877719323219 NaN Q 1039.4895310854558 NaN 1116.2005422415377 NaN Q 1192.9115533976196 NaN 1476.6062196151374 NaN Q 1760.300885832655 NaN 1868.1504429163274 NaN Q 1760.300885832655 NaN 1976 NaN" fill="none" stroke="#9d3fae" stroke-width="2" />
  
  
</svg>