<svg xmlns="http://www.w3.org/2000/svg" width="962.4" height="376" viewBox="0 0 962.4 376" font-family="system-ui, -apple-system, sans-serif">
  <defs>
    <pattern id="newHatchBlue" width="8" height="8" patternTransform="rotate(45)" patternUnits="userSpaceOnUse">
      <rect width="8" height="8" fill="#2a78d6" />
      <line x1="0" y1="0" x2="0" y2="8" stroke="#fcfcfb" stroke-width="3" />
    </pattern>
    <pattern id="newHatchPurple" width="8" height="8" patternTransform="rotate(45)" patternUnits="userSpaceOnUse">
      <rect width="8" height="8" fill="#7c4dcc" />
      <line x1="0" y1="0" x2="0" y2="8" stroke="#fcfcfb" stroke-width="3" />
    </pattern>
  </defs>
  <rect x="0" y="0" width="962.4" height="376" fill="#fcfcfb" />
  <text x="24" y="34" font-size="18" font-weight="600" fill="#0b0b0b">Visual suite performance statistics — baseline vs. this run, fastest to slowest</text>
  <rect x="24" y="52" width="14" height="14" rx="2" fill="#2a78d6" />
<text x="44" y="63" font-size="12" fill="#52514e" font-family="system-ui, -apple-system, sans-serif">Elaboration</text>
<rect x="149.2" y="52" width="14" height="14" rx="2" fill="#7c4dcc" />
<text x="169.2" y="63" font-size="12" fill="#52514e" font-family="system-ui, -apple-system, sans-serif">Rendering</text>
<rect x="260" y="52" width="14" height="14" rx="2" fill="#0ca30c" />
<text x="280" y="63" font-size="12" fill="#52514e" font-family="system-ui, -apple-system, sans-serif">Faster than baseline</text>
<rect x="450" y="52" width="14" height="14" rx="2" fill="#d03b3b" />
<text x="470" y="63" font-size="12" fill="#52514e" font-family="system-ui, -apple-system, sans-serif">Slower than baseline</text>
<rect x="640" y="52" width="14" height="14" rx="2" fill="url(#newHatchBlue)" />
<text x="660" y="63" font-size="12" fill="#52514e" font-family="system-ui, -apple-system, sans-serif">Elaboration (new)</text>
<rect x="808.4" y="52" width="14" height="14" rx="2" fill="url(#newHatchPurple)" />
<text x="828.4" y="63" font-size="12" fill="#52514e" font-family="system-ui, -apple-system, sans-serif">Rendering (new)</text>
  <text x="48" y="82" font-size="14" font-weight="600" fill="#0b0b0b" font-family="system-ui, -apple-system, sans-serif">Elaboration + rendering duration (ms)</text>
<line x1="60" y1="352" x2="938.4" y2="352" stroke="#e1e0d9" stroke-width="1" />
<text x="50" y="356" font-size="11" text-anchor="end" fill="#898781" font-family="system-ui, -apple-system, sans-serif">0</text>
<line x1="60" y1="330.1818181818182" x2="938.4" y2="330.1818181818182" stroke="#e1e0d9" stroke-width="1" />
<text x="50" y="334.1818181818182" font-size="11" text-anchor="end" fill="#898781" font-family="system-ui, -apple-system, sans-serif">500</text>
<line x1="60" y1="308.3636363636364" x2="938.4" y2="308.3636363636364" stroke="#e1e0d9" stroke-width="1" />
<text x="50" y="312.3636363636364" font-size="11" text-anchor="end" fill="#898781" font-family="system-ui, -apple-system, sans-serif">1000</text>
<line x1="60" y1="286.54545454545456" x2="938.4" y2="286.54545454545456" stroke="#e1e0d9" stroke-width="1" />
<text x="50" y="290.54545454545456" font-size="11" text-anchor="end" fill="#898781" font-family="system-ui, -apple-system, sans-serif">1500</text>
<line x1="60" y1="264.72727272727275" x2="938.4" y2="264.72727272727275" stroke="#e1e0d9" stroke-width="1" />
<text x="50" y="268.72727272727275" font-size="11" text-anchor="end" fill="#898781" font-family="system-ui, -apple-system, sans-serif">2000</text>
<line x1="60" y1="242.9090909090909" x2="938.4" y2="242.9090909090909" stroke="#e1e0d9" stroke-width="1" />
<text x="50" y="246.9090909090909" font-size="11" text-anchor="end" fill="#898781" font-family="system-ui, -apple-system, sans-serif">2500</text>
<line x1="60" y1="221.0909090909091" x2="938.4" y2="221.0909090909091" stroke="#e1e0d9" stroke-width="1" />
<text x="50" y="225.0909090909091" font-size="11" text-anchor="end" fill="#898781" font-family="system-ui, -apple-system, sans-serif">3000</text>
<line x1="60" y1="199.27272727272725" x2="938.4" y2="199.27272727272725" stroke="#e1e0d9" stroke-width="1" />
<text x="50" y="203.27272727272725" font-size="11" text-anchor="end" fill="#898781" font-family="system-ui, -apple-system, sans-serif">3500</text>
<line x1="60" y1="177.45454545454544" x2="938.4" y2="177.45454545454544" stroke="#e1e0d9" stroke-width="1" />
<text x="50" y="181.45454545454544" font-size="11" text-anchor="end" fill="#898781" font-family="system-ui, -apple-system, sans-serif">4000</text>
<line x1="60" y1="155.63636363636363" x2="938.4" y2="155.63636363636363" stroke="#e1e0d9" stroke-width="1" />
<text x="50" y="159.63636363636363" font-size="11" text-anchor="end" fill="#898781" font-family="system-ui, -apple-system, sans-serif">4500</text>
<line x1="60" y1="133.8181818181818" x2="938.4" y2="133.8181818181818" stroke="#e1e0d9" stroke-width="1" />
<text x="50" y="137.8181818181818" font-size="11" text-anchor="end" fill="#898781" font-family="system-ui, -apple-system, sans-serif">5000</text>
<line x1="60" y1="111.99999999999997" x2="938.4" y2="111.99999999999997" stroke="#e1e0d9" stroke-width="1" />
<text x="50" y="115.99999999999997" font-size="11" text-anchor="end" fill="#898781" font-family="system-ui, -apple-system, sans-serif">5500</text>
<line x1="60" y1="352" x2="938.4" y2="352" stroke="#c3c2b7" stroke-width="1.5" />
<rect x="60.866028169014086" y="351.04" width="4.453859154929577" height="0.9600000000000001" fill="#2a78d6" />
<rect x="60.866028169014086" y="350.86545454545455" width="4.453859154929577" height="0.17454545454545467" fill="#d03b3b" />
<rect x="67.05194366197183" y="351.3018181818182" width="4.453859154929577" height="0.6981818181818182" fill="#2a78d6" />
<rect x="67.05194366197183" y="351.04" width="4.453859154929577" height="0.26181818181818184" fill="#d03b3b" />
<rect x="67.05194366197183" y="346.58909090909094" width="4.453859154929577" height="4.450909090909091" fill="#7c4dcc" />
<rect x="67.05194366197183" y="345.93454545454546" width="4.453859154929577" height="0.6545454545454543" fill="#d03b3b" />
<rect x="73.23785915492958" y="350.86545454545455" width="4.453859154929577" height="1.1345454545454547" fill="#2a78d6" />
<rect x="73.23785915492958" y="350.7781818181818" width="4.453859154929577" height="0.08727272727272717" fill="#0ca30c" />
<rect x="73.23785915492958" y="345.41090909090906" width="4.453859154929577" height="5.367272727272728" fill="#7c4dcc" />
<rect x="73.23785915492958" y="345.2363636363636" width="4.453859154929577" height="0.1745454545454539" fill="#0ca30c" />
<rect x="79.42377464788733" y="350.95272727272726" width="4.453859154929577" height="1.0472727272727274" fill="#2a78d6" />
<rect x="79.42377464788733" y="350.90909090909093" width="4.453859154929577" height="0.043636363636363695" fill="#0ca30c" />
<rect x="79.42377464788733" y="344.62545454545455" width="4.453859154929577" height="6.283636363636364" fill="#7c4dcc" />
<rect x="79.42377464788733" y="344.32000000000005" width="4.453859154929577" height="0.30545454545454565" fill="#d03b3b" />
<rect x="85.60969014084507" y="349.51272727272726" width="4.453859154929577" height="2.4872727272727273" fill="#2a78d6" />
<rect x="85.60969014084507" y="349.42545454545456" width="4.453859154929577" height="0.08727272727272739" fill="#0ca30c" />
<rect x="85.60969014084507" y="343.5345454545455" width="4.453859154929577" height="5.8909090909090915" fill="#7c4dcc" />
<rect x="85.60969014084507" y="343.4472727272727" width="4.453859154929577" height="0.08727272727272695" fill="#0ca30c" />
<rect x="91.79560563380282" y="350.29818181818183" width="4.453859154929577" height="1.701818181818182" fill="#2a78d6" />
<rect x="91.79560563380282" y="350.25454545454545" width="4.453859154929577" height="0.043636363636363695" fill="#0ca30c" />
<rect x="91.79560563380282" y="343.36" width="4.453859154929577" height="6.894545454545455" fill="#7c4dcc" />
<rect x="91.79560563380282" y="343.36" width="4.453859154929577" height="0" fill="#0ca30c" />
<rect x="97.98152112676057" y="350.38545454545454" width="4.453859154929577" height="1.6145454545454547" fill="#2a78d6" />
<rect x="97.98152112676057" y="350.34181818181816" width="4.453859154929577" height="0.04363636363636347" fill="#d03b3b" />
<rect x="97.98152112676057" y="343.97090909090906" width="4.453859154929577" height="6.370909090909091" fill="#7c4dcc" />
<rect x="97.98152112676057" y="343.35999999999996" width="4.453859154929577" height="0.6109090909090913" fill="#d03b3b" />
<rect x="104.16743661971832" y="349.9054545454545" width="4.453859154929577" height="2.0945454545454547" fill="#2a78d6" />
<rect x="104.16743661971832" y="349.77454545454543" width="4.453859154929577" height="0.13090909090909086" fill="#d03b3b" />
<rect x="104.16743661971832" y="343.27272727272725" width="4.453859154929577" height="6.501818181818182" fill="#7c4dcc" />
<rect x="104.16743661971832" y="342.79272727272723" width="4.453859154929577" height="0.4800000000000004" fill="#0ca30c" />
<rect x="110.35335211267606" y="349.3381818181818" width="4.453859154929577" height="2.661818181818182" fill="#2a78d6" />
<rect x="110.35335211267606" y="349.2509090909091" width="4.453859154929577" height="0.08727272727272739" fill="#d03b3b" />
<rect x="110.35335211267606" y="343.14181818181817" width="4.453859154929577" height="6.109090909090909" fill="#7c4dcc" />
<rect x="110.35335211267606" y="343.05454545454546" width="4.453859154929577" height="0.08727272727272783" fill="#0ca30c" />
<rect x="116.53926760563381" y="349.6872727272727" width="4.453859154929577" height="2.312727272727273" fill="#2a78d6" />
<rect x="116.53926760563381" y="349.64363636363635" width="4.453859154929577" height="0.04363636363636347" fill="#d03b3b" />
<rect x="116.53926760563381" y="342.79272727272723" width="4.453859154929577" height="6.8509090909090915" fill="#7c4dcc" />
<rect x="116.53926760563381" y="342.0945454545454" width="4.453859154929577" height="0.6981818181818182" fill="#0ca30c" />
<rect x="122.72518309859156" y="348.85818181818183" width="4.453859154929577" height="3.141818181818182" fill="#2a78d6" />
<rect x="122.72518309859156" y="348.68363636363637" width="4.453859154929577" height="0.17454545454545434" fill="#0ca30c" />
<rect x="122.72518309859156" y="342.5309090909091" width="4.453859154929577" height="6.152727272727273" fill="#7c4dcc" />
<rect x="122.72518309859156" y="342.48727272727274" width="4.453859154929577" height="0.04363636363636392" fill="#d03b3b" />
<rect x="128.9110985915493" y="347.7236363636364" width="4.453859154929577" height="4.276363636363636" fill="#2a78d6" />
<rect x="128.9110985915493" y="347.6363636363636" width="4.453859154929577" height="0.08727272727272783" fill="#0ca30c" />
<rect x="128.9110985915493" y="342.3127272727273" width="4.453859154929577" height="5.323636363636364" fill="#7c4dcc" />
<rect x="128.9110985915493" y="341.96363636363634" width="4.453859154929577" height="0.3490909090909087" fill="#0ca30c" />
<rect x="135.09701408450704" y="349.3818181818182" width="4.453859154929577" height="2.618181818181818" fill="#2a78d6" />
<rect x="135.09701408450704" y="349.3381818181818" width="4.453859154929577" height="0.04363636363636392" fill="#d03b3b" />
<rect x="135.09701408450704" y="342.1381818181818" width="4.453859154929577" height="7.2" fill="#7c4dcc" />
<rect x="135.09701408450704" y="341.7890909090909" width="4.453859154929577" height="0.34909090909090956" fill="#0ca30c" />
<rect x="141.28292957746478" y="350.08" width="4.453859154929577" height="1.9200000000000002" fill="#2a78d6" />
<rect x="141.28292957746478" y="350.08" width="4.453859154929577" height="0" fill="#0ca30c" />
<rect x="141.28292957746478" y="342.2690909090909" width="4.453859154929577" height="7.8109090909090915" fill="#7c4dcc" />
<rect x="141.28292957746478" y="341.91999999999996" width="4.453859154929577" height="0.3490909090909087" fill="#d03b3b" />
<rect x="147.46884507042253" y="349.9490909090909" width="4.453859154929577" height="2.0509090909090912" fill="#2a78d6" />
<rect x="147.46884507042253" y="349.9490909090909" width="4.453859154929577" height="0" fill="#0ca30c" />
<rect x="147.46884507042253" y="341.92" width="4.453859154929577" height="8.02909090909091" fill="#7c4dcc" />
<rect x="147.46884507042253" y="341.70181818181817" width="4.453859154929577" height="0.2181818181818187" fill="#d03b3b" />
<rect x="153.65476056338028" y="348.11636363636364" width="4.453859154929577" height="3.8836363636363638" fill="#2a78d6" />
<rect x="153.65476056338028" y="347.7672727272727" width="4.453859154929577" height="0.34909090909090956" fill="#d03b3b" />
<rect x="153.65476056338028" y="341.6581818181818" width="4.453859154929577" height="6.109090909090909" fill="#7c4dcc" />
<rect x="153.65476056338028" y="341.4836363636363" width="4.453859154929577" height="0.17454545454545478" fill="#0ca30c" />
<rect x="159.84067605633803" y="347.59272727272725" width="4.453859154929577" height="4.407272727272727" fill="#2a78d6" />
<rect x="159.84067605633803" y="347.24363636363637" width="4.453859154929577" height="0.34909090909090956" fill="#d03b3b" />
<rect x="159.84067605633803" y="341.3090909090909" width="4.453859154929577" height="5.9345454545454555" fill="#7c4dcc" />
<rect x="159.84067605633803" y="339.8690909090909" width="4.453859154929577" height="1.4399999999999995" fill="#0ca30c" />
<rect x="166.02659154929577" y="347.68" width="4.453859154929577" height="4.32" fill="#2a78d6" />
<rect x="166.02659154929577" y="347.50545454545454" width="4.453859154929577" height="0.17454545454545478" fill="#0ca30c" />
<rect x="166.02659154929577" y="341.00363636363636" width="4.453859154929577" height="6.501818181818182" fill="#7c4dcc" />
<rect x="166.02659154929577" y="340.39272727272726" width="4.453859154929577" height="0.6109090909090913" fill="#0ca30c" />
<rect x="172.21250704225352" y="348.33454545454543" width="4.453859154929577" height="3.665454545454546" fill="#2a78d6" />
<rect x="172.21250704225352" y="348.11636363636364" width="4.453859154929577" height="0.2181818181818178" fill="#d03b3b" />
<rect x="172.21250704225352" y="341.1781818181818" width="4.453859154929577" height="6.9381818181818184" fill="#7c4dcc" />
<rect x="172.21250704225352" y="341.0909090909091" width="4.453859154929577" height="0.08727272727272783" fill="#d03b3b" />
<rect x="178.39842253521127" y="348.5090909090909" width="4.453859154929577" height="3.490909090909091" fill="#2a78d6" />
<rect x="178.39842253521127" y="348.20363636363635" width="4.453859154929577" height="0.30545454545454565" fill="#d03b3b" />
<rect x="178.39842253521127" y="341.09090909090907" width="4.453859154929577" height="7.112727272727273" fill="#7c4dcc" />
<rect x="178.39842253521127" y="341.00363636363636" width="4.453859154929577" height="0.08727272727272695" fill="#d03b3b" />
<rect x="184.58433802816901" y="348.07272727272726" width="4.453859154929577" height="3.9272727272727277" fill="#2a78d6" />
<rect x="184.58433802816901" y="348.07272727272726" width="4.453859154929577" height="0" fill="#0ca30c" />
<rect x="184.58433802816901" y="341.1781818181818" width="4.453859154929577" height="6.894545454545455" fill="#7c4dcc" />
<rect x="184.58433802816901" y="340.43636363636364" width="4.453859154929577" height="0.7418181818181813" fill="#d03b3b" />
<rect x="190.77025352112673" y="348.16" width="4.453859154929577" height="3.8400000000000003" fill="#2a78d6" />
<rect x="190.77025352112673" y="348.0290909090909" width="4.453859154929577" height="0.13090909090909086" fill="#d03b3b" />
<rect x="190.77025352112673" y="340.52363636363634" width="4.453859154929577" height="7.505454545454546" fill="#7c4dcc" />
<rect x="190.77025352112673" y="340.39272727272726" width="4.453859154929577" height="0.13090909090909086" fill="#d03b3b" />
<rect x="196.95616901408448" y="348.11636363636364" width="4.453859154929577" height="3.8836363636363638" fill="#2a78d6" />
<rect x="196.95616901408448" y="347.9418181818182" width="4.453859154929577" height="0.17454545454545478" fill="#d03b3b" />
<rect x="196.95616901408448" y="340.1309090909091" width="4.453859154929577" height="7.8109090909090915" fill="#7c4dcc" />
<rect x="196.95616901408448" y="337.64363636363635" width="4.453859154929577" height="2.4872727272727273" fill="#0ca30c" />
<rect x="203.14208450704223" y="347.68" width="4.453859154929577" height="4.32" fill="#2a78d6" />
<rect x="203.14208450704223" y="347.6363636363636" width="4.453859154929577" height="0.04363636363636392" fill="#d03b3b" />
<rect x="203.14208450704223" y="340.17454545454547" width="4.453859154929577" height="7.461818181818183" fill="#7c4dcc" />
<rect x="203.14208450704223" y="339.78181818181815" width="4.453859154929577" height="0.3927272727272726" fill="#d03b3b" />
<rect x="209.32799999999997" y="347.98545454545456" width="4.453859154929577" height="4.014545454545455" fill="#2a78d6" />
<rect x="209.32799999999997" y="347.8545454545455" width="4.453859154929577" height="0.13090909090909086" fill="#d03b3b" />
<rect x="209.32799999999997" y="339.4327272727273" width="4.453859154929577" height="8.421818181818182" fill="#7c4dcc" />
<rect x="209.32799999999997" y="339.3454545454546" width="4.453859154929577" height="0.08727272727272783" fill="#0ca30c" />
<rect x="215.51391549295772" y="349.0763636363636" width="4.453859154929577" height="2.923636363636364" fill="#2a78d6" />
<rect x="215.51391549295772" y="348.9890909090909" width="4.453859154929577" height="0.08727272727272739" fill="#0ca30c" />
<rect x="215.51391549295772" y="339.7818181818182" width="4.453859154929577" height="9.207272727272729" fill="#7c4dcc" />
<rect x="215.51391549295772" y="339.3018181818182" width="4.453859154929577" height="0.47999999999999865" fill="#d03b3b" />
<rect x="221.69983098591547" y="347.59272727272725" width="4.453859154929577" height="4.407272727272727" fill="#2a78d6" />
<rect x="221.69983098591547" y="347.5490909090909" width="4.453859154929577" height="0.04363636363636392" fill="#d03b3b" />
<rect x="221.69983098591547" y="340" width="4.453859154929577" height="7.54909090909091" fill="#7c4dcc" />
<rect x="221.69983098591547" y="339.3454545454546" width="4.453859154929577" height="0.6545454545454552" fill="#d03b3b" />
<rect x="227.88574647887322" y="347.1127272727273" width="4.453859154929577" height="4.887272727272728" fill="#2a78d6" />
<rect x="227.88574647887322" y="346.8509090909091" width="4.453859154929577" height="0.2618181818181817" fill="#0ca30c" />
<rect x="227.88574647887322" y="338.99636363636364" width="4.453859154929577" height="7.854545454545455" fill="#7c4dcc" />
<rect x="227.88574647887322" y="338.4727272727273" width="4.453859154929577" height="0.5236363636363635" fill="#0ca30c" />
<rect x="234.07166197183096" y="348.5090909090909" width="4.453859154929577" height="3.490909090909091" fill="#2a78d6" />
<rect x="234.07166197183096" y="348.33454545454543" width="4.453859154929577" height="0.17454545454545478" fill="#d03b3b" />
<rect x="234.07166197183096" y="339.1272727272727" width="4.453859154929577" height="9.207272727272729" fill="#7c4dcc" />
<rect x="234.07166197183096" y="338.2981818181818" width="4.453859154929577" height="0.8290909090909082" fill="#0ca30c" />
<rect x="240.2575774647887" y="346.54545454545456" width="4.453859154929577" height="5.454545454545455" fill="#2a78d6" />
<rect x="240.2575774647887" y="346.3272727272727" width="4.453859154929577" height="0.2181818181818178" fill="#d03b3b" />
<rect x="240.2575774647887" y="340.8290909090909" width="4.453859154929577" height="5.498181818181819" fill="#7c4dcc" />
<rect x="240.2575774647887" y="339.08363636363634" width="4.453859154929577" height="1.7454545454545451" fill="#d03b3b" />
<rect x="246.44349295774646" y="348.16" width="4.453859154929577" height="3.8400000000000003" fill="#2a78d6" />
<rect x="246.44349295774646" y="347.98545454545456" width="4.453859154929577" height="0.17454545454545434" fill="#d03b3b" />
<rect x="246.44349295774646" y="340.30545454545455" width="4.453859154929577" height="7.680000000000001" fill="#7c4dcc" />
<rect x="246.44349295774646" y="338.95272727272726" width="4.453859154929577" height="1.3527272727272726" fill="#d03b3b" />
<rect x="252.6294084507042" y="346.9818181818182" width="4.453859154929577" height="5.0181818181818185" fill="#2a78d6" />
<rect x="252.6294084507042" y="346.72" width="4.453859154929577" height="0.2618181818181817" fill="#d03b3b" />
<rect x="252.6294084507042" y="338.90909090909093" width="4.453859154929577" height="7.8109090909090915" fill="#7c4dcc" />
<rect x="252.6294084507042" y="338.86545454545455" width="4.453859154929577" height="0.04363636363636392" fill="#0ca30c" />
<rect x="258.815323943662" y="347.8109090909091" width="4.453859154929577" height="4.189090909090909" fill="#2a78d6" />
<rect x="258.815323943662" y="347.5490909090909" width="4.453859154929577" height="0.2618181818181817" fill="#d03b3b" />
<rect x="258.815323943662" y="338.8218181818182" width="4.453859154929577" height="8.727272727272728" fill="#7c4dcc" />
<rect x="258.815323943662" y="338.4727272727273" width="4.453859154929577" height="0.34909090909090956" fill="#0ca30c" />
<rect x="265.00123943661976" y="348.11636363636364" width="4.453859154929577" height="3.8836363636363638" fill="#2a78d6" />
<rect x="265.00123943661976" y="346.15272727272725" width="4.453859154929577" height="1.9636363636363638" fill="#d03b3b" />
<rect x="265.00123943661976" y="341.22181818181815" width="4.453859154929577" height="4.930909090909092" fill="#7c4dcc" />
<rect x="265.00123943661976" y="338.5163636363636" width="4.453859154929577" height="2.705454545454545" fill="#d03b3b" />
<rect x="271.1871549295775" y="347.0690909090909" width="4.453859154929577" height="4.930909090909092" fill="#2a78d6" />
<rect x="271.1871549295775" y="346.67636363636365" width="4.453859154929577" height="0.3927272727272726" fill="#0ca30c" />
<rect x="271.1871549295775" y="338.03636363636366" width="4.453859154929577" height="8.64" fill="#7c4dcc" />
<rect x="271.1871549295775" y="337.2072727272727" width="4.453859154929577" height="0.82909090909091" fill="#0ca30c" />
<rect x="277.37307042253525" y="347.98545454545456" width="4.453859154929577" height="4.014545454545455" fill="#2a78d6" />
<rect x="277.37307042253525" y="347.8981818181818" width="4.453859154929577" height="0.08727272727272783" fill="#d03b3b" />
<rect x="277.37307042253525" y="340.47999999999996" width="4.453859154929577" height="7.418181818181819" fill="#7c4dcc" />
<rect x="277.37307042253525" y="338.38545454545454" width="4.453859154929577" height="2.0945454545454547" fill="#d03b3b" />
<rect x="283.558985915493" y="346.63272727272727" width="4.453859154929577" height="5.367272727272728" fill="#2a78d6" />
<rect x="283.558985915493" y="346.4581818181818" width="4.453859154929577" height="0.1745454545454539" fill="#d03b3b" />
<rect x="283.558985915493" y="338.2981818181818" width="4.453859154929577" height="8.16" fill="#7c4dcc" />
<rect x="283.558985915493" y="337.2509090909091" width="4.453859154929577" height="1.0472727272727287" fill="#0ca30c" />
<rect x="289.74490140845074" y="346.9818181818182" width="4.453859154929577" height="5.0181818181818185" fill="#2a78d6" />
<rect x="289.74490140845074" y="346.9381818181818" width="4.453859154929577" height="0.04363636363636392" fill="#d03b3b" />
<rect x="289.74490140845074" y="337.77454545454543" width="4.453859154929577" height="9.163636363636364" fill="#7c4dcc" />
<rect x="289.74490140845074" y="337.64363636363635" width="4.453859154929577" height="0.13090909090909086" fill="#0ca30c" />
<rect x="295.9308169014085" y="345.32363636363635" width="4.453859154929577" height="6.676363636363637" fill="#2a78d6" />
<rect x="295.9308169014085" y="345.0618181818182" width="4.453859154929577" height="0.2618181818181817" fill="#d03b3b" />
<rect x="295.9308169014085" y="338.7781818181818" width="4.453859154929577" height="6.283636363636364" fill="#7c4dcc" />
<rect x="295.9308169014085" y="337.77454545454543" width="4.453859154929577" height="1.0036363636363639" fill="#d03b3b" />
<rect x="302.11673239436624" y="348.16" width="4.453859154929577" height="3.8400000000000003" fill="#2a78d6" />
<rect x="302.11673239436624" y="348.07272727272726" width="4.453859154929577" height="0.08727272727272739" fill="#0ca30c" />
<rect x="302.11673239436624" y="337.3381818181818" width="4.453859154929577" height="10.734545454545456" fill="#7c4dcc" />
<rect x="302.11673239436624" y="337.12" width="4.453859154929577" height="0.21818181818181692" fill="#d03b3b" />
<rect x="308.302647887324" y="345.28" width="4.453859154929577" height="6.720000000000001" fill="#2a78d6" />
<rect x="308.302647887324" y="344.4509090909091" width="4.453859154929577" height="0.8290909090909091" fill="#d03b3b" />
<rect x="308.302647887324" y="338.29818181818183" width="4.453859154929577" height="6.152727272727273" fill="#7c4dcc" />
<rect x="308.302647887324" y="337.12" width="4.453859154929577" height="1.1781818181818187" fill="#d03b3b" />
<rect x="314.48856338028173" y="347.28727272727275" width="4.453859154929577" height="4.712727272727273" fill="#2a78d6" />
<rect x="314.48856338028173" y="345.19272727272727" width="4.453859154929577" height="2.0945454545454547" fill="#d03b3b" />
<rect x="314.48856338028173" y="339.60727272727274" width="4.453859154929577" height="5.585454545454546" fill="#7c4dcc" />
<rect x="314.48856338028173" y="337.0763636363636" width="4.453859154929577" height="2.530909090909091" fill="#d03b3b" />
<rect x="320.6744788732394" y="347.8981818181818" width="4.453859154929577" height="4.1018181818181825" fill="#2a78d6" />
<rect x="320.6744788732394" y="347.7672727272727" width="4.453859154929577" height="0.13090909090909086" fill="#d03b3b" />
<rect x="320.6744788732394" y="338.95272727272726" width="4.453859154929577" height="8.814545454545454" fill="#7c4dcc" />
<rect x="320.6744788732394" y="336.9890909090909" width="4.453859154929577" height="1.9636363636363647" fill="#d03b3b" />
<rect x="326.86039436619717" y="336.24727272727273" width="4.453859154929577" height="15.752727272727274" fill="#7c4dcc" />
<rect x="326.86039436619717" y="336.24727272727273" width="4.453859154929577" height="0" fill="#0ca30c" />
<rect x="333.0463098591549" y="346.9381818181818" width="4.453859154929577" height="5.061818181818182" fill="#2a78d6" />
<rect x="333.0463098591549" y="345.4981818181818" width="4.453859154929577" height="1.4399999999999995" fill="#d03b3b" />
<rect x="333.0463098591549" y="338.56" width="4.453859154929577" height="6.9381818181818184" fill="#7c4dcc" />
<rect x="333.0463098591549" y="336.11636363636364" width="4.453859154929577" height="2.4436363636363643" fill="#d03b3b" />
<rect x="339.23222535211266" y="348.2909090909091" width="4.453859154929577" height="3.7090909090909094" fill="#2a78d6" />
<rect x="339.23222535211266" y="348.07272727272726" width="4.453859154929577" height="0.21818181818181825" fill="#d03b3b" />
<rect x="339.23222535211266" y="340.8290909090909" width="4.453859154929577" height="7.243636363636364" fill="#7c4dcc" />
<rect x="339.23222535211266" y="336.0290909090909" width="4.453859154929577" height="4.800000000000001" fill="#d03b3b" />
<rect x="345.4181408450704" y="346.02181818181816" width="4.453859154929577" height="5.9781818181818185" fill="#2a78d6" />
<rect x="345.4181408450704" y="345.8909090909091" width="4.453859154929577" height="0.13090909090909086" fill="#d03b3b" />
<rect x="345.4181408450704" y="335.59272727272725" width="4.453859154929577" height="10.298181818181819" fill="#7c4dcc" />
<rect x="345.4181408450704" y="335.5490909090909" width="4.453859154929577" height="0.04363636363636303" fill="#d03b3b" />
<rect x="351.60405633802816" y="348.20363636363635" width="4.453859154929577" height="3.796363636363637" fill="#2a78d6" />
<rect x="351.60405633802816" y="347.3309090909091" width="4.453859154929577" height="0.872727272727273" fill="#d03b3b" />
<rect x="351.60405633802816" y="338.0363636363636" width="4.453859154929577" height="9.294545454545455" fill="#7c4dcc" />
<rect x="351.60405633802816" y="335.2872727272727" width="4.453859154929577" height="2.74909090909091" fill="#d03b3b" />
<rect x="357.7899718309859" y="335.2" width="4.453859154929577" height="16.8" fill="#7c4dcc" />
<rect x="357.7899718309859" y="334.9381818181818" width="4.453859154929577" height="0.2618181818181817" fill="#d03b3b" />
<rect x="363.97588732394365" y="342.7490909090909" width="4.453859154929577" height="9.250909090909092" fill="#2a78d6" />
<rect x="363.97588732394365" y="341.13454545454545" width="4.453859154929577" height="1.6145454545454552" fill="#d03b3b" />
<rect x="363.97588732394365" y="335.9418181818182" width="4.453859154929577" height="5.192727272727273" fill="#7c4dcc" />
<rect x="363.97588732394365" y="334.89454545454544" width="4.453859154929577" height="1.047272727272727" fill="#d03b3b" />
<rect x="370.1618028169014" y="346.4145454545455" width="4.453859154929577" height="5.585454545454546" fill="#2a78d6" />
<rect x="370.1618028169014" y="345.97818181818184" width="4.453859154929577" height="0.4363636363636365" fill="#0ca30c" />
<rect x="370.1618028169014" y="334.9818181818182" width="4.453859154929577" height="10.996363636363638" fill="#7c4dcc" />
<rect x="370.1618028169014" y="334.3709090909091" width="4.453859154929577" height="0.6109090909090895" fill="#d03b3b" />
<rect x="376.34771830985915" y="345.6727272727273" width="4.453859154929577" height="6.327272727272728" fill="#2a78d6" />
<rect x="376.34771830985915" y="344.32" width="4.453859154929577" height="1.3527272727272726" fill="#d03b3b" />
<rect x="376.34771830985915" y="336.5527272727273" width="4.453859154929577" height="7.7672727272727276" fill="#7c4dcc" />
<rect x="376.34771830985915" y="334.71999999999997" width="4.453859154929577" height="1.8327272727272739" fill="#d03b3b" />
<rect x="382.5336338028169" y="334.5890909090909" width="4.453859154929577" height="17.410909090909094" fill="#7c4dcc" />
<rect x="382.5336338028169" y="332.1018181818182" width="4.453859154929577" height="2.4872727272727246" fill="#0ca30c" />
<rect x="388.71954929577464" y="343.2290909090909" width="4.453859154929577" height="8.770909090909091" fill="#2a78d6" />
<rect x="388.71954929577464" y="341.09090909090907" width="4.453859154929577" height="2.1381818181818186" fill="#d03b3b" />
<rect x="388.71954929577464" y="335.8545454545454" width="4.453859154929577" height="5.236363636363636" fill="#7c4dcc" />
<rect x="388.71954929577464" y="333.8036363636363" width="4.453859154929577" height="2.0509090909090917" fill="#d03b3b" />
<rect x="394.9054647887324" y="343.31636363636363" width="4.453859154929577" height="8.683636363636364" fill="#2a78d6" />
<rect x="394.9054647887324" y="340.91636363636366" width="4.453859154929577" height="2.4000000000000004" fill="#d03b3b" />
<rect x="394.9054647887324" y="335.41818181818184" width="4.453859154929577" height="5.498181818181819" fill="#7c4dcc" />
<rect x="394.9054647887324" y="333.4981818181818" width="4.453859154929577" height="1.92" fill="#d03b3b" />
<rect x="401.09138028169014" y="339.8690909090909" width="4.453859154929577" height="12.130909090909093" fill="#2a78d6" />
<rect x="401.09138028169014" y="338.6036363636364" width="4.453859154929577" height="1.2654545454545456" fill="#0ca30c" />
<rect x="401.09138028169014" y="332.0145454545455" width="4.453859154929577" height="6.58909090909091" fill="#7c4dcc" />
<rect x="401.09138028169014" y="330.7490909090909" width="4.453859154929577" height="1.2654545454545456" fill="#0ca30c" />
<rect x="407.2772957746479" y="344.1454545454545" width="4.453859154929577" height="7.854545454545455" fill="#2a78d6" />
<rect x="407.2772957746479" y="344.1018181818182" width="4.453859154929577" height="0.04363636363636303" fill="#0ca30c" />
<rect x="407.2772957746479" y="332.7127272727273" width="4.453859154929577" height="11.38909090909091" fill="#7c4dcc" />
<rect x="407.2772957746479" y="332.45090909090914" width="4.453859154929577" height="0.2618181818181817" fill="#0ca30c" />
<rect x="413.46321126760563" y="332.71272727272725" width="4.453859154929577" height="19.28727272727273" fill="#7c4dcc" />
<rect x="413.46321126760563" y="332.0581818181818" width="4.453859154929577" height="0.6545454545454561" fill="#0ca30c" />
<rect x="419.6491267605634" y="344.62545454545455" width="4.453859154929577" height="7.374545454545455" fill="#2a78d6" />
<rect x="419.6491267605634" y="344.4072727272727" width="4.453859154929577" height="0.2181818181818187" fill="#d03b3b" />
<rect x="419.6491267605634" y="333.2363636363636" width="4.453859154929577" height="11.170909090909092" fill="#7c4dcc" />
<rect x="419.6491267605634" y="332.6254545454545" width="4.453859154929577" height="0.6109090909090913" fill="#d03b3b" />
<rect x="425.8350422535211" y="343.36" width="4.453859154929577" height="8.64" fill="#2a78d6" />
<rect x="425.8350422535211" y="341.09090909090907" width="4.453859154929577" height="2.2690909090909095" fill="#d03b3b" />
<rect x="425.8350422535211" y="334.71999999999997" width="4.453859154929577" height="6.370909090909091" fill="#7c4dcc" />
<rect x="425.8350422535211" y="332.62545454545455" width="4.453859154929577" height="2.0945454545454556" fill="#d03b3b" />
<rect x="432.02095774647887" y="339.4327272727273" width="4.453859154929577" height="12.567272727272728" fill="#2a78d6" />
<rect x="432.02095774647887" y="339.04" width="4.453859154929577" height="0.3927272727272726" fill="#0ca30c" />
<rect x="432.02095774647887" y="332.1890909090909" width="4.453859154929577" height="6.8509090909090915" fill="#7c4dcc" />
<rect x="432.02095774647887" y="331.5345454545455" width="4.453859154929577" height="0.6545454545454543" fill="#0ca30c" />
<rect x="438.2068732394366" y="335.28727272727275" width="4.453859154929577" height="16.712727272727275" fill="#7c4dcc" />
<rect x="438.2068732394366" y="332.53818181818184" width="4.453859154929577" height="2.74909090909091" fill="#d03b3b" />
<rect x="444.39278873239437" y="346.02181818181816" width="4.453859154929577" height="5.9781818181818185" fill="#2a78d6" />
<rect x="444.39278873239437" y="344.53818181818184" width="4.453859154929577" height="1.4836363636363643" fill="#d03b3b" />
<rect x="444.39278873239437" y="337.3818181818182" width="4.453859154929577" height="7.156363636363637" fill="#7c4dcc" />
<rect x="444.39278873239437" y="332.3636363636364" width="4.453859154929577" height="5.0181818181818185" fill="#d03b3b" />
<rect x="450.5787042253521" y="340.5672727272727" width="4.453859154929577" height="11.432727272727274" fill="#2a78d6" />
<rect x="450.5787042253521" y="338.16727272727275" width="4.453859154929577" height="2.4000000000000004" fill="#0ca30c" />
<rect x="450.5787042253521" y="331.57818181818186" width="4.453859154929577" height="6.58909090909091" fill="#7c4dcc" />
<rect x="450.5787042253521" y="329.92" width="4.453859154929577" height="1.6581818181818182" fill="#d03b3b" />
<rect x="456.76461971830986" y="343.09818181818184" width="4.453859154929577" height="8.901818181818182" fill="#2a78d6" />
<rect x="456.76461971830986" y="339.3890909090909" width="4.453859154929577" height="3.709090909090909" fill="#d03b3b" />
<rect x="456.76461971830986" y="333.8036363636364" width="4.453859154929577" height="5.585454545454546" fill="#7c4dcc" />
<rect x="456.76461971830986" y="332.0581818181818" width="4.453859154929577" height="1.745454545454546" fill="#d03b3b" />
<rect x="462.9505352112676" y="332.01454545454544" width="4.453859154929577" height="19.985454545454548" fill="#7c4dcc" />
<rect x="462.9505352112676" y="329.87636363636364" width="4.453859154929577" height="2.138181818181817" fill="#0ca30c" />
<rect x="469.13645070422535" y="331.92727272727274" width="4.453859154929577" height="20.072727272727274" fill="#7c4dcc" />
<rect x="469.13645070422535" y="330.48727272727274" width="4.453859154929577" height="1.4400000000000013" fill="#0ca30c" />
<rect x="475.3223661971831" y="342.1381818181818" width="4.453859154929577" height="9.861818181818183" fill="#2a78d6" />
<rect x="475.3223661971831" y="339.52" width="4.453859154929577" height="2.6181818181818173" fill="#d03b3b" />
<rect x="475.3223661971831" y="333.4981818181818" width="4.453859154929577" height="6.021818181818182" fill="#7c4dcc" />
<rect x="475.3223661971831" y="331.5781818181818" width="4.453859154929577" height="1.92" fill="#d03b3b" />
<rect x="481.50828169014085" y="342.1381818181818" width="4.453859154929577" height="9.861818181818183" fill="#2a78d6" />
<rect x="481.50828169014085" y="338.99636363636364" width="4.453859154929577" height="3.1418181818181807" fill="#d03b3b" />
<rect x="481.50828169014085" y="332.8872727272727" width="4.453859154929577" height="6.109090909090909" fill="#7c4dcc" />
<rect x="481.50828169014085" y="331.5781818181818" width="4.453859154929577" height="1.3090909090909095" fill="#d03b3b" />
<rect x="487.6941971830986" y="340.96" width="4.453859154929577" height="11.040000000000001" fill="#2a78d6" />
<rect x="487.6941971830986" y="338.6909090909091" width="4.453859154929577" height="2.2690909090909095" fill="#d03b3b" />
<rect x="487.6941971830986" y="332.1018181818182" width="4.453859154929577" height="6.58909090909091" fill="#7c4dcc" />
<rect x="487.6941971830986" y="331.5345454545454" width="4.453859154929577" height="0.5672727272727274" fill="#d03b3b" />
<rect x="493.88011267605634" y="346.72" width="4.453859154929577" height="5.28" fill="#2a78d6" />
<rect x="493.88011267605634" y="346.67636363636365" width="4.453859154929577" height="0.04363636363636392" fill="#d03b3b" />
<rect x="493.88011267605634" y="332.01454545454544" width="4.453859154929577" height="14.661818181818184" fill="#7c4dcc" />
<rect x="493.88011267605634" y="331.4036363636364" width="4.453859154929577" height="0.6109090909090895" fill="#d03b3b" />
<rect x="500.0660281690141" y="344.6690909090909" width="4.453859154929577" height="7.330909090909092" fill="#2a78d6" />
<rect x="500.0660281690141" y="343.40363636363634" width="4.453859154929577" height="1.2654545454545456" fill="#d03b3b" />
<rect x="500.0660281690141" y="335.1127272727272" width="4.453859154929577" height="8.290909090909091" fill="#7c4dcc" />
<rect x="500.0660281690141" y="331.1854545454545" width="4.453859154929577" height="3.9272727272727277" fill="#d03b3b" />
<rect x="506.25194366197184" y="345.4109090909091" width="4.453859154929577" height="6.58909090909091" fill="#2a78d6" />
<rect x="506.25194366197184" y="343.88363636363636" width="4.453859154929577" height="1.5272727272727273" fill="#d03b3b" />
<rect x="506.25194366197184" y="335.0690909090909" width="4.453859154929577" height="8.814545454545454" fill="#7c4dcc" />
<rect x="506.25194366197184" y="331.0981818181818" width="4.453859154929577" height="3.9709090909090925" fill="#d03b3b" />
<rect x="512.4378591549296" y="345.5854545454545" width="4.453859154929577" height="6.414545454545455" fill="#2a78d6" />
<rect x="512.4378591549296" y="344.8" width="4.453859154929577" height="0.7854545454545452" fill="#d03b3b" />
<rect x="512.4378591549296" y="330.48727272727274" width="4.453859154929577" height="14.312727272727274" fill="#7c4dcc" />
<rect x="512.4378591549296" y="330.35636363636365" width="4.453859154929577" height="0.13090909090909086" fill="#0ca30c" />
<rect x="518.6237746478873" y="344.62545454545455" width="4.453859154929577" height="7.374545454545455" fill="#2a78d6" />
<rect x="518.6237746478873" y="342.6618181818182" width="4.453859154929577" height="1.9636363636363647" fill="#d03b3b" />
<rect x="518.6237746478873" y="335.8545454545455" width="4.453859154929577" height="6.807272727272728" fill="#7c4dcc" />
<rect x="518.6237746478873" y="330.0509090909091" width="4.453859154929577" height="5.803636363636364" fill="#d03b3b" />
<rect x="524.8096901408451" y="344.8872727272727" width="4.453859154929577" height="7.112727272727273" fill="#2a78d6" />
<rect x="524.8096901408451" y="342.1381818181818" width="4.453859154929577" height="2.74909090909091" fill="#d03b3b" />
<rect x="524.8096901408451" y="332.62545454545455" width="4.453859154929577" height="9.512727272727274" fill="#7c4dcc" />
<rect x="524.8096901408451" y="329.74545454545455" width="4.453859154929577" height="2.880000000000001" fill="#d03b3b" />
<rect x="530.9956056338028" y="329.70181818181817" width="4.453859154929577" height="22.29818181818182" fill="#7c4dcc" />
<rect x="530.9956056338028" y="328.91636363636366" width="4.453859154929577" height="0.7854545454545452" fill="#0ca30c" />
<rect x="537.1815211267606" y="329.61454545454546" width="4.453859154929577" height="22.385454545454547" fill="#7c4dcc" />
<rect x="537.1815211267606" y="329.1781818181818" width="4.453859154929577" height="0.4363636363636374" fill="#0ca30c" />
<rect x="543.3674366197183" y="329.4836363636364" width="4.453859154929577" height="22.51636363636364" fill="#7c4dcc" />
<rect x="543.3674366197183" y="327.8690909090909" width="4.453859154929577" height="1.6145454545454534" fill="#0ca30c" />
<rect x="549.5533521126761" y="342.0945454545455" width="4.453859154929577" height="9.905454545454546" fill="#2a78d6" />
<rect x="549.5533521126761" y="338.25454545454545" width="4.453859154929577" height="3.84" fill="#d03b3b" />
<rect x="549.5533521126761" y="331.66545454545457" width="4.453859154929577" height="6.58909090909091" fill="#7c4dcc" />
<rect x="549.5533521126761" y="329.44" width="4.453859154929577" height="2.2254545454545447" fill="#d03b3b" />
<rect x="555.7392676056338" y="329.3963636363636" width="4.453859154929577" height="22.603636363636365" fill="#7c4dcc" />
<rect x="555.7392676056338" y="327.1709090909091" width="4.453859154929577" height="2.2254545454545465" fill="#0ca30c" />
<rect x="561.9251830985916" y="340.2181818181818" width="4.453859154929577" height="11.781818181818183" fill="#2a78d6" />
<rect x="561.9251830985916" y="337.42545454545456" width="4.453859154929577" height="2.792727272727273" fill="#d03b3b" />
<rect x="561.9251830985916" y="329.3527272727273" width="4.453859154929577" height="8.072727272727274" fill="#7c4dcc" />
<rect x="561.9251830985916" y="328.48" width="4.453859154929577" height="0.8727272727272712" fill="#0ca30c" />
<rect x="568.1110985915493" y="328.96" width="4.453859154929577" height="23.040000000000003" fill="#7c4dcc" />
<rect x="568.1110985915493" y="327.8690909090909" width="4.453859154929577" height="1.09090909090909" fill="#0ca30c" />
<rect x="574.2970140845069" y="342.1381818181818" width="4.453859154929577" height="9.861818181818183" fill="#2a78d6" />
<rect x="574.2970140845069" y="340.96" width="4.453859154929577" height="1.1781818181818178" fill="#d03b3b" />
<rect x="574.2970140845069" y="332.4509090909091" width="4.453859154929577" height="8.50909090909091" fill="#7c4dcc" />
<rect x="574.2970140845069" y="328.5672727272727" width="4.453859154929577" height="3.8836363636363647" fill="#d03b3b" />
<rect x="580.4829295774647" y="328.26181818181817" width="4.453859154929577" height="23.738181818181822" fill="#7c4dcc" />
<rect x="580.4829295774647" y="326.9090909090909" width="4.453859154929577" height="1.3527272727272717" fill="#0ca30c" />
<rect x="586.6688450704224" y="344.2763636363636" width="4.453859154929577" height="7.7236363636363645" fill="#2a78d6" />
<rect x="586.6688450704224" y="343.92727272727274" width="4.453859154929577" height="0.34909090909090956" fill="#d03b3b" />
<rect x="586.6688450704224" y="329.3090909090909" width="4.453859154929577" height="14.618181818181819" fill="#7c4dcc" />
<rect x="586.6688450704224" y="328.0436363636364" width="4.453859154929577" height="1.2654545454545456" fill="#d03b3b" />
<rect x="592.8547605633802" y="340.1309090909091" width="4.453859154929577" height="11.869090909090911" fill="#2a78d6" />
<rect x="592.8547605633802" y="337.55636363636364" width="4.453859154929577" height="2.5745454545454542" fill="#0ca30c" />
<rect x="592.8547605633802" y="325.3818181818182" width="4.453859154929577" height="12.174545454545456" fill="#7c4dcc" />
<rect x="592.8547605633802" y="324.85818181818183" width="4.453859154929577" height="0.5236363636363635" fill="#0ca30c" />
<rect x="599.0406760563379" y="328.52363636363634" width="4.453859154929577" height="23.476363636363637" fill="#7c4dcc" />
<rect x="599.0406760563379" y="327.60727272727274" width="4.453859154929577" height="0.9163636363636378" fill="#d03b3b" />
<rect x="605.2265915492957" y="342.9236363636364" width="4.453859154929577" height="9.076363636363638" fill="#2a78d6" />
<rect x="605.2265915492957" y="340.7418181818182" width="4.453859154929577" height="2.1818181818181817" fill="#d03b3b" />
<rect x="605.2265915492957" y="330.0509090909091" width="4.453859154929577" height="10.690909090909091" fill="#7c4dcc" />
<rect x="605.2265915492957" y="326.16727272727275" width="4.453859154929577" height="3.8836363636363647" fill="#d03b3b" />
<rect x="611.4125070422534" y="342.57454545454544" width="4.453859154929577" height="9.425454545454546" fill="#2a78d6" />
<rect x="611.4125070422534" y="339.2581818181818" width="4.453859154929577" height="3.3163636363636364" fill="#d03b3b" />
<rect x="611.4125070422534" y="328.48" width="4.453859154929577" height="10.77818181818182" fill="#7c4dcc" />
<rect x="611.4125070422534" y="326.08" width="4.453859154929577" height="2.4000000000000004" fill="#d03b3b" />
<rect x="617.5984225352112" y="331.75272727272727" width="4.453859154929577" height="20.24727272727273" fill="#7c4dcc" />
<rect x="617.5984225352112" y="325.9927272727273" width="4.453859154929577" height="5.759999999999998" fill="#d03b3b" />
<rect x="623.7843380281689" y="343.36" width="4.453859154929577" height="8.64" fill="#2a78d6" />
<rect x="623.7843380281689" y="342.7490909090909" width="4.453859154929577" height="0.6109090909090913" fill="#0ca30c" />
<rect x="623.7843380281689" y="325.1636363636364" width="4.453859154929577" height="17.585454545454546" fill="#7c4dcc" />
<rect x="623.7843380281689" y="325.03272727272724" width="4.453859154929577" height="0.13090909090909264" fill="#0ca30c" />
<rect x="629.9702535211267" y="338.6472727272727" width="4.453859154929577" height="13.352727272727273" fill="#2a78d6" />
<rect x="629.9702535211267" y="334.3272727272727" width="4.453859154929577" height="4.320000000000002" fill="#d03b3b" />
<rect x="629.9702535211267" y="325.2945454545454" width="4.453859154929577" height="9.032727272727273" fill="#7c4dcc" />
<rect x="629.9702535211267" y="323.72363636363633" width="4.453859154929577" height="1.5709090909090921" fill="#0ca30c" />
<rect x="636.1561690140844" y="328.30545454545455" width="4.453859154929577" height="23.694545454545455" fill="#7c4dcc" />
<rect x="636.1561690140844" y="325.1636363636364" width="4.453859154929577" height="3.1418181818181843" fill="#d03b3b" />
<rect x="642.3420845070422" y="325.1636363636364" width="4.453859154929577" height="26.83636363636364" fill="#7c4dcc" />
<rect x="642.3420845070422" y="323.9418181818182" width="4.453859154929577" height="1.2218181818181826" fill="#0ca30c" />
<rect x="648.5279999999999" y="340.91636363636366" width="4.453859154929577" height="11.083636363636364" fill="#2a78d6" />
<rect x="648.5279999999999" y="340.30545454545455" width="4.453859154929577" height="0.6109090909090913" fill="#d03b3b" />
<rect x="648.5279999999999" y="324.81454545454545" width="4.453859154929577" height="15.490909090909092" fill="#7c4dcc" />
<rect x="648.5279999999999" y="324.4218181818182" width="4.453859154929577" height="0.3927272727272726" fill="#0ca30c" />
<rect x="654.7139154929577" y="338.7781818181818" width="4.453859154929577" height="13.221818181818183" fill="#2a78d6" />
<rect x="654.7139154929577" y="337.6" width="4.453859154929577" height="1.1781818181818178" fill="#d03b3b" />
<rect x="654.7139154929577" y="324.11636363636364" width="4.453859154929577" height="13.483636363636364" fill="#7c4dcc" />
<rect x="654.7139154929577" y="324.02909090909094" width="4.453859154929577" height="0.08727272727272783" fill="#0ca30c" />
<rect x="660.8998309859154" y="323.68" width="4.453859154929577" height="28.320000000000004" fill="#7c4dcc" />
<rect x="660.8998309859154" y="323.28727272727275" width="4.453859154929577" height="0.3927272727272708" fill="#0ca30c" />
<rect x="667.0857464788731" y="323.3309090909091" width="4.453859154929577" height="28.66909090909091" fill="#7c4dcc" />
<rect x="667.0857464788731" y="321.84727272727275" width="4.453859154929577" height="1.4836363636363643" fill="#0ca30c" />
<rect x="673.2716619718309" y="323.2" width="4.453859154929577" height="28.8" fill="#7c4dcc" />
<rect x="673.2716619718309" y="317.13454545454545" width="4.453859154929577" height="6.065454545454546" fill="#0ca30c" />
<rect x="679.4575774647886" y="333.5854545454545" width="4.453859154929577" height="18.414545454545458" fill="#2a78d6" />
<rect x="679.4575774647886" y="332.0581818181818" width="4.453859154929577" height="1.5272727272727273" fill="#d03b3b" />
<rect x="679.4575774647886" y="323.7672727272727" width="4.453859154929577" height="8.290909090909091" fill="#7c4dcc" />
<rect x="679.4575774647886" y="322.9381818181818" width="4.453859154929577" height="0.82909090909091" fill="#d03b3b" />
<rect x="685.6434929577464" y="339.08363636363634" width="4.453859154929577" height="12.916363636363638" fill="#2a78d6" />
<rect x="685.6434929577464" y="338.86545454545455" width="4.453859154929577" height="0.21818181818181692" fill="#d03b3b" />
<rect x="685.6434929577464" y="322.89454545454544" width="4.453859154929577" height="15.970909090909092" fill="#7c4dcc" />
<rect x="685.6434929577464" y="322.5018181818182" width="4.453859154929577" height="0.3927272727272708" fill="#0ca30c" />
<rect x="691.8294084507041" y="340.17454545454547" width="4.453859154929577" height="11.825454545454546" fill="#2a78d6" />
<rect x="691.8294084507041" y="336.72727272727275" width="4.453859154929577" height="3.4472727272727273" fill="#d03b3b" />
<rect x="691.8294084507041" y="326.64727272727276" width="4.453859154929577" height="10.08" fill="#7c4dcc" />
<rect x="691.8294084507041" y="322.80727272727273" width="4.453859154929577" height="3.8400000000000016" fill="#d03b3b" />
<rect x="698.0153239436619" y="326.86545454545455" width="4.453859154929577" height="25.134545454545457" fill="#7c4dcc" />
<rect x="698.0153239436619" y="322.3709090909091" width="4.453859154929577" height="4.494545454545456" fill="#d03b3b" />
<rect x="704.2012394366196" y="322.24" width="4.453859154929577" height="29.76" fill="#7c4dcc" />
<rect x="704.2012394366196" y="319.5345454545454" width="4.453859154929577" height="2.705454545454547" fill="#0ca30c" />
<rect x="710.3871549295774" y="341.1781818181818" width="4.453859154929577" height="10.821818181818182" fill="#2a78d6" />
<rect x="710.3871549295774" y="340.91636363636366" width="4.453859154929577" height="0.2618181818181817" fill="#d03b3b" />
<rect x="710.3871549295774" y="321.6727272727273" width="4.453859154929577" height="19.243636363636366" fill="#7c4dcc" />
<rect x="710.3871549295774" y="320.8436363636364" width="4.453859154929577" height="0.8290909090909082" fill="#0ca30c" />
<rect x="716.5730704225351" y="337.6" width="4.453859154929577" height="14.4" fill="#2a78d6" />
<rect x="716.5730704225351" y="331.6218181818182" width="4.453859154929577" height="5.9781818181818185" fill="#d03b3b" />
<rect x="716.5730704225351" y="323.8981818181818" width="4.453859154929577" height="7.7236363636363645" fill="#7c4dcc" />
<rect x="716.5730704225351" y="321.6290909090909" width="4.453859154929577" height="2.2690909090909095" fill="#d03b3b" />
<rect x="722.7589859154929" y="343.40363636363634" width="4.453859154929577" height="8.596363636363638" fill="#2a78d6" />
<rect x="722.7589859154929" y="343.36" width="4.453859154929577" height="0.04363636363636303" fill="#0ca30c" />
<rect x="722.7589859154929" y="321.32363636363635" width="4.453859154929577" height="22.03636363636364" fill="#7c4dcc" />
<rect x="722.7589859154929" y="319.09818181818184" width="4.453859154929577" height="2.2254545454545465" fill="#0ca30c" />
<rect x="728.9449014084506" y="321.1490909090909" width="4.453859154929577" height="30.850909090909095" fill="#2a78d6" />
<rect x="728.9449014084506" y="316.6545454545454" width="4.453859154929577" height="4.494545454545456" fill="#0ca30c" />
<rect x="735.1308169014084" y="317.4836363636364" width="4.453859154929577" height="34.516363636363636" fill="#7c4dcc" />
<rect x="735.1308169014084" y="316.30545454545455" width="4.453859154929577" height="1.1781818181818196" fill="#0ca30c" />
<rect x="741.3167323943661" y="317.44" width="4.453859154929577" height="34.56" fill="#7c4dcc" />
<rect x="741.3167323943661" y="315.1709090909091" width="4.453859154929577" height="2.269090909090913" fill="#0ca30c" />
<rect x="747.5026478873239" y="316.6981818181818" width="4.453859154929577" height="35.301818181818184" fill="#7c4dcc" />
<rect x="747.5026478873239" y="316.17454545454547" width="4.453859154929577" height="0.5236363636363635" fill="#0ca30c" />
<rect x="753.6885633802816" y="318.70545454545453" width="4.453859154929577" height="33.29454545454546" fill="#7c4dcc" />
<rect x="753.6885633802816" y="316.17454545454547" width="4.453859154929577" height="2.530909090909091" fill="#d03b3b" />
<rect x="759.8744788732394" y="315.69454545454545" width="4.453859154929577" height="36.30545454545455" fill="#7c4dcc" />
<rect x="759.8744788732394" y="315.1709090909091" width="4.453859154929577" height="0.5236363636363635" fill="#d03b3b" />
<rect x="766.0603943661971" y="315.1709090909091" width="4.453859154929577" height="36.829090909090915" fill="#7c4dcc" />
<rect x="766.0603943661971" y="315.08363636363634" width="4.453859154929577" height="0.08727272727272606" fill="#0ca30c" />
<rect x="772.2463098591548" y="314.25454545454545" width="4.453859154929577" height="37.74545454545455" fill="#7c4dcc" />
<rect x="772.2463098591548" y="314.25454545454545" width="4.453859154929577" height="0" fill="#0ca30c" />
<rect x="778.4322253521126" y="313.29454545454547" width="4.453859154929577" height="38.70545454545455" fill="#7c4dcc" />
<rect x="778.4322253521126" y="313.29454545454547" width="4.453859154929577" height="0" fill="#0ca30c" />
<rect x="784.6181408450703" y="312.5090909090909" width="4.453859154929577" height="39.49090909090909" fill="#7c4dcc" />
<rect x="784.6181408450703" y="311.2872727272727" width="4.453859154929577" height="1.2218181818181861" fill="#0ca30c" />
<rect x="790.8040563380281" y="313.2072727272727" width="4.453859154929577" height="38.79272727272728" fill="#7c4dcc" />
<rect x="790.8040563380281" y="312.15999999999997" width="4.453859154929577" height="1.047272727272727" fill="#d03b3b" />
<rect x="796.9899718309858" y="314.73454545454547" width="4.453859154929577" height="37.265454545454546" fill="#7c4dcc" />
<rect x="796.9899718309858" y="310.1963636363636" width="4.453859154929577" height="4.538181818181819" fill="#d03b3b" />
<rect x="803.1758873239436" y="309.0618181818182" width="4.453859154929577" height="42.938181818181825" fill="#7c4dcc" />
<rect x="803.1758873239436" y="308.62545454545455" width="4.453859154929577" height="0.4363636363636303" fill="#0ca30c" />
<rect x="809.3618028169013" y="307.4909090909091" width="4.453859154929577" height="44.509090909090915" fill="#7c4dcc" />
<rect x="809.3618028169013" y="305.5272727272727" width="4.453859154929577" height="1.9636363636363612" fill="#0ca30c" />
<rect x="815.5477183098591" y="307.18545454545455" width="4.453859154929577" height="44.81454545454546" fill="#7c4dcc" />
<rect x="815.5477183098591" y="305.74545454545455" width="4.453859154929577" height="1.4399999999999977" fill="#0ca30c" />
<rect x="821.7336338028168" y="305.92" width="4.453859154929577" height="46.080000000000005" fill="#7c4dcc" />
<rect x="821.7336338028168" y="305.3527272727273" width="4.453859154929577" height="0.5672727272727229" fill="#d03b3b" />
<rect x="827.9195492957746" y="350.08" width="4.453859154929577" height="1.9200000000000002" fill="#2a78d6" />
<rect x="827.9195492957746" y="350.03636363636366" width="4.453859154929577" height="0.043636363636363695" fill="#0ca30c" />
<rect x="827.9195492957746" y="304.48" width="4.453859154929577" height="45.55636363636364" fill="#7c4dcc" />
<rect x="827.9195492957746" y="303.2145454545455" width="4.453859154929577" height="1.2654545454545456" fill="#0ca30c" />
<rect x="834.1054647887323" y="350.34181818181816" width="4.453859154929577" height="1.6581818181818182" fill="#2a78d6" />
<rect x="834.1054647887323" y="350.29818181818183" width="4.453859154929577" height="0.043636363636363695" fill="#0ca30c" />
<rect x="834.1054647887323" y="303.9563636363637" width="4.453859154929577" height="46.341818181818184" fill="#7c4dcc" />
<rect x="834.1054647887323" y="303.1709090909091" width="4.453859154929577" height="0.7854545454545487" fill="#d03b3b" />
<rect x="840.2913802816901" y="348.0290909090909" width="4.453859154929577" height="3.970909090909091" fill="#2a78d6" />
<rect x="840.2913802816901" y="347.9418181818182" width="4.453859154929577" height="0.08727272727272739" fill="#0ca30c" />
<rect x="840.2913802816901" y="303.52" width="4.453859154929577" height="44.42181818181818" fill="#7c4dcc" />
<rect x="840.2913802816901" y="303.08363636363634" width="4.453859154929577" height="0.4363636363636374" fill="#d03b3b" />
<rect x="846.4772957746478" y="347.98545454545456" width="4.453859154929577" height="4.014545454545455" fill="#2a78d6" />
<rect x="846.4772957746478" y="347.7672727272727" width="4.453859154929577" height="0.2181818181818187" fill="#d03b3b" />
<rect x="846.4772957746478" y="303.4327272727273" width="4.453859154929577" height="44.334545454545456" fill="#7c4dcc" />
<rect x="846.4772957746478" y="300.8581818181818" width="4.453859154929577" height="2.574545454545458" fill="#d03b3b" />
<rect x="852.6632112676056" y="300.11636363636364" width="4.453859154929577" height="51.88363636363637" fill="#7c4dcc" />
<rect x="852.6632112676056" y="299.59272727272725" width="4.453859154929577" height="0.5236363636363635" fill="#0ca30c" />
<rect x="858.8491267605633" y="296.62545454545455" width="4.453859154929577" height="55.37454545454546" fill="#7c4dcc" />
<rect x="858.8491267605633" y="295.31636363636363" width="4.453859154929577" height="1.309090909090905" fill="#d03b3b" />
<rect x="865.035042253521" y="292.43636363636364" width="4.453859154929577" height="59.56363636363637" fill="#7c4dcc" />
<rect x="865.035042253521" y="289.4690909090909" width="4.453859154929577" height="2.9672727272727286" fill="#d03b3b" />
<rect x="871.2209577464788" y="286.3709090909091" width="4.453859154929577" height="65.62909090909092" fill="#7c4dcc" />
<rect x="871.2209577464788" y="284.3636363636364" width="4.453859154929577" height="2.0072727272727207" fill="#d03b3b" />
<rect x="877.4068732394365" y="351.1272727272727" width="4.453859154929577" height="0.8727272727272728" fill="#2a78d6" />
<rect x="877.4068732394365" y="350.99636363636364" width="4.453859154929577" height="0.13090909090909086" fill="#d03b3b" />
<rect x="877.4068732394365" y="287.7236363636364" width="4.453859154929577" height="63.27272727272728" fill="#7c4dcc" />
<rect x="877.4068732394365" y="283.05454545454546" width="4.453859154929577" height="4.669090909090912" fill="#d03b3b" />
<rect x="883.5927887323943" y="281.4836363636364" width="4.453859154929577" height="70.51636363636364" fill="#7c4dcc" />
<rect x="883.5927887323943" y="281.09090909090907" width="4.453859154929577" height="0.392727272727285" fill="#0ca30c" />
<rect x="889.778704225352" y="280.6981818181818" width="4.453859154929577" height="71.30181818181819" fill="#7c4dcc" />
<rect x="889.778704225352" y="280.52363636363634" width="4.453859154929577" height="0.17454545454545212" fill="#0ca30c" />
<rect x="895.9646197183098" y="309.32363636363635" width="4.453859154929577" height="42.67636363636364" fill="#7c4dcc" />
<rect x="895.9646197183098" y="280.6109090909091" width="4.453859154929577" height="28.71272727272727" fill="#d03b3b" />
<rect x="902.1505352112675" y="262.06545454545454" width="4.453859154929577" height="89.93454545454546" fill="#2a78d6" />
<rect x="902.1505352112675" y="249.45454545454544" width="4.453859154929577" height="12.61090909090909" fill="#d03b3b" />
<rect x="902.1505352112675" y="241.8181818181818" width="4.453859154929577" height="7.636363636363637" fill="#7c4dcc" />
<rect x="902.1505352112675" y="241.51272727272726" width="4.453859154929577" height="0.30545454545454565" fill="#d03b3b" />
<rect x="908.3364507042253" y="261.10545454545456" width="4.453859154929577" height="90.89454545454547" fill="#2a78d6" />
<rect x="908.3364507042253" y="248.84363636363634" width="4.453859154929577" height="12.261818181818185" fill="#d03b3b" />
<rect x="908.3364507042253" y="241.59999999999997" width="4.453859154929577" height="7.243636363636364" fill="#7c4dcc" />
<rect x="908.3364507042253" y="241.11999999999998" width="4.453859154929577" height="0.4800000000000004" fill="#d03b3b" />
<rect x="914.522366197183" y="261.5854545454545" width="4.453859154929577" height="90.41454545454546" fill="#2a78d6" />
<rect x="914.522366197183" y="249.19272727272727" width="4.453859154929577" height="12.39272727272727" fill="#d03b3b" />
<rect x="914.522366197183" y="241.12" width="4.453859154929577" height="8.072727272727274" fill="#7c4dcc" />
<rect x="914.522366197183" y="240.42181818181817" width="4.453859154929577" height="0.6981818181818173" fill="#d03b3b" />
<rect x="920.7082816901408" y="249.89090909090908" width="4.453859154929577" height="102.10909090909092" fill="#2a78d6" />
<rect x="920.7082816901408" y="239.46181818181816" width="4.453859154929577" height="10.429090909090903" fill="#d03b3b" />
<rect x="920.7082816901408" y="231.95636363636362" width="4.453859154929577" height="7.505454545454546" fill="#7c4dcc" />
<rect x="920.7082816901408" y="231.08363636363634" width="4.453859154929577" height="0.872727272727273" fill="#d03b3b" />
<rect x="926.8941971830985" y="203.8109090909091" width="4.453859154929577" height="148.1890909090909" fill="#2a78d6" />
<rect x="926.8941971830985" y="197.48363636363635" width="4.453859154929577" height="6.327272727272742" fill="#d03b3b" />
<rect x="933.0801126760563" y="175.9272727272727" width="4.453859154929577" height="176.0727272727273" fill="#7c4dcc" />
<rect x="933.0801126760563" y="162.92363636363635" width="4.453859154929577" height="13.00363636363636" fill="#d03b3b" />
  
</svg>