<svg xmlns="http://www.w3.org/2000/svg" width="2000" height="500" viewBox="0 0 2000 500" font-family="system-ui, -apple-system, sans-serif">
  <rect x="0" y="0" width="2000" height="500" fill="#fcfcfb" />
  <text x="24" y="34" font-size="18" font-weight="600" fill="#0b0b0b">Memory profiling (RSS) — worst shard/leg per category, per master push</text>
  <rect x="24" y="52" width="14" height="14" rx="2" fill="#2a78d6" />
<text x="44" y="63" font-size="12" fill="#52514e" font-family="system-ui, -apple-system, sans-serif">Visual peak RSS</text>
<rect x="178" y="52" width="14" height="14" rx="2" fill="#2a78d6" opacity="0.55" />
<text x="198" y="63" font-size="12" fill="#52514e" font-family="system-ui, -apple-system, sans-serif">Visual peak RSS (10-run avg)</text>
<rect x="425.6" y="52" width="14" height="14" rx="2" fill="#7c4dcc" />
<text x="445.6" y="63" font-size="12" fill="#52514e" font-family="system-ui, -apple-system, sans-serif">System peak RSS</text>
<rect x="579.6" y="52" width="14" height="14" rx="2" fill="#7c4dcc" opacity="0.55" />
<text x="599.6" y="63" font-size="12" fill="#52514e" font-family="system-ui, -apple-system, sans-serif">System peak RSS (10-run avg)</text>
<rect x="827.2" y="52" width="14" height="14" rx="2" fill="#0f9188" />
<text x="847.2" y="63" font-size="12" fill="#52514e" font-family="system-ui, -apple-system, sans-serif">BDD peak RSS</text>
<rect x="959.6" y="52" width="14" height="14" rx="2" fill="#0f9188" opacity="0.55" />
<text x="979.6" y="63" font-size="12" fill="#52514e" font-family="system-ui, -apple-system, sans-serif">BDD peak RSS (10-run avg)</text>
  <text x="48" y="82" font-size="14" font-weight="600" fill="#0b0b0b" font-family="system-ui, -apple-system, sans-serif">Peak RSS per category, per master push (MB) — dashed segment is this PR, not yet merged</text>
<line x1="60" y1="472" x2="1976" y2="472" stroke="#e1e0d9" stroke-width="1" />
<text x="50" y="476" font-size="11" text-anchor="end" fill="#898781" font-family="system-ui, -apple-system, sans-serif">0</text>
<line x1="60" y1="429.77777777777777" x2="1976" y2="429.77777777777777" stroke="#e1e0d9" stroke-width="1" />
<text x="50" y="433.77777777777777" font-size="11" text-anchor="end" fill="#898781" font-family="system-ui, -apple-system, sans-serif">500</text>
<line x1="60" y1="387.55555555555554" x2="1976" y2="387.55555555555554" stroke="#e1e0d9" stroke-width="1" />
<text x="50" y="391.55555555555554" font-size="11" text-anchor="end" fill="#898781" font-family="system-ui, -apple-system, sans-serif">1000</text>
<line x1="60" y1="345.3333333333333" x2="1976" y2="345.3333333333333" stroke="#e1e0d9" stroke-width="1" />
<text x="50" y="349.3333333333333" font-size="11" text-anchor="end" fill="#898781" font-family="system-ui, -apple-system, sans-serif">1500</text>
<line x1="60" y1="303.1111111111111" x2="1976" y2="303.1111111111111" stroke="#e1e0d9" stroke-width="1" />
<text x="50" y="307.1111111111111" font-size="11" text-anchor="end" fill="#898781" font-family="system-ui, -apple-system, sans-serif">2000</text>
<line x1="60" y1="260.8888888888889" x2="1976" y2="260.8888888888889" stroke="#e1e0d9" stroke-width="1" />
<text x="50" y="264.8888888888889" font-size="11" text-anchor="end" fill="#898781" font-family="system-ui, -apple-system, sans-serif">2500</text>
<line x1="60" y1="218.66666666666666" x2="1976" y2="218.66666666666666" stroke="#e1e0d9" stroke-width="1" />
<text x="50" y="222.66666666666666" font-size="11" text-anchor="end" fill="#898781" font-family="system-ui, -apple-system, sans-serif">3000</text>
<line x1="60" y1="176.44444444444446" x2="1976" y2="176.44444444444446" stroke="#e1e0d9" stroke-width="1" />
<text x="50" y="180.44444444444446" font-size="11" text-anchor="end" fill="#898781" font-family="system-ui, -apple-system, sans-serif">3500</text>
<line x1="60" y1="134.22222222222223" x2="1976" y2="134.22222222222223" stroke="#e1e0d9" stroke-width="1" />
<text x="50" y="138.22222222222223" font-size="11" text-anchor="end" fill="#898781" font-family="system-ui, -apple-system, sans-serif">4000</text>
<line x1="60" y1="92" x2="1976" y2="92" stroke="#e1e0d9" stroke-width="1" />
<text x="50" y="96" font-size="11" text-anchor="end" fill="#898781" font-family="system-ui, -apple-system, sans-serif">4500</text>
<line x1="60" y1="472" x2="1976" y2="472" stroke="#c3c2b7" stroke-width="1.5" />
<path d="M 60 160.05991319444445 Q 264.4876751177543 160.53441840277776 433.2897650545356 159.91936487268518 Q 602.091854991317 159.3043113425926 736.1944255484101 159.93845558449073 Q 870.2969961055032 160.57259982638885 985.6375779184658 160.2472495659722 Q 1100.9781597314284 159.92189930555554 1106.858644791207 159.20168605324073 Q 1112.7391298509858 158.48147280092593 1244.1913088487695 158.52520688657407 Q 1375.6434878465534 158.5689409722222 1675.8217439232767 158.09895073784722 Q 1375.6434878465534 158.5689409722222 1976 157.62896050347223" fill="none" stroke="#2a78d6" stroke-width="2" stroke-dasharray="1,4" stroke-linecap="round" opacity="0.55" />
<path d="M 60 256.4271875 Q 264.4876751177543 257.07519965277777 433.2897650545356 256.93492621527776 Q 602.091854991317 256.79465277777774 736.1944255484101 257.1732921006944 Q 870.2969961055032 257.5519314236111 985.6375779184658 257.1885316840278 Q 1100.9781597314284 256.8251319444445 1106.858644791207 256.899752025463 Q 1112.7391298509858 256.9743721064815 1244.1913088487695 256.77247747189153 Q 1375.6434878465534 256.5705828373016 1675.8217439232767 256.5355822172619 Q 1375.6434878465534 256.5705828373016 1976 256.5005815972222" fill="none" stroke="#7c4dcc" stroke-width="2" stroke-dasharray="1,4" stroke-linecap="round" opacity="0.55" />
<path d="M 60 256.7817881944444 Q 264.4876751177543 256.80355902777774 433.2897650545356 256.9667853009259 Q 602.091854991317 257.13001157407405 736.1944255484101 257.1274688946759 Q 870.2969961055032 257.1249262152778 985.6375779184658 256.93597352430555 Q 1100.9781597314284 256.7470208333333 1106.858644791207 256.8204809027778 Q 1112.7391298509858 256.89394097222225 1244.1913088487695 256.7357961309524 Q 1375.6434878465534 256.57765128968254 1675.8217439232767 256.6735142299107 Q 1375.6434878465534 256.57765128968254 1976 256.7693771701389" fill="none" stroke="#0f9188" stroke-width="2" stroke-dasharray="1,4" stroke-linecap="round" opacity="0.55" />
<path d="M 60 160.05991319444445 Q 264.4876751177543 161.00892361111113 433.2897650545356 158.92651041666667 Q 602.091854991317 156.84409722222222 736.1944255484101 160.61078125 Q 870.2969961055032 164.3774652777778 985.6375779184658 160.84828125 Q 1100.9781597314284 157.31909722222224 1106.858644791207 154.29921875 Q 1112.7391298509858 151.27934027777775 1244.1913088487695 155.18654513888887 Q 1112.7391298509858 151.27934027777775 1375.6434878465534 159.09375" fill="none" stroke="#2a78d6" stroke-width="2" />
<path d="M 1375.6434878465534 159.09375 L 1976 151.0490972222222" fill="none" stroke="#2a78d6" stroke-width="2" stroke-dasharray="5,4" />
<circle cx="1976" cy="151.0490972222222" r="5" fill="#e8890c" stroke="#2a78d6" stroke-width="2" />
<path d="M 60 256.4271875 Q 264.4876751177543 257.72321180555554 433.2897650545356 256.9783854166667 Q 602.091854991317 256.2335590277778 736.1944255484101 258.02866319444445 Q 870.2969961055032 259.8237673611111 985.6375779184658 256.8708506944444 Q 1100.9781597314284 253.91793402777776 1106.858644791207 255.81925347222221 Q 1112.7391298509858 257.7205729166667 1244.1913088487695 255.93421006944448 Q 1112.7391298509858 257.7205729166667 1375.6434878465534 254.14784722222223" fill="none" stroke="#7c4dcc" stroke-width="2" />
<path d="M 1375.6434878465534 254.14784722222223 L 1976 256.01057291666666" fill="none" stroke="#7c4dcc" stroke-width="2" stroke-dasharray="5,4" />
<circle cx="1976" cy="256.01057291666666" r="5" fill="#e8890c" stroke="#7c4dcc" stroke-width="2" />
<path d="M 60 256.7817881944444 Q 264.4876751177543 256.8253298611111 433.2897650545356 257.30412326388887 Q 602.091854991317 257.78291666666667 736.1944255484101 257.44629340277777 Q 870.2969961055032 257.1096701388889 985.6375779184658 256.1725347222222 Q 1100.9781597314284 255.23539930555555 1106.858644791207 256.4319704861111 Q 1112.7391298509858 257.62854166666665 1244.1913088487695 256.1542274305555 Q 1112.7391298509858 257.62854166666665 1375.6434878465534 254.67991319444442" fill="none" stroke="#0f9188" stroke-width="2" />
<path d="M 1375.6434878465534 254.67991319444442 L 1976 258.1114583333333" fill="none" stroke="#0f9188" stroke-width="2" stroke-dasharray="5,4" />
<circle cx="1976" cy="258.1114583333333" r="5" fill="#e8890c" stroke="#0f9188" stroke-width="2" />
  <text x="1976" y="490" font-size="10" text-anchor="middle" fill="#0b0b0b" font-family="system-ui, -apple-system, sans-serif" font-weight="600">this PR</text>
  
</svg>