<svg xmlns="http://www.w3.org/2000/svg" width="2000" height="500" viewBox="0 0 2000 500" font-family="system-ui, -apple-system, sans-serif">
  <rect x="0" y="0" width="2000" height="500" fill="#fcfcfb" />
  <text x="24" y="34" font-size="18" font-weight="600" fill="#0b0b0b">CI workflow duration — per master push</text>
  <rect x="24" y="52" width="14" height="14" rx="2" fill="#2a78d6" />
<text x="44" y="63" font-size="12" fill="#52514e" font-family="system-ui, -apple-system, sans-serif">CI duration (min)</text>
<rect x="192.39999999999998" y="52" width="14" height="14" rx="2" fill="#2a78d6" opacity="0.55" />
<text x="212.39999999999998" y="63" font-size="12" fill="#52514e" font-family="system-ui, -apple-system, sans-serif">CI duration (min) (10-run avg)</text>
  <text x="48" y="82" font-size="14" font-weight="600" fill="#0b0b0b" font-family="system-ui, -apple-system, sans-serif">CI workflow duration per master push (minutes) — dashed segment is this run (so far), not yet merged</text>
<line x1="60" y1="472" x2="1976" y2="472" stroke="#e1e0d9" stroke-width="1" />
<text x="50" y="476" font-size="11" text-anchor="end" fill="#898781" font-family="system-ui, -apple-system, sans-serif">0</text>
<line x1="60" y1="434" x2="1976" y2="434" stroke="#e1e0d9" stroke-width="1" />
<text x="50" y="438" font-size="11" text-anchor="end" fill="#898781" font-family="system-ui, -apple-system, sans-serif">5</text>
<line x1="60" y1="396" x2="1976" y2="396" stroke="#e1e0d9" stroke-width="1" />
<text x="50" y="400" font-size="11" text-anchor="end" fill="#898781" font-family="system-ui, -apple-system, sans-serif">10</text>
<line x1="60" y1="358" x2="1976" y2="358" stroke="#e1e0d9" stroke-width="1" />
<text x="50" y="362" font-size="11" text-anchor="end" fill="#898781" font-family="system-ui, -apple-system, sans-serif">15</text>
<line x1="60" y1="320" x2="1976" y2="320" stroke="#e1e0d9" stroke-width="1" />
<text x="50" y="324" font-size="11" text-anchor="end" fill="#898781" font-family="system-ui, -apple-system, sans-serif">20</text>
<line x1="60" y1="282" x2="1976" y2="282" stroke="#e1e0d9" stroke-width="1" />
<text x="50" y="286" font-size="11" text-anchor="end" fill="#898781" font-family="system-ui, -apple-system, sans-serif">25</text>
<line x1="60" y1="244" x2="1976" y2="244" stroke="#e1e0d9" stroke-width="1" />
<text x="50" y="248" font-size="11" text-anchor="end" fill="#898781" font-family="system-ui, -apple-system, sans-serif">30</text>
<line x1="60" y1="206" x2="1976" y2="206" stroke="#e1e0d9" stroke-width="1" />
<text x="50" y="210" font-size="11" text-anchor="end" fill="#898781" font-family="system-ui, -apple-system, sans-serif">35</text>
<line x1="60" y1="168" x2="1976" y2="168" stroke="#e1e0d9" stroke-width="1" />
<text x="50" y="172" font-size="11" text-anchor="end" fill="#898781" font-family="system-ui, -apple-system, sans-serif">40</text>
<line x1="60" y1="130" x2="1976" y2="130" stroke="#e1e0d9" stroke-width="1" />
<text x="50" y="134" font-size="11" text-anchor="end" fill="#898781" font-family="system-ui, -apple-system, sans-serif">45</text>
<line x1="60" y1="92" x2="1976" y2="92" stroke="#e1e0d9" stroke-width="1" />
<text x="50" y="96" font-size="11" text-anchor="end" fill="#898781" font-family="system-ui, -apple-system, sans-serif">50</text>
<line x1="60" y1="472" x2="1976" y2="472" stroke="#c3c2b7" stroke-width="1.5" />
<path d="M 60 464.9066666666667 Q 60.047586288763036 464.4633333333333 60.16401181732028 464.62166666666667 Q 60.28043734587752 464.78 60.321249785706314 464.7008333333333 Q 60.36206222553511 464.62166666666667 60.372392345159824 464.49816666666663 Q 60.38272246478454 464.37466666666666 60.41921657591776 464.4506666666666 Q 60.45571068705098 464.52666666666664 60.46519407555891 464.47238095238095 Q 60.47467746406685 464.41809523809525 64.10817003239305 464.4882142857143 Q 67.74166260071924 464.55833333333334 69.95662652910394 464.5002777777778 Q 72.17159045748866 464.4422222222222 72.47065588793535 464.4527777777778 Q 72.76972131838203 464.4633333333333 72.93314042392056 464.457 Q 73.0965595294591 464.4506666666667 73.1123087282312 464.3556666666667 Q 73.12805792700331 464.2606666666667 73.32839450923345 464.02633333333335 Q 73.52873109146358 463.792 73.60578362309056 463.64 Q 73.68283615471755 463.488 74.34743540827813 463.28533333333337 Q 75.01203466183873 463.0826666666667 75.33091360041806 462.79133333333334 Q 75.6497925389974 462.5 79.12934939029299 462.41133333333335 Q 82.60890624158858 462.3226666666667 82.64946466208235 462.03133333333335 Q 82.69002308257612 461.74 82.90949578804549 452.544 Q 83.12896849351485 443.348 83.69221403239689 443.481 Q 84.25545957127892 443.614 84.62988407111902 443.7216666666667 Q 85.00430857095913 443.82933333333335 85.04918532014847 443.62033333333335 Q 85.0940620693378 443.41133333333335 85.71488532416086 443.3353333333333 Q 86.33570857898394 443.25933333333336 86.42732488581953 443.196 Q 86.51894119265512 443.1326666666667 86.61936350310523 442.86033333333336 Q 86.71978581355533 442.588 87.01063795216925 442.721 Q 87.30149009078318 442.854 87.6696487803591 442.474 Q 88.03780746993502 442.094 89.20595771864467 441.733 Q 90.3741079673543 441.372 93.07678901900428 449.92833333333334 Q 95.77947007065426 458.48466666666667 95.93001886321773 457.69933333333336 Q 96.08056765578121 456.914 96.08581738870524 456.03999999999996 Q 96.09106712162928 455.166 96.25431688094446 454.88733333333334 Q 96.41756664025965 454.6086666666667 100.34343546320996 454.26666666666665 Q 104.26930428616026 453.92466666666667 116.83818098364208 452.2273333333334 Q 129.4070576811239 450.53000000000003 130.7197449314679 449.0226666666667 Q 132.03243218181188 447.51533333333333 132.08459081860553 445.60266666666666 Q 132.13674945539918 443.69 132.14741826747058 442.075 Q 132.158087079542 440.46 132.21473339125458 439.2693333333333 Q 132.27137970296718 438.07866666666666 132.31642579837987 436.831 Q 132.36147189379255 435.5833333333333 132.61430580526306 433.221 Q 132.86713971673356 430.85866666666664 132.93039053115703 428.6293333333333 Q 132.9936413455805 426.4 133.02767993647504 427.236 Q 133.06171852736958 428.072 133.07331874366946 425.5323333333333 Q 133.08491895996937 422.99266666666665 133.13775498165643 424.98766666666666 Q 133.1905910033435 426.98266666666666 133.22598436402492 425.602 Q 133.26137772470634 424.22133333333335 133.4645931927335 425.1586666666667 Q 133.6678086607607 426.096 133.94570581328787 427.084 Q 134.22360296581508 428.072 136.41062476734604 429.4273333333333 Q 138.597646568877 430.78266666666667 139.1364215784841 431.625 Q 139.67519658809118 432.46733333333333 140.49254613511889 435.159 Q 141.3098956821466 437.85066666666665 141.34867596729512 439.7 Q 141.38745625244366 441.5493333333333 142.16704159166295 440.0673333333333 Q 142.94662693088227 438.5853333333333 143.20581132572863 440.5486666666667 Q 143.46499572057496 442.512 153.01442925561943 442.33466666666664 Q 162.5638627906639 442.1573333333333 167.55627412831026 444.9376666666667 Q 172.54868546595662 447.718 172.87789452416067 447.433 Q 173.2071035823647 447.148 233.65108902681428 444.4753333333333 Q 294.09507447126384 441.80266666666665 321.67759461970627 441.733 Q 349.26011476814875 441.66333333333336 353.86590867787334 441.25166666666667 Q 358.471702587598 440.84 375.49777188380955 440.7006666666666 Q 392.5238411800211 440.5613333333333 430.2588367648787 440.07366666666667 Q 467.9938323497363 439.586 468.01720212855946 439.1426666666667 Q 468.04057190738257 438.69933333333336 472.51563053267637 438.20533333333333 Q 476.99068915797017 437.71133333333336 477.2401361449736 436.06466666666665 Q 477.48958313197693 434.418 479.59531874629704 433.4426666666667 Q 481.7010543606171 432.46733333333333 490.53711692977447 433.49966666666666 Q 499.3731794989318 434.532 513.1449224209111 436.52066666666667 Q 526.9166653428906 438.5093333333333 526.9190361900177 437.1286666666666 Q 526.9214070371447 435.748 527.5327469034598 435.3806666666667 Q 528.144086769775 435.0133333333333 535.3987096321223 435.30466666666666 Q 542.6533324944696 435.596 549.2267601733676 435.10833333333335 Q 555.8001878522655 434.6206666666667 555.8391374836374 434.33566666666667 Q 555.8780871150093 434.05066666666664 555.9133958025791 433.7213333333333 Q 555.9487044901488 433.392 555.9556476853063 433.0373333333333 Q 555.962590880464 432.68266666666665 556.2132232910308 434.1583333333333 Q 556.4638557015977 435.634 556.5073776810002 434.13933333333335 Q 556.5508996604026 432.6446666666667 556.8747743125709 432.442 Q 557.1986489647393 432.2393333333333 557.2343810178675 432.936 Q 557.2701130709956 433.63266666666664 557.5409823552535 433.4046666666667 Q 557.8118516395114 433.1766666666667 558.0999942385516 431.15633333333335 Q 558.3881368375919 429.136 561.1904781416869 429.14233333333334 Q 563.9928194457818 429.14866666666666 564.1572546286604 426.02633333333335 Q 564.321689811539 422.904 565.7249772913785 422.486 Q 567.128264771218 422.068 567.6817729022571 421.81466666666665 Q 568.2352810332961 421.5613333333333 570.5223864528305 419.332 Q 572.8094918723648 417.10266666666666 582.8742459650816 416.425 Q 592.9390000577984 415.74733333333336 592.9924287912672 414.1196666666667 Q 593.045857524736 412.492 596.4363382625463 410.8896666666667 Q 599.8268190003566 409.2873333333333 599.8281737701435 408.72366666666665 Q 599.8295285399304 408.16 599.8307986366056 407.66600000000005 Q 599.8320687332806 407.172 599.8335081761792 406.76666666666665 Q 599.8349476190778 406.36133333333333 625.7635478771139 408.93899999999996 Q 651.69214813515 411.51666666666665 655.8549323245754 413.28999999999996 Q 660.0177165140008 415.06333333333333 660.0556500680325 411.466 Q 660.0935836220642 407.8686666666666 670.395761119926 408.4513333333333 Q 680.6979386177878 409.034 683.8251706513913 409.36333333333334 Q 686.9524026849948 409.69266666666664 687.780929082764 410.6426666666666 Q 688.6094554805331 411.5926666666667 695.4798317620857 411.6433333333333 Q 702.3502080436384 411.694 705.3006426200582 411.43433333333337 Q 708.251077196478 411.17466666666667 708.3375284435012 411.6053333333333 Q 708.4239796905246 412.036 711.4409673327232 411.485 Q 714.4579549749219 410.934 796.6981541350747 410.915 Q 878.9383532952274 410.896 878.9861089302138 408.66666666666663 Q 879.0338645652002 406.4373333333333 879.0380982207841 409.48366666666664 Q 879.0423318763679 412.53 930.8224798608132 407.305 Q 982.6026278452586 402.08000000000004 1007.9597692725799 397.45033333333333 Q 1033.3169106999012 392.8206666666667 1033.3183501427998 389.0776666666667 Q 1033.3197895856983 385.3346666666667 1033.3208056630383 381.54100000000005 Q 1033.3218217403785 377.74733333333336 1033.3230071639418 374.492 Q 1033.3241925875054 371.2366666666667 1033.3257167035156 366.81600000000003 Q 1033.3272408195257 362.3953333333333 1034.1685528571584 358.90566666666666 Q 1035.009864894791 355.416 1035.0124050881413 351.59066666666666 Q 1035.0149452814917 347.76533333333333 1035.016977436172 344.149 Q 1035.0190095908524 340.5326666666666 1045.0448140521971 336.65666666666664 Q 1055.0706185135418 332.78066666666666 1055.072989360669 333.00233333333335 Q 1055.075360207796 333.22400000000005 1055.313037632276 333.3063333333333 Q 1055.5507150567564 333.38866666666667 1061.6663152208114 333.452 Q 1067.7819153848664 333.5153333333334 1067.7840322126583 333.338 Q 1067.7861490404503 333.16066666666666 1067.7883505413538 332.98333333333335 Q 1067.7905520422573 332.80600000000004 1068.714674383111 333.64833333333337 Q 1069.6387967239648 334.4906666666667 1069.6527677873917 335.105 Q 1069.6667388508185 335.71933333333334 1082.829174061163 334.18666666666667 Q 1095.9916092715075 332.654 1097.2359653207272 331.229 Q 1098.4803213699472 329.804 1105.4639056018134 329.38599999999997 Q 1112.4474898336796 328.968 1141.1090841173464 328.21433333333334 Q 1169.7706784010134 327.46066666666667 1170.137058955244 326.03566666666666 Q 1170.5034395094747 324.6106666666667 1170.508350549952 323.2236666666667 Q 1170.5132615904292 321.8366666666667 1170.5189346889117 320.4116666666667 Q 1170.5246077873942 318.9866666666667 1170.5446753148617 317.53000000000003 Q 1170.5647428423295 316.0733333333334 1170.5681297667966 314.7876666666667 Q 1170.5715166912637 313.502 1174.5940822077505 312.2923333333333 Q 1178.616647724237 311.0826666666667 1178.622659515166 311.60833333333335 Q 1178.628671306095 312.134 1178.9892094156198 312.761 Q 1179.349747525145 313.38800000000003 1179.5152834584756 312.704 Q 1179.680819391806 312.02 1179.7989383825966 311.887 Q 1179.9170573733875 311.754 1189.6205112985742 312.22266666666667 Q 1199.323965223761 312.6913333333333 1199.7629106347 312.94466666666665 Q 1200.2018560456386 313.198 1220.7630277544065 313.60966666666667 Q 1241.3241994631744 314.02133333333336 1241.7191995291523 313.92633333333333 Q 1242.11419959513 313.8313333333333 1242.3384139948535 313.274 Q 1242.5626283945767 312.7166666666667 1258.7185121220734 312.3176666666667 Q 1274.8743958495702 311.9186666666667 1286.242353804123 311.4816666666667 Q 1297.6103117586758 311.04466666666667 1297.6236901103211 310.64566666666667 Q 1297.6370684619662 310.24666666666667 1297.958402920784 310.58233333333334 Q 1298.279737379602 310.918 1298.3748252840164 311.34866666666665 Q 1298.4699131884308 311.77933333333334 1304.7706934477255 312.68500000000006 Q 1311.0714737070205 313.5906666666667 1311.3517417066746 312.67233333333337 Q 1311.6320097063287 311.754 1320.531746455468 310.94966666666664 Q 1329.4314832046073 310.1453333333333 1334.2730070572434 307.3713333333334 Q 1339.1145309098795 304.5973333333334 1357.169039820532 304.8506666666667 Q 1375.2235487311846 305.10400000000004 1375.5409035537537 304.7683333333334 Q 1375.8582583763227 304.4326666666667 1375.8838296560496 304.3693333333333 Q 1375.9094009357764 304.306 1376.5288694208125 302.86833333333334 Q 1377.1483379058488 301.43066666666664 1398.2261002689643 301.46866666666665 Q 1419.3038626320795 301.50666666666666 1419.3144467710392 301.03166666666664 Q 1419.325030909999 300.5566666666667 1419.8536451462046 298.8656666666667 Q 1420.3822593824104 297.17466666666667 1420.3897952893499 297.086 Q 1420.397331196289 296.9973333333333 1423.0539500751863 296.687 Q 1425.7105689540836 296.37666666666667 1425.7122624163171 299.233 Q 1425.7139558785505 302.08933333333334 1429.9552320425014 302.33633333333336 Q 1434.1965082064523 302.58333333333337 1434.7628866504665 302.30466666666666 Q 1435.3292650944804 302.026 1435.4684676900793 301.78533333333337 Q 1435.6076702856778 301.54466666666667 1449.481782999676 302.26666666666665 Q 1463.3558957136738 302.9886666666667 1463.905170189129 301.9753333333333 Q 1464.4544446645843 300.962 1464.5356461786837 300.6263333333334 Q 1464.6168476927828 300.2906666666667 1464.62175873326 300.506 Q 1464.6266697737374 300.7213333333333 1470.1848668436162 298.4033333333333 Q 1475.743063913495 296.0853333333333 1476.796905461439 295.775 Q 1477.8507470093834 295.46466666666663 1477.9849538913932 295.0276666666666 Q 1478.1191607734029 294.59066666666666 1478.5302487305994 293.2543333333333 Q 1478.9413366877961 291.918 1479.250901584091 291.88633333333337 Q 1479.5604664803857 291.8546666666667 1485.6148479846975 291.78499999999997 Q 1491.6692294890092 291.7153333333333 1492.5497451773485 291.60133333333334 Q 1493.430260865688 291.48733333333337 1493.820265218077 291.98133333333334 Q 1494.210269570466 292.4753333333333 1494.212132378923 292.5196666666667 Q 1494.2139951873796 292.564 1494.2151806109432 293.058 Q 1494.2163660345068 293.552 1494.219498939639 296.76933333333335 Q 1494.2226318447708 299.9866666666667 1494.2242406338928 301.89300000000003 Q 1494.2258494230146 303.7993333333333 1499.9314623803248 304.477 Q 1505.6370753376348 305.1546666666667 1506.4822823384047 305.46500000000003 Q 1507.3274893391745 305.7753333333334 1514.0772911096976 305.6676666666667 Q 1520.8270928802208 305.56000000000006 1521.3321679913802 305.6676666666667 Q 1521.8372431025393 305.7753333333334 1525.0089285197737 305.4016666666667 Q 1528.180613937008 305.028 1528.2278615333244 304.5276666666667 Q 1528.2751091296407 304.02733333333333 1530.8744889850436 303.65999999999997 Q 1533.4738688404464 303.29266666666666 1533.9631947528335 303.1153333333333 Q 1534.4525206652206 302.938 1534.4595485334899 302.49466666666666 Q 1534.4665764017593 302.05133333333333 1534.4743663280337 300.9936666666667 Q 1534.482156254308 299.93600000000004 1554.3170866842138 298.8403333333333 Q 1574.1520171141194 297.74466666666666 1574.1970632095322 296.953 Q 1574.242109304945 296.16133333333335 1574.245750248747 296.63 Q 1574.2493911925492 297.09866666666665 1588.8009734730829 297.2823333333333 Q 1603.3525557536166 297.466 1603.3666114901553 299.005 Q 1603.380667226694 300.544 1604.85897508348 301.1963333333333 Q 1606.337282940266 301.84866666666665 1607.1560719301924 301.513 Q 1607.9748609201185 301.1773333333333 1612.001660092189 300.45533333333333 Q 1616.0284592642595 299.73333333333335 1619.403952861303 298.92266666666666 Q 1622.7794464583462 298.11199999999997 1623.2074690378786 297.3773333333333 Q 1623.635491617411 296.6426666666666 1623.8354048340825 295.2113333333333 Q 1624.035318050754 293.78 1624.160803602261 293.6406666666667 Q 1624.286289153768 293.5013333333334 1631.2986622436044 291.84200000000004 Q 1638.311035333441 290.1826666666667 1638.4134897985714 288.68800000000005 Q 1638.5159442637018 287.1933333333334 1639.2636078398186 286.6106666666667 Q 1640.0112714159352 286.028 1645.3794620232086 285.0273333333334 Q 1650.747652630482 284.02666666666676 1652.2829454914274 283.64666666666676 Q 1653.8182383523729 283.2666666666667 1661.467861280698 283.7923333333334 Q 1669.1174842090231 284.31800000000004 1672.0333721558784 284.0773333333334 Q 1674.9492601027337 283.8366666666667 1677.9726829014198 283.8176666666667 Q 1680.996105700106 283.7986666666667 1681.8369096990687 284.4636666666667 Q 1682.677713698031 285.12866666666673 1682.6820320267266 285.2616666666667 Q 1682.686350355422 285.3946666666667 1682.9732228577873 285.3186666666667 Q 1683.2600953601523 285.24266666666665 1687.5874840786796 285.60366666666664 Q 1691.914872797207 285.96466666666663 1693.6870810246276 284.907 Q 1695.4592892520482 283.84933333333333 1696.712281958659 283.62766666666664 Q 1697.96527466527 283.406 1702.3446526743678 283.11466666666666 Q 1706.7240306834653 282.8233333333333 1707.4948946921818 281.145 Q 1708.2657587008982 279.4666666666667 1708.7726119474028 279.492 Q 1709.2794651939073 279.51733333333334 1709.9555799906561 279.59333333333336 Q 1710.631694787405 279.6693333333333 1710.9044268801197 278.5293333333333 Q 1711.1771589728344 277.3893333333333 1711.2139071033027 275.41966666666667 Q 1711.250655233771 273.45000000000005 1711.477579173068 272.3796666666667 Q 1711.704503112365 271.30933333333337 1711.751581362458 267.56 Q 1711.7986596125509 263.81066666666663 1712.5906072260752 262.392 Q 1713.3825548395996 260.97333333333336 1715.7980246964378 259.37733333333335 Q 1718.213494553276 257.78133333333335 1718.3354238340924 256.83133333333336 Q 1718.4573531149088 255.88133333333334 1718.4675985614217 255.47600000000003 Q 1718.4778440079347 255.0706666666667 1718.4934238604835 249.07933333333335 Q 1718.5090037130324 243.08800000000002 1722.4010879644231 242.366 Q 1726.293172215814 241.644 1729.7317472810573 241.50466666666668 Q 1733.1703223463007 241.36533333333335 1736.0802831753385 242.44200000000006 Q 1738.990244004376 243.51866666666675 1740.9776066085703 242.36600000000004 Q 1742.9649692127646 241.21333333333337 1749.08514172485 243.20200000000006 Q 1755.2053142369357 245.19066666666671 1755.3035350464822 245.55800000000002 Q 1755.4017558560288 245.92533333333333 1755.4098844747498 246.43833333333336 Q 1755.4180130934708 246.9513333333334 1755.4202145943746 246.26733333333337 Q 1755.422416095278 245.58333333333334 1763.0143766345507 246.12800000000004 Q 1770.6063371738232 246.67266666666671 1773.8141780097442 250.935 Q 1777.0220188456651 255.19733333333332 1777.1047444757746 253.97499999999997 Q 1777.187470105884 252.75266666666664 1779.8804984228027 252.84133333333332 Q 1782.5735267397213 252.93 1794.745879255215 252.79066666666665 Q 1806.9182317707086 252.65133333333333 1807.135926340833 254.30433333333332 Q 1807.3536209109573 255.95733333333334 1807.3832565000444 263.0633333333334 Q 1807.4128920891317 270.1693333333334 1807.434145040163 265.56500000000005 Q 1807.455397991194 260.96066666666667 1807.7769017962355 265.7676666666666 Q 1808.0984056012767 270.57466666666664 1860.1660187998687 276.661 Q 1912.2336319984609 282.74733333333336 1914.7935541838217 286.24333333333334 Q 1917.3534763691825 289.7393333333333 1917.7151152291594 292.95666666666665 Q 1918.076754089136 296.174 1931.7495141435638 300.0563333333333 Q 1945.4222741979918 303.9386666666667 1945.5212570655433 307.954 Q 1945.6202399330948 311.96933333333334 1945.7657083389577 315.6743333333334 Q 1945.9111767448205 319.37933333333336 1953.1690171854116 323.249 Q 1960.4268576260029 327.1186666666667 1960.4968822893607 324.5916666666667 Q 1960.5669069527182 322.06466666666665 1960.7938308920152 329.2213333333333 Q 1961.0207548313122 336.378 1961.033201778729 334.231 Q 1961.0456487261458 332.08399999999995 1967.9265244735466 329.54433333333327 Q 1974.807400220947 327.00466666666665 1975.4037001104734 326.2066666666667 Q 1974.807400220947 327.00466666666665 1976 325.4086666666667" fill="none" stroke="#2a78d6" stroke-width="2" stroke-dasharray="1,4" stroke-linecap="round" opacity="0.55" />
<path d="M 60 464.9066666666667 Q 60.047586288763036 464.02 60.16401181732028 464.7166666666667 Q 60.28043734587752 465.41333333333336 60.321249785706314 464.78 Q 60.36206222553511 464.14666666666665 60.372392345159824 463.76666666666665 Q 60.38272246478454 463.38666666666666 60.41921657591776 464.3366666666667 Q 60.45571068705098 465.2866666666667 60.46519407555891 464.52666666666664 Q 60.47467746406685 463.76666666666665 64.10817003239305 464.6533333333333 Q 67.74166260071924 465.54 69.95662652910394 464.52666666666664 Q 72.17159045748866 463.5133333333333 72.47065588793535 464.0833333333333 Q 72.76972131838203 464.6533333333333 72.93314042392056 464.71666666666664 Q 73.0965595294591 464.78 73.1123087282312 463.45 Q 73.12805792700331 462.12 73.32839450923345 461.42333333333335 Q 73.52873109146358 460.7266666666667 73.60578362309056 460.9166666666667 Q 73.68283615471755 461.1066666666667 74.34743540827813 460.22 Q 75.01203466183873 459.3333333333333 75.33091360041806 459.39666666666665 Q 75.6497925389974 459.46 79.12934939029299 460.7266666666667 Q 82.60890624158858 461.99333333333334 82.64946466208235 460.85333333333335 Q 82.69002308257612 459.7133333333333 82.90949578804549 369.6533333333333 Q 83.12896849351485 279.59333333333336 83.69221403239689 373.4533333333334 Q 84.25545957127892 467.31333333333333 84.62988407111902 467.12333333333333 Q 85.00430857095913 466.93333333333334 85.04918532014847 462.43666666666667 Q 85.0940620693378 457.94 85.71488532416086 458.5733333333333 Q 86.33570857898394 459.20666666666665 86.42732488581953 459.5233333333333 Q 86.51894119265512 459.84 86.61936350310523 456.86333333333334 Q 86.71978581355533 453.88666666666666 87.01063795216925 458.00333333333333 Q 87.30149009078318 462.12 87.6696487803591 458.25666666666666 Q 88.03780746993502 454.3933333333333 89.20595771864467 453.4433333333333 Q 90.3741079673543 452.49333333333334 93.07678901900428 451.6066666666667 Q 95.77947007065426 450.72 95.93001886321773 451.16333333333336 Q 96.08056765578121 451.6066666666667 96.08581738870524 450.53 Q 96.09106712162928 449.4533333333333 96.25431688094446 450.90999999999997 Q 96.41756664025965 452.3666666666667 100.34343546320996 452.3666666666667 Q 104.26930428616026 452.3666666666667 116.83818098364208 439.13 Q 129.4070576811239 425.8933333333333 130.7197449314679 424.81666666666666 Q 132.03243218181188 423.74 132.08459081860553 423.80333333333334 Q 132.13674945539918 423.8666666666667 132.14741826747058 422.98 Q 132.158087079542 422.09333333333336 132.21473339125458 425.38666666666666 Q 132.27137970296718 428.68 132.31642579837987 427.22333333333336 Q 132.36147189379255 425.76666666666665 132.61430580526306 415.06333333333333 Q 132.86713971673356 404.36 132.93039053115703 404.61333333333334 Q 132.9936413455805 404.8666666666667 133.02767993647504 436.9766666666667 Q 133.06171852736958 469.08666666666664 133.07331874366946 435.33 Q 133.08491895996937 401.5733333333333 133.13775498165643 433.68333333333334 Q 133.1905910033435 465.79333333333335 133.22598436402492 430.96000000000004 Q 133.26137772470634 396.12666666666667 133.4645931927335 419.37 Q 133.6678086607607 442.61333333333334 133.94570581328787 442.23333333333335 Q 134.22360296581508 441.85333333333335 136.41062476734604 448.82000000000005 Q 138.597646568877 455.7866666666667 139.1364215784841 449.20000000000005 Q 139.67519658809118 442.61333333333334 140.49254613511889 450.4033333333333 Q 141.3098956821466 458.1933333333333 141.34867596729512 450.0233333333333 Q 141.38745625244366 441.85333333333335 142.16704159166295 440.65 Q 142.94662693088227 439.44666666666666 143.20581132572863 440.1433333333333 Q 143.46499572057496 440.84000000000003 153.01442925561943 451.54333333333335 Q 162.5638627906639 462.24666666666667 167.55627412831026 456.99 Q 172.54868546595662 451.73333333333335 172.87789452416067 444.3233333333334 Q 173.2071035823647 436.91333333333336 233.65108902681428 412.65666666666664 Q 294.09507447126384 388.4 321.67759461970627 421.39666666666665 Q 349.26011476814875 454.3933333333333 353.86590867787334 444.38666666666666 Q 358.471702587598 434.38 375.49777188380955 444.8933333333333 Q 392.5238411800211 455.4066666666667 430.2588367648787 443.75333333333333 Q 467.9938323497363 432.1 468.01720212855946 431.34000000000003 Q 468.04057190738257 430.58 472.51563053267637 430.77 Q 476.99068915797017 430.96 477.2401361449736 430.13666666666666 Q 477.48958313197693 429.31333333333333 479.59531874629704 430.77 Q 481.7010543606171 432.2266666666667 490.53711692977447 444.8933333333333 Q 499.3731794989318 457.56 513.1449224209111 442.8666666666667 Q 526.9166653428906 428.17333333333335 526.9190361900177 427.4766666666667 Q 526.9214070371447 426.78 527.5327469034598 426.90666666666664 Q 528.144086769775 427.0333333333333 535.3987096321223 444.1333333333333 Q 542.6533324944696 461.23333333333335 549.2267601733676 441.79 Q 555.8001878522655 422.3466666666667 555.8391374836374 423.61333333333334 Q 555.8780871150093 424.88 555.9133958025791 424.62666666666667 Q 555.9487044901488 424.37333333333333 555.9556476853063 423.2966666666667 Q 555.962590880464 422.22 556.2132232910308 441.98 Q 556.4638557015977 461.74 556.5073776810002 444.7033333333334 Q 556.5508996604026 427.6666666666667 556.8747743125709 425.8933333333333 Q 557.1986489647393 424.12 557.2343810178675 432.4166666666667 Q 557.2701130709956 440.71333333333337 557.5409823552535 431.59333333333336 Q 557.8118516395114 422.47333333333336 558.0999942385516 421.65 Q 558.3881368375919 420.82666666666665 561.1904781416869 421.65 Q 563.9928194457818 422.47333333333336 564.1572546286604 392.4533333333334 Q 564.321689811539 362.43333333333334 565.7249772913785 389.22333333333336 Q 567.128264771218 416.0133333333333 567.6817729022571 416.5833333333333 Q 568.2352810332961 417.1533333333333 570.5223864528305 417.1533333333333 Q 572.8094918723648 417.1533333333333 582.8742459650816 415.6333333333333 Q 592.9390000577984 414.11333333333334 592.9924287912672 402.84000000000003 Q 593.045857524736 391.56666666666666 596.4363382625463 400.1166666666667 Q 599.8268190003566 408.6666666666667 599.8281737701435 409.93333333333334 Q 599.8295285399304 411.2 599.8307986366056 411.0733333333333 Q 599.8320687332806 410.94666666666666 599.8335081761792 412.65666666666664 Q 599.8349476190778 414.3666666666667 625.7635478771139 414.1766666666667 Q 651.69214813515 413.9866666666667 655.8549323245754 432.73333333333335 Q 660.0177165140008 451.48 660.0556500680325 398.34333333333336 Q 660.0935836220642 345.2066666666667 670.395761119926 387.00666666666666 Q 680.6979386177878 428.8066666666667 683.8251706513913 424.75333333333333 Q 686.9524026849948 420.7 687.780929082764 415.6333333333333 Q 688.6094554805331 410.56666666666666 695.4798317620857 410.12333333333333 Q 702.3502080436384 409.68 705.3006426200582 407.84333333333336 Q 708.251077196478 406.00666666666666 708.3375284435012 412.7833333333333 Q 708.4239796905246 419.56 711.4409673327232 411.4533333333334 Q 714.4579549749219 403.3466666666667 796.6981541350747 408.4766666666667 Q 878.9383532952274 413.6066666666667 878.9861089302138 410.25 Q 879.0338645652002 406.8933333333333 879.0380982207841 406.5133333333333 Q 879.0423318763679 406.1333333333333 930.8224798608132 365.22 Q 982.6026278452586 324.3066666666667 1007.9597692725799 326.2066666666667 Q 1033.3169106999012 328.1066666666667 1033.3183501427998 331.9066666666667 Q 1033.3197895856983 335.7066666666667 1033.3208056630383 334.75666666666666 Q 1033.3218217403785 333.8066666666667 1033.3230071639418 337.35333333333335 Q 1033.3241925875054 340.9 1033.3257167035156 336.0233333333333 Q 1033.3272408195257 331.14666666666665 1034.1685528571584 332.35 Q 1035.009864894791 333.55333333333334 1035.0124050881413 335.3266666666667 Q 1035.0149452814917 337.1 1035.016977436172 335.83333333333337 Q 1035.0190095908524 334.5666666666667 1045.0448140521971 331.59000000000003 Q 1055.0706185135418 328.61333333333334 1055.072989360669 328.6766666666667 Q 1055.075360207796 328.74 1055.313037632276 329.24666666666667 Q 1055.5507150567564 329.75333333333333 1061.6663152208114 333.36333333333334 Q 1067.7819153848664 336.97333333333336 1067.7840322126583 333.6166666666667 Q 1067.7861490404503 330.26 1067.7883505413538 333.8066666666667 Q 1067.7905520422573 337.35333333333335 1068.714674383111 342.67333333333335 Q 1069.6387967239648 347.99333333333334 1069.6527677873917 346.91666666666663 Q 1069.6667388508185 345.84 1082.829174061163 326.1433333333333 Q 1095.9916092715075 306.44666666666666 1097.2359653207272 306.25666666666666 Q 1098.4803213699472 306.0666666666667 1105.4639056018134 313.16 Q 1112.4474898336796 320.25333333333333 1141.1090841173464 316.96000000000004 Q 1169.7706784010134 313.6666666666667 1170.137058955244 307.46000000000004 Q 1170.5034395094747 301.25333333333333 1170.508350549952 305.24333333333334 Q 1170.5132615904292 309.23333333333335 1170.5189346889117 305.49666666666667 Q 1170.5246077873942 301.76 1170.5446753148617 304.99 Q 1170.5647428423295 308.22 1170.5681297667966 315.25 Q 1170.5715166912637 322.28 1174.5940822077505 321.9633333333333 Q 1178.616647724237 321.64666666666665 1178.622659515166 319.30333333333334 Q 1178.628671306095 316.96000000000004 1178.9892094156198 317.78333333333336 Q 1179.349747525145 318.6066666666667 1179.5152834584756 312.59000000000003 Q 1179.680819391806 306.5733333333334 1179.7989383825966 308.79 Q 1179.9170573733875 311.00666666666666 1189.6205112985742 310.81666666666666 Q 1199.323965223761 310.62666666666667 1199.7629106347 312.46333333333337 Q 1200.2018560456386 314.3 1220.7630277544065 312.14666666666665 Q 1241.3241994631744 309.99333333333334 1241.7191995291523 308.15666666666664 Q 1242.11419959513 306.32 1242.3384139948535 308.7266666666667 Q 1242.5626283945767 311.1333333333333 1258.7185121220734 312.4 Q 1274.8743958495702 313.6666666666667 1286.242353804123 310.9433333333334 Q 1297.6103117586758 308.22 1297.6236901103211 309.42333333333335 Q 1297.6370684619662 310.62666666666667 1297.958402920784 311.9566666666667 Q 1298.279737379602 313.2866666666667 1298.3748252840164 316.4533333333334 Q 1298.4699131884308 319.62 1304.7706934477255 324.18 Q 1311.0714737070205 328.74 1311.3517417066746 312.3366666666667 Q 1311.6320097063287 295.93333333333334 1320.531746455468 294.91999999999996 Q 1329.4314832046073 293.90666666666664 1334.2730070572434 272.37333333333333 Q 1339.1145309098795 250.84 1357.169039820532 283.52000000000004 Q 1375.2235487311846 316.20000000000005 1375.5409035537537 311.5766666666667 Q 1375.8582583763227 306.9533333333334 1375.8838296560496 306.9533333333334 Q 1375.9094009357764 306.9533333333334 1376.5288694208125 294.41333333333336 Q 1377.1483379058488 281.87333333333333 1398.2261002689643 297.96 Q 1419.3038626320795 314.0466666666666 1419.3144467710392 312.0833333333333 Q 1419.325030909999 310.12 1419.8536451462046 302.52 Q 1420.3822593824104 294.92 1420.3897952893499 294.54 Q 1420.397331196289 294.16 1423.0539500751863 290.93000000000006 Q 1425.7105689540836 287.70000000000005 1425.7122624163171 297.83333333333337 Q 1425.7139558785505 307.9666666666667 1429.9552320425014 314.55333333333334 Q 1434.1965082064523 321.14 1434.7628866504665 311.26 Q 1435.3292650944804 301.38 1435.4684676900793 301.76 Q 1435.6076702856778 302.14 1449.481782999676 299.2266666666667 Q 1463.3558957136738 296.31333333333333 1463.905170189129 295.0466666666666 Q 1464.4544446645843 293.78 1464.5356461786837 298.5933333333333 Q 1464.6168476927828 303.40666666666664 1464.62175873326 301.31666666666666 Q 1464.6266697737374 299.2266666666667 1470.1848668436162 273.5133333333333 Q 1475.743063913495 247.8 1476.796905461439 264.64666666666665 Q 1477.8507470093834 281.49333333333334 1477.9849538913932 290.36 Q 1478.1191607734029 299.2266666666667 1478.5302487305994 296.82 Q 1478.9413366877961 294.4133333333333 1479.250901584091 297.58 Q 1479.5604664803857 300.74666666666667 1485.6148479846975 300.74666666666667 Q 1491.6692294890092 300.74666666666667 1492.5497451773485 297.39 Q 1493.430260865688 294.0333333333333 1493.820265218077 298.8466666666667 Q 1494.210269570466 303.66 1494.212132378923 303.9766666666667 Q 1494.2139951873796 304.29333333333335 1494.2151806109432 306.70000000000005 Q 1494.2163660345068 309.1066666666667 1494.219498939639 310.62666666666667 Q 1494.2226318447708 312.14666666666665 1494.2242406338928 315.8833333333333 Q 1494.2258494230146 319.62 1499.9314623803248 316.2 Q 1505.6370753376348 312.78 1506.4822823384047 306.7 Q 1507.3274893391745 300.62 1514.0772911096976 299.6066666666667 Q 1520.8270928802208 298.59333333333336 1521.3321679913802 300.74666666666667 Q 1521.8372431025393 302.9 1525.0089285197737 294.73 Q 1528.180613937008 286.56000000000006 1528.2278615333244 290.1066666666667 Q 1528.2751091296407 293.65333333333336 1530.8744889850436 295.3 Q 1533.4738688404464 296.94666666666666 1533.9631947528335 301.25333333333333 Q 1534.4525206652206 305.56000000000006 1534.4595485334899 304.42 Q 1534.4665764017593 303.28 1534.4743663280337 300.87333333333333 Q 1534.482156254308 298.4666666666667 1554.3170866842138 294.6666666666667 Q 1574.1520171141194 290.8666666666667 1574.1970632095322 287.8266666666667 Q 1574.242109304945 284.7866666666667 1574.245750248747 296.37666666666667 Q 1574.2493911925492 307.9666666666667 1588.8009734730829 307.27000000000004 Q 1603.3525557536166 306.5733333333334 1603.3666114901553 311.9566666666667 Q 1603.380667226694 317.34000000000003 1604.85897508348 312.02000000000004 Q 1606.337282940266 306.70000000000005 1607.1560719301924 298.4666666666667 Q 1607.9748609201185 290.23333333333335 1612.001660092189 290.6766666666667 Q 1616.0284592642595 291.12 1619.403952861303 289.09333333333336 Q 1622.7794464583462 287.0666666666667 1623.2074690378786 285.42 Q 1623.635491617411 283.7733333333333 1623.8354048340825 273.00666666666666 Q 1624.035318050754 262.24 1624.160803602261 272.12 Q 1624.286289153768 282 1631.2986622436044 278.39 Q 1638.311035333441 274.78 1638.4134897985714 275.73 Q 1638.5159442637018 276.68 1639.2636078398186 291.18333333333334 Q 1640.0112714159352 305.68666666666667 1645.3794620232086 296.18666666666667 Q 1650.747652630482 286.68666666666667 1652.2829454914274 284.65999999999997 Q 1653.8182383523729 282.6333333333333 1661.467861280698 292.1333333333333 Q 1669.1174842090231 301.6333333333333 1672.0333721558784 291.9433333333333 Q 1674.9492601027337 282.25333333333333 1677.9726829014198 282.8233333333333 Q 1680.996105700106 283.3933333333333 1681.8369096990687 279.46666666666664 Q 1682.677713698031 275.53999999999996 1682.6820320267266 280.1 Q 1682.686350355422 284.66 1682.9732228577873 278.96000000000004 Q 1683.2600953601523 273.26 1687.5874840786796 278.58 Q 1691.914872797207 283.9 1693.6870810246276 284.21666666666664 Q 1695.4592892520482 284.5333333333333 1696.712281958659 283.3933333333333 Q 1697.96527466527 282.25333333333333 1702.3446526743678 279.53 Q 1706.7240306834653 276.8066666666667 1707.4948946921818 272.4366666666667 Q 1708.2657587008982 268.0666666666667 1708.7726119474028 275.41333333333336 Q 1709.2794651939073 282.76 1709.9555799906561 283.83666666666664 Q 1710.631694787405 284.9133333333333 1710.9044268801197 268.82666666666665 Q 1711.1771589728344 252.74 1711.2139071033027 249.00333333333333 Q 1711.250655233771 245.26666666666668 1711.477579173068 248.56 Q 1711.704503112365 251.85333333333335 1711.751581362458 230.38333333333335 Q 1711.7986596125509 208.91333333333336 1712.5906072260752 232.5366666666667 Q 1713.3825548395996 256.16 1715.7980246964378 253.24666666666667 Q 1718.213494553276 250.33333333333334 1718.3354238340924 254.07 Q 1718.4573531149088 257.8066666666667 1718.4675985614217 258.8833333333333 Q 1718.4778440079347 259.96000000000004 1718.4934238604835 211.44666666666672 Q 1718.5090037130324 162.9333333333334 1722.4010879644231 216.70333333333338 Q 1726.293172215814 270.47333333333336 1729.7317472810573 260.21333333333337 Q 1733.1703223463007 249.95333333333335 1736.0802831753385 258.37666666666667 Q 1738.990244004376 266.8 1740.9776066085703 247.8 Q 1742.9649692127646 228.8 1749.08514172485 238.74333333333334 Q 1755.2053142369357 248.68666666666667 1755.3035350464822 256.0966666666667 Q 1755.4017558560288 263.50666666666666 1755.4098844747498 262.05 Q 1755.4180130934708 260.59333333333336 1755.4202145943746 252.36 Q 1755.422416095278 244.12666666666667 1763.0143766345507 257.49 Q 1770.6063371738232 270.85333333333335 1773.8141780097442 259.51666666666665 Q 1777.0220188456651 248.18 1777.1047444757746 247.10333333333335 Q 1777.187470105884 246.02666666666667 1779.8804984228027 248.87666666666667 Q 1782.5735267397213 251.72666666666666 1794.745879255215 257.87 Q 1806.9182317707086 264.0133333333333 1807.135926340833 262.93666666666667 Q 1807.3536209109573 261.86 1807.3832565000444 326.33333333333337 Q 1807.4128920891317 390.8066666666667 1807.434145040163 281.11333333333334 Q 1807.455397991194 171.42000000000002 1807.7769017962355 264.0766666666667 Q 1808.0984056012767 356.73333333333335 1860.1660187998687 361.29333333333335 Q 1912.2336319984609 365.85333333333335 1914.7935541838217 353.31333333333333 Q 1917.3534763691825 340.7733333333333 1917.7151152291594 326.65 Q 1918.076754089136 312.52666666666664 1931.7495141435638 318.1 Q 1945.4222741979918 323.67333333333335 1945.5212570655433 327.85333333333335 Q 1945.6202399330948 332.0333333333333 1945.7657083389577 335.0733333333333 Q 1945.9111767448205 338.11333333333334 1953.1690171854116 338.68333333333334 Q 1960.4268576260029 339.25333333333333 1960.4968822893607 339.76 Q 1960.5669069527182 340.26666666666665 1960.7938308920152 327.40999999999997 Q 1961.0207548313122 314.55333333333334 1961.033201778729 314.17333333333335 Q 1961.0456487261458 313.79333333333335 1967.9265244735466 314.42666666666673 Q 1961.0456487261458 313.79333333333335 1974.807400220947 315.06000000000006" fill="none" stroke="#2a78d6" stroke-width="2" />
<path d="M 1974.807400220947 315.06000000000006 L 1976 324.81333333333333" fill="none" stroke="#2a78d6" stroke-width="2" stroke-dasharray="5,4" />
<circle cx="1976" cy="324.81333333333333" r="5" fill="#e8890c" stroke="#2a78d6" stroke-width="2" />
  <text x="1976" y="490" font-size="10" text-anchor="middle" fill="#0b0b0b" font-family="system-ui, -apple-system, sans-serif" font-weight="600">this run (so far)</text>
  
</svg>