<svg xmlns="http://www.w3.org/2000/svg" width="798.4000000000001" height="352" viewBox="0 0 798.4000000000001 352" font-family="system-ui, -apple-system, sans-serif">
  <rect x="0" y="0" width="798.4000000000001" height="352" fill="#fcfcfb" />
  <text x="24" y="34" font-size="18" font-weight="600" fill="#0b0b0b">Visual suite — historical average per master run</text>
  <rect x="24" y="52" width="14" height="14" rx="2" fill="#2a78d6" />
<text x="44" y="63" font-size="12" fill="#52514e" font-family="system-ui, -apple-system, sans-serif">Elaboration avg</text>
<rect x="178" y="52" width="14" height="14" rx="2" fill="#2a78d6" opacity="0.55" />
<text x="198" y="63" font-size="12" fill="#52514e" font-family="system-ui, -apple-system, sans-serif">Elaboration avg (10-run avg)</text>
<rect x="425.6" y="52" width="14" height="14" rx="2" fill="#7c4dcc" />
<text x="445.6" y="63" font-size="12" fill="#52514e" font-family="system-ui, -apple-system, sans-serif">Rendering avg</text>
<rect x="565.2" y="52" width="14" height="14" rx="2" fill="#7c4dcc" opacity="0.55" />
<text x="585.2" y="63" font-size="12" fill="#52514e" font-family="system-ui, -apple-system, sans-serif">Rendering avg (10-run avg)</text>
  <text x="48" y="82" font-size="14" font-weight="600" fill="#0b0b0b" font-family="system-ui, -apple-system, sans-serif">Average duration per master run (ms) — dashed segment is this PR, not yet merged</text>
<line x1="60" y1="312" x2="774.4000000000001" y2="312" stroke="#e1e0d9" stroke-width="1" />
<text x="50" y="316" font-size="11" text-anchor="end" fill="#898781" font-family="system-ui, -apple-system, sans-serif">0</text>
<line x1="60" y1="293.6666666666667" x2="774.4000000000001" y2="293.6666666666667" stroke="#e1e0d9" stroke-width="1" />
<text x="50" y="297.6666666666667" font-size="11" text-anchor="end" fill="#898781" font-family="system-ui, -apple-system, sans-serif">50</text>
<line x1="60" y1="275.3333333333333" x2="774.4000000000001" y2="275.3333333333333" stroke="#e1e0d9" stroke-width="1" />
<text x="50" y="279.3333333333333" font-size="11" text-anchor="end" fill="#898781" font-family="system-ui, -apple-system, sans-serif">100</text>
<line x1="60" y1="257" x2="774.4000000000001" y2="257" stroke="#e1e0d9" stroke-width="1" />
<text x="50" y="261" font-size="11" text-anchor="end" fill="#898781" font-family="system-ui, -apple-system, sans-serif">150</text>
<line x1="60" y1="238.66666666666669" x2="774.4000000000001" y2="238.66666666666669" stroke="#e1e0d9" stroke-width="1" />
<text x="50" y="242.66666666666669" font-size="11" text-anchor="end" fill="#898781" font-family="system-ui, -apple-system, sans-serif">200</text>
<line x1="60" y1="220.33333333333334" x2="774.4000000000001" y2="220.33333333333334" stroke="#e1e0d9" stroke-width="1" />
<text x="50" y="224.33333333333334" font-size="11" text-anchor="end" fill="#898781" font-family="system-ui, -apple-system, sans-serif">250</text>
<line x1="60" y1="202" x2="774.4000000000001" y2="202" stroke="#e1e0d9" stroke-width="1" />
<text x="50" y="206" font-size="11" text-anchor="end" fill="#898781" font-family="system-ui, -apple-system, sans-serif">300</text>
<line x1="60" y1="183.66666666666669" x2="774.4000000000001" y2="183.66666666666669" stroke="#e1e0d9" stroke-width="1" />
<text x="50" y="187.66666666666669" font-size="11" text-anchor="end" fill="#898781" font-family="system-ui, -apple-system, sans-serif">350</text>
<line x1="60" y1="165.33333333333334" x2="774.4000000000001" y2="165.33333333333334" stroke="#e1e0d9" stroke-width="1" />
<text x="50" y="169.33333333333334" font-size="11" text-anchor="end" fill="#898781" font-family="system-ui, -apple-system, sans-serif">400</text>
<line x1="60" y1="147" x2="774.4000000000001" y2="147" stroke="#e1e0d9" stroke-width="1" />
<text x="50" y="151" font-size="11" text-anchor="end" fill="#898781" font-family="system-ui, -apple-system, sans-serif">450</text>
<line x1="60" y1="128.66666666666669" x2="774.4000000000001" y2="128.66666666666669" stroke="#e1e0d9" stroke-width="1" />
<text x="50" y="132.66666666666669" font-size="11" text-anchor="end" fill="#898781" font-family="system-ui, -apple-system, sans-serif">500</text>
<line x1="60" y1="110.33333333333334" x2="774.4000000000001" y2="110.33333333333334" stroke="#e1e0d9" stroke-width="1" />
<text x="50" y="114.33333333333334" font-size="11" text-anchor="end" fill="#898781" font-family="system-ui, -apple-system, sans-serif">550</text>
<line x1="60" y1="92.00000000000003" x2="774.4000000000001" y2="92.00000000000003" stroke="#e1e0d9" stroke-width="1" />
<text x="50" y="96.00000000000003" font-size="11" text-anchor="end" fill="#898781" font-family="system-ui, -apple-system, sans-serif">600</text>
<line x1="60" y1="312" x2="774.4000000000001" y2="312" stroke="#c3c2b7" stroke-width="1.5" />
<line x1="479.6714735273282" y1="76" x2="479.6714735273282" y2="312" stroke="#898781" stroke-width="1.5" stroke-dasharray="3,3" />
<line x1="60" y1="238.10476190476192" x2="69.83249194619188" y2="227.90750915750917" stroke="#2a78d6" stroke-width="2" stroke-dasharray="1,3" stroke-linecap="round" opacity="0.55" />
<line x1="69.83249194619188" y1="227.90750915750917" x2="80.02678893172845" y2="227.3399063899064" stroke="#2a78d6" stroke-width="2" stroke-dasharray="1,3" stroke-linecap="round" opacity="0.55" />
<line x1="80.02678893172845" y1="227.3399063899064" x2="82.95960125014298" y2="231.99200244200244" stroke="#2a78d6" stroke-width="2" stroke-dasharray="1,3" stroke-linecap="round" opacity="0.55" />
<line x1="82.95960125014298" y1="231.99200244200244" x2="83.93745417309276" y2="235.0286446886447" stroke="#2a78d6" stroke-width="2" stroke-dasharray="1,3" stroke-linecap="round" opacity="0.55" />
<line x1="83.93745417309276" y1="235.0286446886447" x2="98.48734308949159" y2="236.23526297893386" stroke="#2a78d6" stroke-width="2" stroke-dasharray="1,3" stroke-linecap="round" opacity="0.55" />
<line x1="98.48734308949159" y1="236.23526297893386" x2="104.4910516405202" y2="236.00376368658468" stroke="#2a78d6" stroke-width="2" stroke-dasharray="1,3" stroke-linecap="round" opacity="0.55" />
<line x1="104.4910516405202" y1="236.00376368658468" x2="108.70880961535605" y2="235.62940082069832" stroke="#2a78d6" stroke-width="2" stroke-dasharray="1,3" stroke-linecap="round" opacity="0.55" />
<line x1="108.70880961535605" y1="235.62940082069832" x2="123.46347391167174" y2="235.5378077618584" stroke="#2a78d6" stroke-width="2" stroke-dasharray="1,3" stroke-linecap="round" opacity="0.55" />
<line x1="123.46347391167174" y1="235.5378077618584" x2="126.09988462998243" y2="233.68467739217664" stroke="#2a78d6" stroke-width="2" stroke-dasharray="1,3" stroke-linecap="round" opacity="0.55" />
<line x1="126.09988462998243" y1="233.68467739217664" x2="127.78535515932897" y2="231.9066402260907" stroke="#2a78d6" stroke-width="2" stroke-dasharray="1,3" stroke-linecap="round" opacity="0.55" />
<line x1="127.78535515932897" y1="231.9066402260907" x2="130.0876254441826" y2="231.8541511704309" stroke="#2a78d6" stroke-width="2" stroke-dasharray="1,3" stroke-linecap="round" opacity="0.55" />
<line x1="130.0876254441826" y1="231.8541511704309" x2="131.01656474846692" y2="230.85652661341612" stroke="#2a78d6" stroke-width="2" stroke-dasharray="1,3" stroke-linecap="round" opacity="0.55" />
<line x1="131.01656474846692" y1="230.85652661341612" x2="131.3562116805823" y2="228.30889267553826" stroke="#2a78d6" stroke-width="2" stroke-dasharray="1,3" stroke-linecap="round" opacity="0.55" />
<line x1="131.3562116805823" y1="228.30889267553826" x2="132.04084997013535" y2="225.3331599259031" stroke="#2a78d6" stroke-width="2" stroke-dasharray="1,3" stroke-linecap="round" opacity="0.55" />
<line x1="132.04084997013535" y1="225.3331599259031" x2="132.36088945268057" y2="223.12400740969434" stroke="#2a78d6" stroke-width="2" stroke-dasharray="1,3" stroke-linecap="round" opacity="0.55" />
<line x1="132.36088945268057" y1="223.12400740969434" x2="142.96721566459382" y2="223.5023368179958" stroke="#2a78d6" stroke-width="2" stroke-dasharray="1,3" stroke-linecap="round" opacity="0.55" />
<line x1="142.96721566459382" y1="223.5023368179958" x2="143.41576788896342" y2="221.99645074204642" stroke="#2a78d6" stroke-width="2" stroke-dasharray="1,3" stroke-linecap="round" opacity="0.55" />
<line x1="143.41576788896342" y1="221.99645074204642" x2="143.7685401932305" y2="220.79540801446507" stroke="#2a78d6" stroke-width="2" stroke-dasharray="1,3" stroke-linecap="round" opacity="0.55" />
<line x1="143.7685401932305" y1="220.79540801446507" x2="156.63730802369912" y2="220.94475760796104" stroke="#2a78d6" stroke-width="2" stroke-dasharray="1,3" stroke-linecap="round" opacity="0.55" />
<line x1="156.63730802369912" y1="220.94475760796104" x2="168.14180357465068" y2="224.0346148798671" stroke="#2a78d6" stroke-width="2" stroke-dasharray="1,3" stroke-linecap="round" opacity="0.55" />
<line x1="168.14180357465068" y1="224.0346148798671" x2="178.0436152568025" y2="224.8912634796864" stroke="#2a78d6" stroke-width="2" stroke-dasharray="1,3" stroke-linecap="round" opacity="0.55" />
<line x1="178.0436152568025" y1="224.8912634796864" x2="184.78718459185723" y2="225.08664017345333" stroke="#2a78d6" stroke-width="2" stroke-dasharray="1,3" stroke-linecap="round" opacity="0.55" />
<line x1="184.78718459185723" y1="225.08664017345333" x2="205.37046259495884" y2="225.2854450515021" stroke="#2a78d6" stroke-width="2" stroke-dasharray="1,3" stroke-linecap="round" opacity="0.55" />
<line x1="205.37046259495884" y1="225.2854450515021" x2="205.74807149660478" y2="225.51180458176407" stroke="#2a78d6" stroke-width="2" stroke-dasharray="1,3" stroke-linecap="round" opacity="0.55" />
<line x1="205.74807149660478" y1="225.51180458176407" x2="231.3104929101535" y2="226.18175128456446" stroke="#2a78d6" stroke-width="2" stroke-dasharray="1,3" stroke-linecap="round" opacity="0.55" />
<line x1="231.3104929101535" y1="226.18175128456446" x2="242.0742428365597" y2="226.26157471264366" stroke="#2a78d6" stroke-width="2" stroke-dasharray="1,3" stroke-linecap="round" opacity="0.55" />
<line x1="242.0742428365597" y1="226.26157471264366" x2="242.45477676244374" y2="226.4819821200511" stroke="#2a78d6" stroke-width="2" stroke-dasharray="1,3" stroke-linecap="round" opacity="0.55" />
<line x1="242.45477676244374" y1="226.4819821200511" x2="251.48301715837823" y2="225.82314814814816" stroke="#2a78d6" stroke-width="2" stroke-dasharray="1,3" stroke-linecap="round" opacity="0.55" />
<line x1="251.48301715837823" y1="225.82314814814816" x2="292.50772703746816" y2="226.28392592592593" stroke="#2a78d6" stroke-width="2" stroke-dasharray="1,3" stroke-linecap="round" opacity="0.55" />
<line x1="292.50772703746816" y1="226.28392592592593" x2="293.24592286037546" y2="222.96355555555556" stroke="#2a78d6" stroke-width="2" stroke-dasharray="1,3" stroke-linecap="round" opacity="0.55" />
<line x1="293.24592286037546" y1="222.96355555555556" x2="293.6206041697199" y2="222.76677777777778" stroke="#2a78d6" stroke-width="2" stroke-dasharray="1,3" stroke-linecap="round" opacity="0.55" />
<line x1="293.6206041697199" y1="222.76677777777778" x2="294.2673809295562" y2="222.85885185185185" stroke="#2a78d6" stroke-width="2" stroke-dasharray="1,3" stroke-linecap="round" opacity="0.55" />
<line x1="294.2673809295562" y1="222.85885185185185" x2="300.48738005688756" y2="222.4758888888889" stroke="#2a78d6" stroke-width="2" stroke-dasharray="1,3" stroke-linecap="round" opacity="0.55" />
<line x1="300.48738005688756" y1="222.4758888888889" x2="303.2377448801409" y2="222.85396296296295" stroke="#2a78d6" stroke-width="2" stroke-dasharray="1,3" stroke-linecap="round" opacity="0.55" />
<line x1="303.2377448801409" y1="222.85396296296295" x2="329.96848163774183" y2="220.56680434782612" stroke="#2a78d6" stroke-width="2" stroke-dasharray="1,3" stroke-linecap="round" opacity="0.55" />
<line x1="329.96848163774183" y1="220.56680434782612" x2="352.6246564929593" y2="217.54817830242587" stroke="#2a78d6" stroke-width="2" stroke-dasharray="1,3" stroke-linecap="round" opacity="0.55" />
<line x1="352.6246564929593" y1="217.54817830242587" x2="352.7646530437277" y2="215.55180315308297" stroke="#2a78d6" stroke-width="2" stroke-dasharray="1,3" stroke-linecap="round" opacity="0.55" />
<line x1="352.7646530437277" y1="215.55180315308297" x2="354.78774687121285" y2="214.74898714352503" stroke="#2a78d6" stroke-width="2" stroke-dasharray="1,3" stroke-linecap="round" opacity="0.55" />
<line x1="354.78774687121285" y1="214.74898714352503" x2="355.14126705261657" y2="213.96057495714507" stroke="#2a78d6" stroke-width="2" stroke-dasharray="1,3" stroke-linecap="round" opacity="0.55" />
<line x1="355.14126705261657" y1="213.96057495714507" x2="356.33674879825253" y2="212.51162394161344" stroke="#2a78d6" stroke-width="2" stroke-dasharray="1,3" stroke-linecap="round" opacity="0.55" />
<line x1="356.33674879825253" y1="212.51162394161344" x2="380.0402050270646" y2="210.61551044101606" stroke="#2a78d6" stroke-width="2" stroke-dasharray="1,3" stroke-linecap="round" opacity="0.55" />
<line x1="380.0402050270646" y1="210.61551044101606" x2="380.4105223406333" y2="209.5108055425692" stroke="#2a78d6" stroke-width="2" stroke-dasharray="1,3" stroke-linecap="round" opacity="0.55" />
<line x1="380.4105223406333" y1="209.5108055425692" x2="380.5026359221897" y2="209.98350327255727" stroke="#2a78d6" stroke-width="2" stroke-dasharray="1,3" stroke-linecap="round" opacity="0.55" />
<line x1="380.5026359221897" y1="209.98350327255727" x2="380.84333604564864" y2="207.8680337385071" stroke="#2a78d6" stroke-width="2" stroke-dasharray="1,3" stroke-linecap="round" opacity="0.55" />
<line x1="380.84333604564864" y1="207.8680337385071" x2="399.659324162746" y2="208.39498207885308" stroke="#2a78d6" stroke-width="2" stroke-dasharray="1,3" stroke-linecap="round" opacity="0.55" />
<line x1="399.659324162746" y1="208.39498207885308" x2="399.7130249369711" y2="207.54218637992832" stroke="#2a78d6" stroke-width="2" stroke-dasharray="1,3" stroke-linecap="round" opacity="0.55" />
<line x1="399.7130249369711" y1="207.54218637992832" x2="401.1923179237722" y2="208.98519713261652" stroke="#2a78d6" stroke-width="2" stroke-dasharray="1,3" stroke-linecap="round" opacity="0.55" />
<line x1="401.1923179237722" y1="208.98519713261652" x2="402.073743774637" y2="207.7093548387097" stroke="#2a78d6" stroke-width="2" stroke-dasharray="1,3" stroke-linecap="round" opacity="0.55" />
<line x1="402.073743774637" y1="207.7093548387097" x2="402.5364828373729" y2="204.48702508960574" stroke="#2a78d6" stroke-width="2" stroke-dasharray="1,3" stroke-linecap="round" opacity="0.55" />
<line x1="402.5364828373729" y1="204.48702508960574" x2="402.6048124422133" y2="203.62989247311828" stroke="#2a78d6" stroke-width="2" stroke-dasharray="1,3" stroke-linecap="round" opacity="0.55" />
<line x1="402.6048124422133" y1="203.62989247311828" x2="403.3384910415607" y2="202.51569892473117" stroke="#2a78d6" stroke-width="2" stroke-dasharray="1,3" stroke-linecap="round" opacity="0.55" />
<line x1="403.3384910415607" y1="202.51569892473117" x2="404.67957256701226" y2="203.16584229390682" stroke="#2a78d6" stroke-width="2" stroke-dasharray="1,3" stroke-linecap="round" opacity="0.55" />
<line x1="404.67957256701226" y1="203.16584229390682" x2="404.98569628455243" y2="200.27706093189965" stroke="#2a78d6" stroke-width="2" stroke-dasharray="1,3" stroke-linecap="round" opacity="0.55" />
<line x1="404.98569628455243" y1="200.27706093189965" x2="405.0596893252603" y2="201.27377201184356" stroke="#2a78d6" stroke-width="2" stroke-dasharray="1,3" stroke-linecap="round" opacity="0.55" />
<line x1="405.0596893252603" y1="201.27377201184356" x2="406.05377554778363" y2="201.007077294686" stroke="#2a78d6" stroke-width="2" stroke-dasharray="1,3" stroke-linecap="round" opacity="0.55" />
<line x1="406.05377554778363" y1="201.007077294686" x2="406.3982181956701" y2="201.79017375720747" stroke="#2a78d6" stroke-width="2" stroke-dasharray="1,3" stroke-linecap="round" opacity="0.55" />
<line x1="406.3982181956701" y1="201.79017375720747" x2="414.8272823140037" y2="203.1103408913823" stroke="#2a78d6" stroke-width="2" stroke-dasharray="1,3" stroke-linecap="round" opacity="0.55" />
<line x1="414.8272823140037" y1="203.1103408913823" x2="424.41212591746347" y2="204.47659420289855" stroke="#2a78d6" stroke-width="2" stroke-dasharray="1,3" stroke-linecap="round" opacity="0.55" />
<line x1="424.41212591746347" y1="204.47659420289855" x2="428.95350239923414" y2="206.3570293750974" stroke="#2a78d6" stroke-width="2" stroke-dasharray="1,3" stroke-linecap="round" opacity="0.55" />
<line x1="428.95350239923414" y1="206.3570293750974" x2="429.52415519640283" y2="206.8423827333645" stroke="#2a78d6" stroke-width="2" stroke-dasharray="1,3" stroke-linecap="round" opacity="0.55" />
<line x1="429.52415519640283" y1="206.8423827333645" x2="429.76599400899283" y2="208.1529203677731" stroke="#2a78d6" stroke-width="2" stroke-dasharray="1,3" stroke-linecap="round" opacity="0.55" />
<line x1="429.76599400899283" y1="208.1529203677731" x2="429.8545057389292" y2="206.5876873928627" stroke="#2a78d6" stroke-width="2" stroke-dasharray="1,3" stroke-linecap="round" opacity="0.55" />
<line x1="429.8545057389292" y1="206.5876873928627" x2="429.93888688152094" y2="207.99560853981612" stroke="#2a78d6" stroke-width="2" stroke-dasharray="1,3" stroke-linecap="round" opacity="0.55" />
<line x1="429.93888688152094" y1="207.99560853981612" x2="440.08329324293004" y2="207.9325175315568" stroke="#2a78d6" stroke-width="2" stroke-dasharray="1,3" stroke-linecap="round" opacity="0.55" />
<line x1="440.08329324293004" y1="207.9325175315568" x2="441.50764821961724" y2="207.73634486520183" stroke="#2a78d6" stroke-width="2" stroke-dasharray="1,3" stroke-linecap="round" opacity="0.55" />
<line x1="441.50764821961724" y1="207.73634486520183" x2="465.19606101824144" y2="207.4354347826087" stroke="#2a78d6" stroke-width="2" stroke-dasharray="1,3" stroke-linecap="round" opacity="0.55" />
<line x1="465.19606101824144" y1="207.4354347826087" x2="465.4820248672352" y2="205.65594865201808" stroke="#2a78d6" stroke-width="2" stroke-dasharray="1,3" stroke-linecap="round" opacity="0.55" />
<line x1="465.4820248672352" y1="205.65594865201808" x2="469.7212387266246" y2="206.87370967741936" stroke="#2a78d6" stroke-width="2" stroke-dasharray="1,3" stroke-linecap="round" opacity="0.55" />
<line x1="469.7212387266246" y1="206.87370967741936" x2="478.4075386244672" y2="207.34861500701263" stroke="#2a78d6" stroke-width="2" stroke-dasharray="1,3" stroke-linecap="round" opacity="0.55" />
<line x1="478.4075386244672" y1="207.34861500701263" x2="479.6714735273282" y2="207.54770609318996" stroke="#2a78d6" stroke-width="2" stroke-dasharray="1,3" stroke-linecap="round" opacity="0.55" />
<line x1="479.6714735273282" y1="207.54770609318996" x2="525.6955474629126" y2="206.80370727561618" stroke="#2a78d6" stroke-width="2" stroke-dasharray="1,3" stroke-linecap="round" opacity="0.55" />
<line x1="525.6955474629126" y1="206.80370727561618" x2="525.7315702592189" y2="205.78110926357022" stroke="#2a78d6" stroke-width="2" stroke-dasharray="1,3" stroke-linecap="round" opacity="0.55" />
<line x1="525.7315702592189" y1="205.78110926357022" x2="526.0401242207777" y2="203.50949931640986" stroke="#2a78d6" stroke-width="2" stroke-dasharray="1,3" stroke-linecap="round" opacity="0.55" />
<line x1="526.0401242207777" y1="203.50949931640986" x2="526.5355170659502" y2="201.13969700328863" stroke="#2a78d6" stroke-width="2" stroke-dasharray="1,3" stroke-linecap="round" opacity="0.55" />
<line x1="526.5355170659502" y1="201.13969700328863" x2="550.9893029319998" y2="200.12820345120645" stroke="#2a78d6" stroke-width="2" stroke-dasharray="1,3" stroke-linecap="round" opacity="0.55" />
<line x1="550.9893029319998" y1="200.12820345120645" x2="551.2237457219334" y2="198.604441488379" stroke="#2a78d6" stroke-width="2" stroke-dasharray="1,3" stroke-linecap="round" opacity="0.55" />
<line x1="551.2237457219334" y1="198.604441488379" x2="552.0243069650528" y2="197.5949477145919" stroke="#2a78d6" stroke-width="2" stroke-dasharray="1,3" stroke-linecap="round" opacity="0.55" />
<line x1="552.0243069650528" y1="197.5949477145919" x2="552.0667325141518" y2="196.0182404020249" stroke="#2a78d6" stroke-width="2" stroke-dasharray="1,3" stroke-linecap="round" opacity="0.55" />
<line x1="552.0667325141518" y1="196.0182404020249" x2="575.2456255507171" y2="194.83671285518977" stroke="#2a78d6" stroke-width="2" stroke-dasharray="1,3" stroke-linecap="round" opacity="0.55" />
<line x1="575.2456255507171" y1="194.83671285518977" x2="577.4873677220671" y2="194.32494845360822" stroke="#2a78d6" stroke-width="2" stroke-dasharray="1,3" stroke-linecap="round" opacity="0.55" />
<line x1="577.4873677220671" y1="194.32494845360822" x2="600.9011038811195" y2="194.96831615120274" stroke="#2a78d6" stroke-width="2" stroke-dasharray="1,3" stroke-linecap="round" opacity="0.55" />
<line x1="600.9011038811195" y1="194.96831615120274" x2="614.8863010462338" y2="197.76556701030927" stroke="#2a78d6" stroke-width="2" stroke-dasharray="1,3" stroke-linecap="round" opacity="0.55" />
<line x1="614.8863010462338" y1="197.76556701030927" x2="615.0154971782689" y2="199.0243298969072" stroke="#2a78d6" stroke-width="2" stroke-dasharray="1,3" stroke-linecap="round" opacity="0.55" />
<line x1="615.0154971782689" y1="199.0243298969072" x2="620.2552470941371" y2="200.58247422680415" stroke="#2a78d6" stroke-width="2" stroke-dasharray="1,3" stroke-linecap="round" opacity="0.55" />
<line x1="620.2552470941371" y1="200.58247422680415" x2="624.4192503654159" y2="200.6943642611684" stroke="#2a78d6" stroke-width="2" stroke-dasharray="1,3" stroke-linecap="round" opacity="0.55" />
<line x1="624.4192503654159" y1="200.6943642611684" x2="626.2946665644363" y2="202.23890034364263" stroke="#2a78d6" stroke-width="2" stroke-dasharray="1,3" stroke-linecap="round" opacity="0.55" />
<line x1="626.2946665644363" y1="202.23890034364263" x2="639.8759492982482" y2="201.6053608247423" stroke="#2a78d6" stroke-width="2" stroke-dasharray="1,3" stroke-linecap="round" opacity="0.55" />
<line x1="639.8759492982482" y1="201.6053608247423" x2="651.9308353406255" y2="200.35982817869416" stroke="#2a78d6" stroke-width="2" stroke-dasharray="1,3" stroke-linecap="round" opacity="0.55" />
<line x1="651.9308353406255" y1="200.35982817869416" x2="662.5756850719376" y2="200.3019931271478" stroke="#2a78d6" stroke-width="2" stroke-dasharray="1,3" stroke-linecap="round" opacity="0.55" />
<line x1="662.5756850719376" y1="200.3019931271478" x2="663.2617240974175" y2="198.73666666666668" stroke="#2a78d6" stroke-width="2" stroke-dasharray="1,3" stroke-linecap="round" opacity="0.55" />
<line x1="663.2617240974175" y1="198.73666666666668" x2="675.3326459838253" y2="198.49020618556705" stroke="#2a78d6" stroke-width="2" stroke-dasharray="1,3" stroke-linecap="round" opacity="0.55" />
<line x1="675.3326459838253" y1="198.49020618556705" x2="710.4665910265427" y2="196.97364261168386" stroke="#2a78d6" stroke-width="2" stroke-dasharray="1,3" stroke-linecap="round" opacity="0.55" />
<line x1="710.4665910265427" y1="196.97364261168386" x2="725.6844609171159" y2="196.95814432989692" stroke="#2a78d6" stroke-width="2" stroke-dasharray="1,3" stroke-linecap="round" opacity="0.55" />
<line x1="725.6844609171159" y1="196.95814432989692" x2="725.7983662288535" y2="195.74323024054985" stroke="#2a78d6" stroke-width="2" stroke-dasharray="1,3" stroke-linecap="round" opacity="0.55" />
<line x1="725.7983662288535" y1="195.74323024054985" x2="726.0491981142083" y2="195.16450171821305" stroke="#2a78d6" stroke-width="2" stroke-dasharray="1,3" stroke-linecap="round" opacity="0.55" />
<line x1="726.0491981142083" y1="195.16450171821305" x2="735.6194890729342" y2="195.61924398625428" stroke="#2a78d6" stroke-width="2" stroke-dasharray="1,3" stroke-linecap="round" opacity="0.55" />
<line x1="735.6194890729342" y1="195.61924398625428" x2="772.1320036602622" y2="196.95492741426466" stroke="#2a78d6" stroke-width="2" stroke-dasharray="1,3" stroke-linecap="round" opacity="0.55" />
<line x1="772.1320036602622" y1="196.95492741426466" x2="774.4000000000001" y2="197.37231504313064" stroke="#2a78d6" stroke-width="2" stroke-dasharray="1,3" stroke-linecap="round" opacity="0.55" />
<line x1="60" y1="228.79518518518518" x2="69.83249194619188" y2="218.000522995523" stroke="#7c4dcc" stroke-width="2" stroke-dasharray="1,3" stroke-linecap="round" opacity="0.55" />
<line x1="69.83249194619188" y1="218.000522995523" x2="80.02678893172845" y2="216.09998236331572" stroke="#7c4dcc" stroke-width="2" stroke-dasharray="1,3" stroke-linecap="round" opacity="0.55" />
<line x1="80.02678893172845" y1="216.09998236331572" x2="82.95960125014298" y2="214.06482193732194" stroke="#7c4dcc" stroke-width="2" stroke-dasharray="1,3" stroke-linecap="round" opacity="0.55" />
<line x1="82.95960125014298" y1="214.06482193732194" x2="83.93745417309276" y2="211.933102971103" stroke="#7c4dcc" stroke-width="2" stroke-dasharray="1,3" stroke-linecap="round" opacity="0.55" />
<line x1="83.93745417309276" y1="211.933102971103" x2="98.48734308949159" y2="205.9120742580974" stroke="#7c4dcc" stroke-width="2" stroke-dasharray="1,3" stroke-linecap="round" opacity="0.55" />
<line x1="98.48734308949159" y1="205.9120742580974" x2="104.4910516405202" y2="200.98743564414002" stroke="#7c4dcc" stroke-width="2" stroke-dasharray="1,3" stroke-linecap="round" opacity="0.55" />
<line x1="104.4910516405202" y1="200.98743564414002" x2="108.70880961535605" y2="198.17341212921662" stroke="#7c4dcc" stroke-width="2" stroke-dasharray="1,3" stroke-linecap="round" opacity="0.55" />
<line x1="108.70880961535605" y1="198.17341212921662" x2="123.46347391167174" y2="195.6709024573601" stroke="#7c4dcc" stroke-width="2" stroke-dasharray="1,3" stroke-linecap="round" opacity="0.55" />
<line x1="123.46347391167174" y1="195.6709024573601" x2="126.09988462998243" y2="193.81224169880358" stroke="#7c4dcc" stroke-width="2" stroke-dasharray="1,3" stroke-linecap="round" opacity="0.55" />
<line x1="126.09988462998243" y1="193.81224169880358" x2="127.78535515932897" y2="188.66900523156713" stroke="#7c4dcc" stroke-width="2" stroke-dasharray="1,3" stroke-linecap="round" opacity="0.55" />
<line x1="127.78535515932897" y1="188.66900523156713" x2="130.0876254441826" y2="185.4520088945708" stroke="#7c4dcc" stroke-width="2" stroke-dasharray="1,3" stroke-linecap="round" opacity="0.55" />
<line x1="130.0876254441826" y1="185.4520088945708" x2="131.01656474846692" y2="181.58820852827043" stroke="#7c4dcc" stroke-width="2" stroke-dasharray="1,3" stroke-linecap="round" opacity="0.55" />
<line x1="131.01656474846692" y1="181.58820852827043" x2="131.3562116805823" y2="178.1534283084902" stroke="#7c4dcc" stroke-width="2" stroke-dasharray="1,3" stroke-linecap="round" opacity="0.55" />
<line x1="131.3562116805823" y1="178.1534283084902" x2="132.04084997013535" y2="174.9387991876111" stroke="#7c4dcc" stroke-width="2" stroke-dasharray="1,3" stroke-linecap="round" opacity="0.55" />
<line x1="132.04084997013535" y1="174.9387991876111" x2="132.36088945268057" y2="175.0344522721503" stroke="#7c4dcc" stroke-width="2" stroke-dasharray="1,3" stroke-linecap="round" opacity="0.55" />
<line x1="132.36088945268057" y1="175.0344522721503" x2="142.96721566459382" y2="178.04431903660452" stroke="#7c4dcc" stroke-width="2" stroke-dasharray="1,3" stroke-linecap="round" opacity="0.55" />
<line x1="142.96721566459382" y1="178.04431903660452" x2="143.41576788896342" y2="177.02719551869717" stroke="#7c4dcc" stroke-width="2" stroke-dasharray="1,3" stroke-linecap="round" opacity="0.55" />
<line x1="143.41576788896342" y1="177.02719551869717" x2="143.7685401932305" y2="177.1869448147277" stroke="#7c4dcc" stroke-width="2" stroke-dasharray="1,3" stroke-linecap="round" opacity="0.55" />
<line x1="143.7685401932305" y1="177.1869448147277" x2="156.63730802369912" y2="177.11790370675308" stroke="#7c4dcc" stroke-width="2" stroke-dasharray="1,3" stroke-linecap="round" opacity="0.55" />
<line x1="156.63730802369912" y1="177.11790370675308" x2="168.14180357465068" y2="180.50483594118532" stroke="#7c4dcc" stroke-width="2" stroke-dasharray="1,3" stroke-linecap="round" opacity="0.55" />
<line x1="168.14180357465068" y1="180.50483594118532" x2="178.0436152568025" y2="180.75538310235748" stroke="#7c4dcc" stroke-width="2" stroke-dasharray="1,3" stroke-linecap="round" opacity="0.55" />
<line x1="178.0436152568025" y1="180.75538310235748" x2="184.78718459185723" y2="180.17802899095167" stroke="#7c4dcc" stroke-width="2" stroke-dasharray="1,3" stroke-linecap="round" opacity="0.55" />
<line x1="184.78718459185723" y1="180.17802899095167" x2="205.37046259495884" y2="179.6049785930737" stroke="#7c4dcc" stroke-width="2" stroke-dasharray="1,3" stroke-linecap="round" opacity="0.55" />
<line x1="205.37046259495884" y1="179.6049785930737" x2="205.74807149660478" y2="179.71277810677836" stroke="#7c4dcc" stroke-width="2" stroke-dasharray="1,3" stroke-linecap="round" opacity="0.55" />
<line x1="205.74807149660478" y1="179.71277810677836" x2="231.3104929101535" y2="179.28065609086323" stroke="#7c4dcc" stroke-width="2" stroke-dasharray="1,3" stroke-linecap="round" opacity="0.55" />
<line x1="231.3104929101535" y1="179.28065609086323" x2="242.0742428365597" y2="178.38139789588666" stroke="#7c4dcc" stroke-width="2" stroke-dasharray="1,3" stroke-linecap="round" opacity="0.55" />
<line x1="242.0742428365597" y1="178.38139789588666" x2="242.45477676244374" y2="178.30401390269807" stroke="#7c4dcc" stroke-width="2" stroke-dasharray="1,3" stroke-linecap="round" opacity="0.55" />
<line x1="242.45477676244374" y1="178.30401390269807" x2="251.48301715837823" y2="177.08375106393396" stroke="#7c4dcc" stroke-width="2" stroke-dasharray="1,3" stroke-linecap="round" opacity="0.55" />
<line x1="251.48301715837823" y1="177.08375106393396" x2="292.50772703746816" y2="175.94987992610837" stroke="#7c4dcc" stroke-width="2" stroke-dasharray="1,3" stroke-linecap="round" opacity="0.55" />
<line x1="292.50772703746816" y1="175.94987992610837" x2="293.24592286037546" y2="171.82813115763545" stroke="#7c4dcc" stroke-width="2" stroke-dasharray="1,3" stroke-linecap="round" opacity="0.55" />
<line x1="293.24592286037546" y1="171.82813115763545" x2="293.6206041697199" y2="170.691091954023" stroke="#7c4dcc" stroke-width="2" stroke-dasharray="1,3" stroke-linecap="round" opacity="0.55" />
<line x1="293.6206041697199" y1="170.691091954023" x2="294.2673809295562" y2="170.22074712643678" stroke="#7c4dcc" stroke-width="2" stroke-dasharray="1,3" stroke-linecap="round" opacity="0.55" />
<line x1="294.2673809295562" y1="170.22074712643678" x2="300.48738005688756" y2="169.43209770114942" stroke="#7c4dcc" stroke-width="2" stroke-dasharray="1,3" stroke-linecap="round" opacity="0.55" />
<line x1="300.48738005688756" y1="169.43209770114942" x2="303.2377448801409" y2="168.8179310344828" stroke="#7c4dcc" stroke-width="2" stroke-dasharray="1,3" stroke-linecap="round" opacity="0.55" />
<line x1="303.2377448801409" y1="168.8179310344828" x2="329.96848163774183" y2="166.47650176834662" stroke="#7c4dcc" stroke-width="2" stroke-dasharray="1,3" stroke-linecap="round" opacity="0.55" />
<line x1="329.96848163774183" y1="166.47650176834662" x2="352.6246564929593" y2="161.80325595804567" stroke="#7c4dcc" stroke-width="2" stroke-dasharray="1,3" stroke-linecap="round" opacity="0.55" />
<line x1="352.6246564929593" y1="161.80325595804567" x2="352.7646530437277" y2="159.66850843676812" stroke="#7c4dcc" stroke-width="2" stroke-dasharray="1,3" stroke-linecap="round" opacity="0.55" />
<line x1="352.7646530437277" y1="159.66850843676812" x2="354.78774687121285" y2="157.89948654504218" stroke="#7c4dcc" stroke-width="2" stroke-dasharray="1,3" stroke-linecap="round" opacity="0.55" />
<line x1="354.78774687121285" y1="157.89948654504218" x2="355.14126705261657" y2="157.82541968534233" stroke="#7c4dcc" stroke-width="2" stroke-dasharray="1,3" stroke-linecap="round" opacity="0.55" />
<line x1="355.14126705261657" y1="157.82541968534233" x2="356.33674879825253" y2="155.21550633095077" stroke="#7c4dcc" stroke-width="2" stroke-dasharray="1,3" stroke-linecap="round" opacity="0.55" />
<line x1="356.33674879825253" y1="155.21550633095077" x2="380.0402050270646" y2="152.99527885880903" stroke="#7c4dcc" stroke-width="2" stroke-dasharray="1,3" stroke-linecap="round" opacity="0.55" />
<line x1="380.0402050270646" y1="152.99527885880903" x2="380.4105223406333" y2="151.31447075141233" stroke="#7c4dcc" stroke-width="2" stroke-dasharray="1,3" stroke-linecap="round" opacity="0.55" />
<line x1="380.4105223406333" y1="151.31447075141233" x2="380.5026359221897" y2="150.0556019701541" stroke="#7c4dcc" stroke-width="2" stroke-dasharray="1,3" stroke-linecap="round" opacity="0.55" />
<line x1="380.5026359221897" y1="150.0556019701541" x2="380.84333604564864" y2="147.52495772166768" stroke="#7c4dcc" stroke-width="2" stroke-dasharray="1,3" stroke-linecap="round" opacity="0.55" />
<line x1="380.84333604564864" y1="147.52495772166768" x2="399.659324162746" y2="147.25134860050892" stroke="#7c4dcc" stroke-width="2" stroke-dasharray="1,3" stroke-linecap="round" opacity="0.55" />
<line x1="399.659324162746" y1="147.25134860050892" x2="399.7130249369711" y2="147.15198473282442" stroke="#7c4dcc" stroke-width="2" stroke-dasharray="1,3" stroke-linecap="round" opacity="0.55" />
<line x1="399.7130249369711" y1="147.15198473282442" x2="401.1923179237722" y2="148.05101781170487" stroke="#7c4dcc" stroke-width="2" stroke-dasharray="1,3" stroke-linecap="round" opacity="0.55" />
<line x1="401.1923179237722" y1="148.05101781170487" x2="402.073743774637" y2="147.54074851569126" stroke="#7c4dcc" stroke-width="2" stroke-dasharray="1,3" stroke-linecap="round" opacity="0.55" />
<line x1="402.073743774637" y1="147.54074851569126" x2="402.5364828373729" y2="144.63735368956745" stroke="#7c4dcc" stroke-width="2" stroke-dasharray="1,3" stroke-linecap="round" opacity="0.55" />
<line x1="402.5364828373729" y1="144.63735368956745" x2="402.6048124422133" y2="145.3458015267176" stroke="#7c4dcc" stroke-width="2" stroke-dasharray="1,3" stroke-linecap="round" opacity="0.55" />
<line x1="402.6048124422133" y1="145.3458015267176" x2="403.3384910415607" y2="144.94170907548775" stroke="#7c4dcc" stroke-width="2" stroke-dasharray="1,3" stroke-linecap="round" opacity="0.55" />
<line x1="403.3384910415607" y1="144.94170907548775" x2="404.67957256701226" y2="145.89023748939786" stroke="#7c4dcc" stroke-width="2" stroke-dasharray="1,3" stroke-linecap="round" opacity="0.55" />
<line x1="404.67957256701226" y1="145.89023748939786" x2="404.98569628455243" y2="145.66937446988976" stroke="#7c4dcc" stroke-width="2" stroke-dasharray="1,3" stroke-linecap="round" opacity="0.55" />
<line x1="404.98569628455243" y1="145.66937446988976" x2="405.0596893252603" y2="146.43789228159457" stroke="#7c4dcc" stroke-width="2" stroke-dasharray="1,3" stroke-linecap="round" opacity="0.55" />
<line x1="405.0596893252603" y1="146.43789228159457" x2="406.05377554778363" y2="145.7939843087362" stroke="#7c4dcc" stroke-width="2" stroke-dasharray="1,3" stroke-linecap="round" opacity="0.55" />
<line x1="406.05377554778363" y1="145.7939843087362" x2="406.3982181956701" y2="146.25535835453778" stroke="#7c4dcc" stroke-width="2" stroke-dasharray="1,3" stroke-linecap="round" opacity="0.55" />
<line x1="406.3982181956701" y1="146.25535835453778" x2="414.8272823140037" y2="145.56944444444446" stroke="#7c4dcc" stroke-width="2" stroke-dasharray="1,3" stroke-linecap="round" opacity="0.55" />
<line x1="414.8272823140037" y1="145.56944444444446" x2="424.41212591746347" y2="145.78222222222223" stroke="#7c4dcc" stroke-width="2" stroke-dasharray="1,3" stroke-linecap="round" opacity="0.55" />
<line x1="424.41212591746347" y1="145.78222222222223" x2="428.95350239923414" y2="146.20527777777775" stroke="#7c4dcc" stroke-width="2" stroke-dasharray="1,3" stroke-linecap="round" opacity="0.55" />
<line x1="428.95350239923414" y1="146.20527777777775" x2="429.52415519640283" y2="145.1536111111111" stroke="#7c4dcc" stroke-width="2" stroke-dasharray="1,3" stroke-linecap="round" opacity="0.55" />
<line x1="429.52415519640283" y1="145.1536111111111" x2="429.76599400899283" y2="145.60444235588972" stroke="#7c4dcc" stroke-width="2" stroke-dasharray="1,3" stroke-linecap="round" opacity="0.55" />
<line x1="429.76599400899283" y1="145.60444235588972" x2="429.8545057389292" y2="144.17246658312447" stroke="#7c4dcc" stroke-width="2" stroke-dasharray="1,3" stroke-linecap="round" opacity="0.55" />
<line x1="429.8545057389292" y1="144.17246658312447" x2="429.93888688152094" y2="143.8518170426065" stroke="#7c4dcc" stroke-width="2" stroke-dasharray="1,3" stroke-linecap="round" opacity="0.55" />
<line x1="429.93888688152094" y1="143.8518170426065" x2="440.08329324293004" y2="143.29291353383462" stroke="#7c4dcc" stroke-width="2" stroke-dasharray="1,3" stroke-linecap="round" opacity="0.55" />
<line x1="440.08329324293004" y1="143.29291353383462" x2="441.50764821961724" y2="142.99502923976607" stroke="#7c4dcc" stroke-width="2" stroke-dasharray="1,3" stroke-linecap="round" opacity="0.55" />
<line x1="441.50764821961724" y1="142.99502923976607" x2="465.19606101824144" y2="142.02029239766085" stroke="#7c4dcc" stroke-width="2" stroke-dasharray="1,3" stroke-linecap="round" opacity="0.55" />
<line x1="465.19606101824144" y1="142.02029239766085" x2="465.4820248672352" y2="141.43925438596492" stroke="#7c4dcc" stroke-width="2" stroke-dasharray="1,3" stroke-linecap="round" opacity="0.55" />
<line x1="465.4820248672352" y1="141.43925438596492" x2="469.7212387266246" y2="141.03403091060986" stroke="#7c4dcc" stroke-width="2" stroke-dasharray="1,3" stroke-linecap="round" opacity="0.55" />
<line x1="469.7212387266246" y1="141.03403091060986" x2="478.4075386244672" y2="140.51474937343363" stroke="#7c4dcc" stroke-width="2" stroke-dasharray="1,3" stroke-linecap="round" opacity="0.55" />
<line x1="478.4075386244672" y1="140.51474937343363" x2="479.6714735273282" y2="141.6701002506266" stroke="#7c4dcc" stroke-width="2" stroke-dasharray="1,3" stroke-linecap="round" opacity="0.55" />
<line x1="479.6714735273282" y1="141.6701002506266" x2="525.6955474629126" y2="142.41199001152518" stroke="#7c4dcc" stroke-width="2" stroke-dasharray="1,3" stroke-linecap="round" opacity="0.55" />
<line x1="525.6955474629126" y1="142.41199001152518" x2="525.7315702592189" y2="143.10425369994329" stroke="#7c4dcc" stroke-width="2" stroke-dasharray="1,3" stroke-linecap="round" opacity="0.55" />
<line x1="525.7315702592189" y1="143.10425369994329" x2="526.0401242207777" y2="143.06053381629258" stroke="#7c4dcc" stroke-width="2" stroke-dasharray="1,3" stroke-linecap="round" opacity="0.55" />
<line x1="526.0401242207777" y1="143.06053381629258" x2="526.5355170659502" y2="142.80702248321535" stroke="#7c4dcc" stroke-width="2" stroke-dasharray="1,3" stroke-linecap="round" opacity="0.55" />
<line x1="526.5355170659502" y1="142.80702248321535" x2="550.9893029319998" y2="143.73371659074698" stroke="#7c4dcc" stroke-width="2" stroke-dasharray="1,3" stroke-linecap="round" opacity="0.55" />
<line x1="550.9893029319998" y1="143.73371659074698" x2="551.2237457219334" y2="143.95767484404445" stroke="#7c4dcc" stroke-width="2" stroke-dasharray="1,3" stroke-linecap="round" opacity="0.55" />
<line x1="551.2237457219334" y1="143.95767484404445" x2="552.0243069650528" y2="145.75676435614585" stroke="#7c4dcc" stroke-width="2" stroke-dasharray="1,3" stroke-linecap="round" opacity="0.55" />
<line x1="552.0243069650528" y1="145.75676435614585" x2="552.0667325141518" y2="147.99364030514243" stroke="#7c4dcc" stroke-width="2" stroke-dasharray="1,3" stroke-linecap="round" opacity="0.55" />
<line x1="552.0667325141518" y1="147.99364030514243" x2="575.2456255507171" y2="149.19061851709566" stroke="#7c4dcc" stroke-width="2" stroke-dasharray="1,3" stroke-linecap="round" opacity="0.55" />
<line x1="575.2456255507171" y1="149.19061851709566" x2="577.4873677220671" y2="148.7728467153285" stroke="#7c4dcc" stroke-width="2" stroke-dasharray="1,3" stroke-linecap="round" opacity="0.55" />
<line x1="577.4873677220671" y1="148.7728467153285" x2="600.9011038811195" y2="149.3758394160584" stroke="#7c4dcc" stroke-width="2" stroke-dasharray="1,3" stroke-linecap="round" opacity="0.55" />
<line x1="600.9011038811195" y1="149.3758394160584" x2="614.8863010462338" y2="149.02763990267638" stroke="#7c4dcc" stroke-width="2" stroke-dasharray="1,3" stroke-linecap="round" opacity="0.55" />
<line x1="614.8863010462338" y1="149.02763990267638" x2="615.0154971782689" y2="149.9282481751825" stroke="#7c4dcc" stroke-width="2" stroke-dasharray="1,3" stroke-linecap="round" opacity="0.55" />
<line x1="615.0154971782689" y1="149.9282481751825" x2="620.2552470941371" y2="151.87077858880778" stroke="#7c4dcc" stroke-width="2" stroke-dasharray="1,3" stroke-linecap="round" opacity="0.55" />
<line x1="620.2552470941371" y1="151.87077858880778" x2="624.4192503654159" y2="151.6031386861314" stroke="#7c4dcc" stroke-width="2" stroke-dasharray="1,3" stroke-linecap="round" opacity="0.55" />
<line x1="624.4192503654159" y1="151.6031386861314" x2="626.2946665644363" y2="152.24761557177615" stroke="#7c4dcc" stroke-width="2" stroke-dasharray="1,3" stroke-linecap="round" opacity="0.55" />
<line x1="626.2946665644363" y1="152.24761557177615" x2="639.8759492982482" y2="150.1097080291971" stroke="#7c4dcc" stroke-width="2" stroke-dasharray="1,3" stroke-linecap="round" opacity="0.55" />
<line x1="639.8759492982482" y1="150.1097080291971" x2="651.9308353406255" y2="148.08715328467153" stroke="#7c4dcc" stroke-width="2" stroke-dasharray="1,3" stroke-linecap="round" opacity="0.55" />
<line x1="651.9308353406255" y1="148.08715328467153" x2="662.5756850719376" y2="147.61637469586375" stroke="#7c4dcc" stroke-width="2" stroke-dasharray="1,3" stroke-linecap="round" opacity="0.55" />
<line x1="662.5756850719376" y1="147.61637469586375" x2="663.2617240974175" y2="147.1332846715329" stroke="#7c4dcc" stroke-width="2" stroke-dasharray="1,3" stroke-linecap="round" opacity="0.55" />
<line x1="663.2617240974175" y1="147.1332846715329" x2="675.3326459838253" y2="147.60192214111925" stroke="#7c4dcc" stroke-width="2" stroke-dasharray="1,3" stroke-linecap="round" opacity="0.55" />
<line x1="675.3326459838253" y1="147.60192214111925" x2="710.4665910265427" y2="148.43160583941608" stroke="#7c4dcc" stroke-width="2" stroke-dasharray="1,3" stroke-linecap="round" opacity="0.55" />
<line x1="710.4665910265427" y1="148.43160583941608" x2="725.6844609171159" y2="147.85591240875914" stroke="#7c4dcc" stroke-width="2" stroke-dasharray="1,3" stroke-linecap="round" opacity="0.55" />
<line x1="725.6844609171159" y1="147.85591240875914" x2="725.7983662288535" y2="146.0667396593674" stroke="#7c4dcc" stroke-width="2" stroke-dasharray="1,3" stroke-linecap="round" opacity="0.55" />
<line x1="725.7983662288535" y1="146.0667396593674" x2="726.0491981142083" y2="146.41547445255475" stroke="#7c4dcc" stroke-width="2" stroke-dasharray="1,3" stroke-linecap="round" opacity="0.55" />
<line x1="726.0491981142083" y1="146.41547445255475" x2="735.6194890729342" y2="146.32072992700733" stroke="#7c4dcc" stroke-width="2" stroke-dasharray="1,3" stroke-linecap="round" opacity="0.55" />
<line x1="735.6194890729342" y1="146.32072992700733" x2="772.1320036602622" y2="148.04696686446462" stroke="#7c4dcc" stroke-width="2" stroke-dasharray="1,3" stroke-linecap="round" opacity="0.55" />
<line x1="772.1320036602622" y1="148.04696686446462" x2="774.4000000000001" y2="148.951775754734" stroke="#7c4dcc" stroke-width="2" stroke-dasharray="1,3" stroke-linecap="round" opacity="0.55" />
<line x1="60" y1="238.10476190476192" x2="69.83249194619188" y2="217.71025641025642" stroke="#2a78d6" stroke-width="2"  />
<line x1="69.83249194619188" y1="217.71025641025642" x2="80.02678893172845" y2="226.20470085470086" stroke="#2a78d6" stroke-width="2"  />
<line x1="80.02678893172845" y1="226.20470085470086" x2="82.95960125014298" y2="245.9482905982906" stroke="#2a78d6" stroke-width="2"  />
<line x1="82.95960125014298" y1="245.9482905982906" x2="83.93745417309276" y2="247.17521367521368" stroke="#2a78d6" stroke-width="2"  />
<line x1="83.93745417309276" y1="247.17521367521368" x2="98.48734308949159" y2="242.26835443037976" stroke="#2a78d6" stroke-width="2"  />
<line x1="98.48734308949159" y1="242.26835443037976" x2="104.4910516405202" y2="234.61476793248946" stroke="#2a78d6" stroke-width="2"  />
<line x1="104.4910516405202" y1="234.61476793248946" x2="108.70880961535605" y2="233.00886075949367" stroke="#2a78d6" stroke-width="2"  />
<line x1="108.70880961535605" y1="233.00886075949367" x2="123.46347391167174" y2="234.80506329113925" stroke="#2a78d6" stroke-width="2"  />
<line x1="123.46347391167174" y1="234.80506329113925" x2="126.09988462998243" y2="217.00650406504064" stroke="#2a78d6" stroke-width="2"  />
<line x1="126.09988462998243" y1="217.00650406504064" x2="127.78535515932897" y2="220.32439024390243" stroke="#2a78d6" stroke-width="2"  />
<line x1="127.78535515932897" y1="220.32439024390243" x2="130.0876254441826" y2="217.18536585365854" stroke="#2a78d6" stroke-width="2"  />
<line x1="130.0876254441826" y1="217.18536585365854" x2="131.01656474846692" y2="216.22845528455287" stroke="#2a78d6" stroke-width="2"  />
<line x1="131.01656474846692" y1="216.22845528455287" x2="131.3562116805823" y2="220.47195121951222" stroke="#2a78d6" stroke-width="2"  />
<line x1="131.3562116805823" y1="220.47195121951222" x2="132.04084997013535" y2="217.4178861788618" stroke="#2a78d6" stroke-width="2"  />
<line x1="132.04084997013535" y1="217.4178861788618" x2="132.36088945268057" y2="220.1768292682927" stroke="#2a78d6" stroke-width="2"  />
<line x1="132.36088945268057" y1="220.1768292682927" x2="142.96721566459382" y2="238.39806201550388" stroke="#2a78d6" stroke-width="2"  />
<line x1="142.96721566459382" y1="238.39806201550388" x2="143.41576788896342" y2="217.95" stroke="#2a78d6" stroke-width="2"  />
<line x1="143.41576788896342" y1="217.95" x2="143.7685401932305" y2="222.7946360153257" stroke="#2a78d6" stroke-width="2"  />
<line x1="143.7685401932305" y1="222.7946360153257" x2="156.63730802369912" y2="218.5" stroke="#2a78d6" stroke-width="2"  />
<line x1="156.63730802369912" y1="218.5" x2="168.14180357465068" y2="251.22296296296298" stroke="#2a78d6" stroke-width="2"  />
<line x1="168.14180357465068" y1="251.22296296296298" x2="178.0436152568025" y2="225.75185185185185" stroke="#2a78d6" stroke-width="2"  />
<line x1="178.0436152568025" y1="225.75185185185185" x2="184.78718459185723" y2="218.1822222222222" stroke="#2a78d6" stroke-width="2"  />
<line x1="184.78718459185723" y1="218.1822222222222" x2="205.37046259495884" y2="222.46" stroke="#2a78d6" stroke-width="2"  />
<line x1="205.37046259495884" y1="222.46" x2="205.74807149660478" y2="219.68148148148148" stroke="#2a78d6" stroke-width="2"  />
<line x1="205.74807149660478" y1="219.68148148148148" x2="231.3104929101535" y2="226.8762962962963" stroke="#2a78d6" stroke-width="2"  />
<line x1="231.3104929101535" y1="226.8762962962963" x2="242.0742428365597" y2="239.1962962962963" stroke="#2a78d6" stroke-width="2"  />
<line x1="242.0742428365597" y1="239.1962962962963" x2="242.45477676244374" y2="220.1540740740741" stroke="#2a78d6" stroke-width="2"  />
<line x1="242.45477676244374" y1="220.1540740740741" x2="251.48301715837823" y2="216.20629629629633" stroke="#2a78d6" stroke-width="2"  />
<line x1="251.48301715837823" y1="216.20629629629633" x2="292.50772703746816" y2="223.10777777777778" stroke="#2a78d6" stroke-width="2"  />
<line x1="292.50772703746816" y1="223.10777777777778" x2="293.24592286037546" y2="218.01925925925926" stroke="#2a78d6" stroke-width="2"  />
<line x1="293.24592286037546" y1="218.01925925925926" x2="293.6206041697199" y2="223.78407407407406" stroke="#2a78d6" stroke-width="2"  />
<line x1="293.6206041697199" y1="223.78407407407406" x2="294.2673809295562" y2="219.10296296296298" stroke="#2a78d6" stroke-width="2"  />
<line x1="294.2673809295562" y1="219.10296296296298" x2="300.48738005688756" y2="218.63037037037037" stroke="#2a78d6" stroke-width="2"  />
<line x1="300.48738005688756" y1="218.63037037037037" x2="303.2377448801409" y2="223.46222222222224" stroke="#2a78d6" stroke-width="2"  />
<line x1="303.2377448801409" y1="223.46222222222224" x2="329.96848163774183" y2="204.00471014492754" stroke="#2a78d6" stroke-width="2"  />
<line x1="329.96848163774183" y1="204.00471014492754" x2="352.6246564929593" y2="209.01003584229392" stroke="#2a78d6" stroke-width="2"  />
<line x1="352.6246564929593" y1="209.01003584229392" x2="352.7646530437277" y2="200.19032258064516" stroke="#2a78d6" stroke-width="2"  />
<line x1="352.7646530437277" y1="200.19032258064516" x2="354.78774687121285" y2="208.17813620071686" stroke="#2a78d6" stroke-width="2"  />
<line x1="354.78774687121285" y1="208.17813620071686" x2="355.14126705261657" y2="215.22365591397852" stroke="#2a78d6" stroke-width="2"  />
<line x1="355.14126705261657" y1="215.22365591397852" x2="356.33674879825253" y2="203.52974910394266" stroke="#2a78d6" stroke-width="2"  />
<line x1="356.33674879825253" y1="203.52974910394266" x2="380.0402050270646" y2="204.82293906810037" stroke="#2a78d6" stroke-width="2"  />
<line x1="380.0402050270646" y1="204.82293906810037" x2="380.4105223406333" y2="208.05591397849463" stroke="#2a78d6" stroke-width="2"  />
<line x1="380.4105223406333" y1="208.05591397849463" x2="380.5026359221897" y2="223.3573476702509" stroke="#2a78d6" stroke-width="2"  />
<line x1="380.5026359221897" y1="223.3573476702509" x2="380.84333604564864" y2="202.30752688172043" stroke="#2a78d6" stroke-width="2"  />
<line x1="380.84333604564864" y1="202.30752688172043" x2="399.659324162746" y2="209.27419354838707" stroke="#2a78d6" stroke-width="2"  />
<line x1="399.659324162746" y1="209.27419354838707" x2="399.7130249369711" y2="200.4820788530466" stroke="#2a78d6" stroke-width="2"  />
<line x1="399.7130249369711" y1="200.4820788530466" x2="401.1923179237722" y2="214.6204301075269" stroke="#2a78d6" stroke-width="2"  />
<line x1="401.1923179237722" y1="214.6204301075269" x2="402.073743774637" y2="195.41971326164875" stroke="#2a78d6" stroke-width="2"  />
<line x1="402.073743774637" y1="195.41971326164875" x2="402.5364828373729" y2="183.0003584229391" stroke="#2a78d6" stroke-width="2"  />
<line x1="402.5364828373729" y1="183.0003584229391" x2="402.6048124422133" y2="194.9584229390681" stroke="#2a78d6" stroke-width="2"  />
<line x1="402.6048124422133" y1="194.9584229390681" x2="403.3384910415607" y2="193.68100358422942" stroke="#2a78d6" stroke-width="2"  />
<line x1="403.3384910415607" y1="193.68100358422942" x2="404.67957256701226" y2="214.55734767025092" stroke="#2a78d6" stroke-width="2"  />
<line x1="404.67957256701226" y1="214.55734767025092" x2="404.98569628455243" y2="194.46953405017922" stroke="#2a78d6" stroke-width="2"  />
<line x1="404.98569628455243" y1="194.46953405017922" x2="405.0596893252603" y2="212.27463768115945" stroke="#2a78d6" stroke-width="2"  />
<line x1="405.0596893252603" y1="212.27463768115945" x2="406.05377554778363" y2="206.60724637681162" stroke="#2a78d6" stroke-width="2"  />
<line x1="406.05377554778363" y1="206.60724637681162" x2="406.3982181956701" y2="208.31304347826085" stroke="#2a78d6" stroke-width="2"  />
<line x1="406.3982181956701" y1="208.31304347826085" x2="414.8272823140037" y2="227.82210144927535" stroke="#2a78d6" stroke-width="2"  />
<line x1="414.8272823140037" y1="227.82210144927535" x2="424.41212591746347" y2="209.0822463768116" stroke="#2a78d6" stroke-width="2"  />
<line x1="424.41212591746347" y1="209.0822463768116" x2="428.95350239923414" y2="201.80471014492753" stroke="#2a78d6" stroke-width="2"  />
<line x1="428.95350239923414" y1="201.80471014492753" x2="429.52415519640283" y2="199.81195652173915" stroke="#2a78d6" stroke-width="2"  />
<line x1="429.52415519640283" y1="199.81195652173915" x2="429.76599400899283" y2="206.78637992831543" stroke="#2a78d6" stroke-width="2"  />
<line x1="429.76599400899283" y1="206.78637992831543" x2="429.8545057389292" y2="198.90501792114696" stroke="#2a78d6" stroke-width="2"  />
<line x1="429.8545057389292" y1="198.90501792114696" x2="429.93888688152094" y2="208.5487455197133" stroke="#2a78d6" stroke-width="2"  />
<line x1="429.93888688152094" y1="208.5487455197133" x2="440.08329324293004" y2="211.64372759856633" stroke="#2a78d6" stroke-width="2"  />
<line x1="440.08329324293004" y1="211.64372759856633" x2="441.50764821961724" y2="204.64551971326165" stroke="#2a78d6" stroke-width="2"  />
<line x1="441.50764821961724" y1="204.64551971326165" x2="465.19606101824144" y2="205.30394265232974" stroke="#2a78d6" stroke-width="2"  />
<line x1="465.19606101824144" y1="205.30394265232974" x2="465.4820248672352" y2="210.02724014336917" stroke="#2a78d6" stroke-width="2"  />
<line x1="465.4820248672352" y1="210.02724014336917" x2="469.7212387266246" y2="221.2598566308244" stroke="#2a78d6" stroke-width="2"  />
<line x1="469.7212387266246" y1="221.2598566308244" x2="478.4075386244672" y2="206.55376344086022" stroke="#2a78d6" stroke-width="2"  />
<line x1="478.4075386244672" y1="206.55376344086022" x2="479.6714735273282" y2="201.80286738351253" stroke="#2a78d6" stroke-width="2"  />
<line x1="479.6714735273282" y1="201.80286738351253" x2="525.6955474629126" y2="199.34639175257732" stroke="#2a78d6" stroke-width="2"  />
<line x1="525.6955474629126" y1="199.34639175257732" x2="525.7315702592189" y2="188.6790378006873" stroke="#2a78d6" stroke-width="2"  />
<line x1="525.7315702592189" y1="188.6790378006873" x2="526.0401242207777" y2="185.83264604810998" stroke="#2a78d6" stroke-width="2"  />
<line x1="526.0401242207777" y1="185.83264604810998" x2="526.5355170659502" y2="187.94570446735395" stroke="#2a78d6" stroke-width="2"  />
<line x1="526.5355170659502" y1="187.94570446735395" x2="550.9893029319998" y2="194.53058419243985" stroke="#2a78d6" stroke-width="2"  />
<line x1="550.9893029319998" y1="194.53058419243985" x2="551.2237457219334" y2="190.06632302405498" stroke="#2a78d6" stroke-width="2"  />
<line x1="551.2237457219334" y1="190.06632302405498" x2="552.0243069650528" y2="199.9323024054983" stroke="#2a78d6" stroke-width="2"  />
<line x1="552.0243069650528" y1="199.9323024054983" x2="552.0667325141518" y2="205.49278350515465" stroke="#2a78d6" stroke-width="2"  />
<line x1="552.0667325141518" y1="205.49278350515465" x2="575.2456255507171" y2="194.7384879725086" stroke="#2a78d6" stroke-width="2"  />
<line x1="575.2456255507171" y1="194.7384879725086" x2="577.4873677220671" y2="196.6852233676976" stroke="#2a78d6" stroke-width="2"  />
<line x1="577.4873677220671" y1="196.6852233676976" x2="600.9011038811195" y2="205.78006872852234" stroke="#2a78d6" stroke-width="2"  />
<line x1="600.9011038811195" y1="205.78006872852234" x2="614.8863010462338" y2="216.65154639175256" stroke="#2a78d6" stroke-width="2"  />
<line x1="614.8863010462338" y1="216.65154639175256" x2="615.0154971782689" y2="198.42027491408936" stroke="#2a78d6" stroke-width="2"  />
<line x1="615.0154971782689" y1="198.42027491408936" x2="620.2552470941371" y2="203.52714776632303" stroke="#2a78d6" stroke-width="2"  />
<line x1="620.2552470941371" y1="203.52714776632303" x2="624.4192503654159" y2="195.64948453608247" stroke="#2a78d6" stroke-width="2"  />
<line x1="624.4192503654159" y1="195.64948453608247" x2="626.2946665644363" y2="205.51168384879725" stroke="#2a78d6" stroke-width="2"  />
<line x1="626.2946665644363" y1="205.51168384879725" x2="639.8759492982482" y2="193.59690721649486" stroke="#2a78d6" stroke-width="2"  />
<line x1="639.8759492982482" y1="193.59690721649486" x2="651.9308353406255" y2="193.03745704467354" stroke="#2a78d6" stroke-width="2"  />
<line x1="651.9308353406255" y1="193.03745704467354" x2="662.5756850719376" y2="194.16013745704467" stroke="#2a78d6" stroke-width="2"  />
<line x1="662.5756850719376" y1="194.16013745704467" x2="663.2617240974175" y2="181.0319587628866" stroke="#2a78d6" stroke-width="2"  />
<line x1="663.2617240974175" y1="181.0319587628866" x2="675.3326459838253" y2="203.3154639175258" stroke="#2a78d6" stroke-width="2"  />
<line x1="675.3326459838253" y1="203.3154639175258" x2="710.4665910265427" y2="201.48591065292095" stroke="#2a78d6" stroke-width="2"  />
<line x1="710.4665910265427" y1="201.48591065292095" x2="725.6844609171159" y2="198.26529209621992" stroke="#2a78d6" stroke-width="2"  />
<line x1="725.6844609171159" y1="198.26529209621992" x2="725.7983662288535" y2="191.37800687285224" stroke="#2a78d6" stroke-width="2"  />
<line x1="725.7983662288535" y1="191.37800687285224" x2="726.0491981142083" y2="189.86219931271478" stroke="#2a78d6" stroke-width="2"  />
<line x1="726.0491981142083" y1="189.86219931271478" x2="735.6194890729342" y2="210.05910652920963" stroke="#2a78d6" stroke-width="2"  />
<line x1="735.6194890729342" y1="210.05910652920963" x2="772.1320036602622" y2="206.95374149659864" stroke="#2a78d6" stroke-width="2"  />
<line x1="772.1320036602622" y1="206.95374149659864" x2="774.4000000000001" y2="197.21133333333336" stroke="#2a78d6" stroke-width="2" stroke-dasharray="5,4" />
<circle cx="60" cy="238.10476190476192" r="3.5" fill="#2a78d6" />
<circle cx="69.83249194619188" cy="217.71025641025642" r="3.5" fill="#2a78d6" />
<circle cx="80.02678893172845" cy="226.20470085470086" r="3.5" fill="#2a78d6" />
<circle cx="82.95960125014298" cy="245.9482905982906" r="3.5" fill="#2a78d6" />
<circle cx="83.93745417309276" cy="247.17521367521368" r="3.5" fill="#2a78d6" />
<circle cx="98.48734308949159" cy="242.26835443037976" r="3.5" fill="#2a78d6" />
<circle cx="104.4910516405202" cy="234.61476793248946" r="3.5" fill="#2a78d6" />
<circle cx="108.70880961535605" cy="233.00886075949367" r="3.5" fill="#2a78d6" />
<circle cx="123.46347391167174" cy="234.80506329113925" r="3.5" fill="#2a78d6" />
<circle cx="126.09988462998243" cy="217.00650406504064" r="3.5" fill="#2a78d6" />
<circle cx="127.78535515932897" cy="220.32439024390243" r="3.5" fill="#2a78d6" />
<circle cx="130.0876254441826" cy="217.18536585365854" r="3.5" fill="#2a78d6" />
<circle cx="131.01656474846692" cy="216.22845528455287" r="3.5" fill="#2a78d6" />
<circle cx="131.3562116805823" cy="220.47195121951222" r="3.5" fill="#2a78d6" />
<circle cx="132.04084997013535" cy="217.4178861788618" r="3.5" fill="#2a78d6" />
<circle cx="132.36088945268057" cy="220.1768292682927" r="3.5" fill="#2a78d6" />
<circle cx="142.96721566459382" cy="238.39806201550388" r="3.5" fill="#2a78d6" />
<circle cx="143.41576788896342" cy="217.95" r="3.5" fill="#2a78d6" />
<circle cx="143.7685401932305" cy="222.7946360153257" r="3.5" fill="#2a78d6" />
<circle cx="156.63730802369912" cy="218.5" r="3.5" fill="#2a78d6" />
<circle cx="168.14180357465068" cy="251.22296296296298" r="3.5" fill="#2a78d6" />
<circle cx="178.0436152568025" cy="225.75185185185185" r="3.5" fill="#2a78d6" />
<circle cx="184.78718459185723" cy="218.1822222222222" r="3.5" fill="#2a78d6" />
<circle cx="205.37046259495884" cy="222.46" r="3.5" fill="#2a78d6" />
<circle cx="205.74807149660478" cy="219.68148148148148" r="3.5" fill="#2a78d6" />
<circle cx="231.3104929101535" cy="226.8762962962963" r="3.5" fill="#2a78d6" />
<circle cx="242.0742428365597" cy="239.1962962962963" r="3.5" fill="#2a78d6" />
<circle cx="242.45477676244374" cy="220.1540740740741" r="3.5" fill="#2a78d6" />
<circle cx="251.48301715837823" cy="216.20629629629633" r="3.5" fill="#2a78d6" />
<circle cx="292.50772703746816" cy="223.10777777777778" r="3.5" fill="#2a78d6" />
<circle cx="293.24592286037546" cy="218.01925925925926" r="3.5" fill="#2a78d6" />
<circle cx="293.6206041697199" cy="223.78407407407406" r="3.5" fill="#2a78d6" />
<circle cx="294.2673809295562" cy="219.10296296296298" r="3.5" fill="#2a78d6" />
<circle cx="300.48738005688756" cy="218.63037037037037" r="3.5" fill="#2a78d6" />
<circle cx="303.2377448801409" cy="223.46222222222224" r="3.5" fill="#2a78d6" />
<circle cx="329.96848163774183" cy="204.00471014492754" r="3.5" fill="#2a78d6" />
<circle cx="352.6246564929593" cy="209.01003584229392" r="3.5" fill="#2a78d6" />
<circle cx="352.7646530437277" cy="200.19032258064516" r="3.5" fill="#2a78d6" />
<circle cx="354.78774687121285" cy="208.17813620071686" r="3.5" fill="#2a78d6" />
<circle cx="355.14126705261657" cy="215.22365591397852" r="3.5" fill="#2a78d6" />
<circle cx="356.33674879825253" cy="203.52974910394266" r="3.5" fill="#2a78d6" />
<circle cx="380.0402050270646" cy="204.82293906810037" r="3.5" fill="#2a78d6" />
<circle cx="380.4105223406333" cy="208.05591397849463" r="3.5" fill="#2a78d6" />
<circle cx="380.5026359221897" cy="223.3573476702509" r="3.5" fill="#2a78d6" />
<circle cx="380.84333604564864" cy="202.30752688172043" r="3.5" fill="#2a78d6" />
<circle cx="399.659324162746" cy="209.27419354838707" r="3.5" fill="#2a78d6" />
<circle cx="399.7130249369711" cy="200.4820788530466" r="3.5" fill="#2a78d6" />
<circle cx="401.1923179237722" cy="214.6204301075269" r="3.5" fill="#2a78d6" />
<circle cx="402.073743774637" cy="195.41971326164875" r="3.5" fill="#2a78d6" />
<circle cx="402.5364828373729" cy="183.0003584229391" r="3.5" fill="#2a78d6" />
<circle cx="402.6048124422133" cy="194.9584229390681" r="3.5" fill="#2a78d6" />
<circle cx="403.3384910415607" cy="193.68100358422942" r="3.5" fill="#2a78d6" />
<circle cx="404.67957256701226" cy="214.55734767025092" r="3.5" fill="#2a78d6" />
<circle cx="404.98569628455243" cy="194.46953405017922" r="3.5" fill="#2a78d6" />
<circle cx="405.0596893252603" cy="212.27463768115945" r="3.5" fill="#2a78d6" />
<circle cx="406.05377554778363" cy="206.60724637681162" r="3.5" fill="#2a78d6" />
<circle cx="406.3982181956701" cy="208.31304347826085" r="3.5" fill="#2a78d6" />
<circle cx="414.8272823140037" cy="227.82210144927535" r="3.5" fill="#2a78d6" />
<circle cx="424.41212591746347" cy="209.0822463768116" r="3.5" fill="#2a78d6" />
<circle cx="428.95350239923414" cy="201.80471014492753" r="3.5" fill="#2a78d6" />
<circle cx="429.52415519640283" cy="199.81195652173915" r="3.5" fill="#2a78d6" />
<circle cx="429.76599400899283" cy="206.78637992831543" r="3.5" fill="#2a78d6" />
<circle cx="429.8545057389292" cy="198.90501792114696" r="3.5" fill="#2a78d6" />
<circle cx="429.93888688152094" cy="208.5487455197133" r="3.5" fill="#2a78d6" />
<circle cx="440.08329324293004" cy="211.64372759856633" r="3.5" fill="#2a78d6" />
<circle cx="441.50764821961724" cy="204.64551971326165" r="3.5" fill="#2a78d6" />
<circle cx="465.19606101824144" cy="205.30394265232974" r="3.5" fill="#2a78d6" />
<circle cx="465.4820248672352" cy="210.02724014336917" r="3.5" fill="#2a78d6" />
<circle cx="469.7212387266246" cy="221.2598566308244" r="3.5" fill="#2a78d6" />
<circle cx="478.4075386244672" cy="206.55376344086022" r="3.5" fill="#2a78d6" />
<circle cx="479.6714735273282" cy="201.80286738351253" r="3.5" fill="#2a78d6" />
<circle cx="525.6955474629126" cy="199.34639175257732" r="3.5" fill="#2a78d6" />
<circle cx="525.7315702592189" cy="188.6790378006873" r="3.5" fill="#2a78d6" />
<circle cx="526.0401242207777" cy="185.83264604810998" r="3.5" fill="#2a78d6" />
<circle cx="526.5355170659502" cy="187.94570446735395" r="3.5" fill="#2a78d6" />
<circle cx="550.9893029319998" cy="194.53058419243985" r="3.5" fill="#2a78d6" />
<circle cx="551.2237457219334" cy="190.06632302405498" r="3.5" fill="#2a78d6" />
<circle cx="552.0243069650528" cy="199.9323024054983" r="3.5" fill="#2a78d6" />
<circle cx="552.0667325141518" cy="205.49278350515465" r="3.5" fill="#2a78d6" />
<circle cx="575.2456255507171" cy="194.7384879725086" r="3.5" fill="#2a78d6" />
<circle cx="577.4873677220671" cy="196.6852233676976" r="3.5" fill="#2a78d6" />
<circle cx="600.9011038811195" cy="205.78006872852234" r="3.5" fill="#2a78d6" />
<circle cx="614.8863010462338" cy="216.65154639175256" r="3.5" fill="#2a78d6" />
<circle cx="615.0154971782689" cy="198.42027491408936" r="3.5" fill="#2a78d6" />
<circle cx="620.2552470941371" cy="203.52714776632303" r="3.5" fill="#2a78d6" />
<circle cx="624.4192503654159" cy="195.64948453608247" r="3.5" fill="#2a78d6" />
<circle cx="626.2946665644363" cy="205.51168384879725" r="3.5" fill="#2a78d6" />
<circle cx="639.8759492982482" cy="193.59690721649486" r="3.5" fill="#2a78d6" />
<circle cx="651.9308353406255" cy="193.03745704467354" r="3.5" fill="#2a78d6" />
<circle cx="662.5756850719376" cy="194.16013745704467" r="3.5" fill="#2a78d6" />
<circle cx="663.2617240974175" cy="181.0319587628866" r="3.5" fill="#2a78d6" />
<circle cx="675.3326459838253" cy="203.3154639175258" r="3.5" fill="#2a78d6" />
<circle cx="710.4665910265427" cy="201.48591065292095" r="3.5" fill="#2a78d6" />
<circle cx="725.6844609171159" cy="198.26529209621992" r="3.5" fill="#2a78d6" />
<circle cx="725.7983662288535" cy="191.37800687285224" r="3.5" fill="#2a78d6" />
<circle cx="726.0491981142083" cy="189.86219931271478" r="3.5" fill="#2a78d6" />
<circle cx="735.6194890729342" cy="210.05910652920963" r="3.5" fill="#2a78d6" />
<circle cx="772.1320036602622" cy="206.95374149659864" r="3.5" fill="#2a78d6" />
<circle cx="774.4000000000001" cy="197.21133333333336" r="4.5" fill="#fcfcfb" stroke="#2a78d6" stroke-width="2" />
<line x1="60" y1="228.79518518518518" x2="69.83249194619188" y2="207.20586080586082" stroke="#7c4dcc" stroke-width="2"  />
<line x1="69.83249194619188" y1="207.20586080586082" x2="80.02678893172845" y2="212.29890109890113" stroke="#7c4dcc" stroke-width="2"  />
<line x1="80.02678893172845" y1="212.29890109890113" x2="82.95960125014298" y2="207.95934065934068" stroke="#7c4dcc" stroke-width="2"  />
<line x1="82.95960125014298" y1="207.95934065934068" x2="83.93745417309276" y2="203.4062271062271" stroke="#7c4dcc" stroke-width="2"  />
<line x1="83.93745417309276" y1="203.4062271062271" x2="98.48734308949159" y2="175.80693069306932" stroke="#7c4dcc" stroke-width="2"  />
<line x1="98.48734308949159" y1="175.80693069306932" x2="104.4910516405202" y2="171.43960396039603" stroke="#7c4dcc" stroke-width="2"  />
<line x1="104.4910516405202" y1="171.43960396039603" x2="108.70880961535605" y2="178.4752475247525" stroke="#7c4dcc" stroke-width="2"  />
<line x1="108.70880961535605" y1="178.4752475247525" x2="123.46347391167174" y2="175.65082508250828" stroke="#7c4dcc" stroke-width="2"  />
<line x1="123.46347391167174" y1="175.65082508250828" x2="126.09988462998243" y2="177.08429487179487" stroke="#7c4dcc" stroke-width="2"  />
<line x1="126.09988462998243" y1="177.08429487179487" x2="127.78535515932897" y2="177.36282051282052" stroke="#7c4dcc" stroke-width="2"  />
<line x1="127.78535515932897" y1="177.36282051282052" x2="130.0876254441826" y2="175.03589743589745" stroke="#7c4dcc" stroke-width="2"  />
<line x1="130.0876254441826" y1="175.03589743589745" x2="131.01656474846692" y2="173.66089743589745" stroke="#7c4dcc" stroke-width="2"  />
<line x1="131.01656474846692" y1="173.66089743589745" x2="131.3562116805823" y2="173.6115384615385" stroke="#7c4dcc" stroke-width="2"  />
<line x1="131.3562116805823" y1="173.6115384615385" x2="132.04084997013535" y2="171.25993589743592" stroke="#7c4dcc" stroke-width="2"  />
<line x1="132.04084997013535" y1="171.25993589743592" x2="132.36088945268057" y2="176.76346153846154" stroke="#7c4dcc" stroke-width="2"  />
<line x1="132.36088945268057" y1="176.76346153846154" x2="142.96721566459382" y2="201.5382716049383" stroke="#7c4dcc" stroke-width="2"  />
<line x1="142.96721566459382" y1="201.5382716049383" x2="143.41576788896342" y2="168.304012345679" stroke="#7c4dcc" stroke-width="2"  />
<line x1="143.41576788896342" y1="168.304012345679" x2="143.7685401932305" y2="177.24831804281348" stroke="#7c4dcc" stroke-width="2"  />
<line x1="143.7685401932305" y1="177.24831804281348" x2="156.63730802369912" y2="176.39388379204894" stroke="#7c4dcc" stroke-width="2"  />
<line x1="156.63730802369912" y1="176.39388379204894" x2="168.14180357465068" y2="211.2321428571429" stroke="#7c4dcc" stroke-width="2"  />
<line x1="168.14180357465068" y1="211.2321428571429" x2="178.0436152568025" y2="177.54136904761904" stroke="#7c4dcc" stroke-width="2"  />
<line x1="178.0436152568025" y1="177.54136904761904" x2="184.78718459185723" y2="167.8873563218391" stroke="#7c4dcc" stroke-width="2"  />
<line x1="184.78718459185723" y1="167.8873563218391" x2="205.37046259495884" y2="167.88103448275862" stroke="#7c4dcc" stroke-width="2"  />
<line x1="205.37046259495884" y1="167.88103448275862" x2="205.74807149660478" y2="172.33793103448278" stroke="#7c4dcc" stroke-width="2"  />
<line x1="205.74807149660478" y1="172.33793103448278" x2="231.3104929101535" y2="172.44224137931033" stroke="#7c4dcc" stroke-width="2"  />
<line x1="231.3104929101535" y1="172.44224137931033" x2="242.0742428365597" y2="192.54568965517242" stroke="#7c4dcc" stroke-width="2"  />
<line x1="242.0742428365597" y1="192.54568965517242" x2="242.45477676244374" y2="167.5301724137931" stroke="#7c4dcc" stroke-width="2"  />
<line x1="242.45477676244374" y1="167.5301724137931" x2="251.48301715837823" y2="165.04568965517242" stroke="#7c4dcc" stroke-width="2"  />
<line x1="251.48301715837823" y1="165.04568965517242" x2="292.50772703746816" y2="165.05517241379312" stroke="#7c4dcc" stroke-width="2"  />
<line x1="292.50772703746816" y1="165.05517241379312" x2="293.24592286037546" y2="170.0146551724138" stroke="#7c4dcc" stroke-width="2"  />
<line x1="293.24592286037546" y1="170.0146551724138" x2="293.6206041697199" y2="166.17097701149427" stroke="#7c4dcc" stroke-width="2"  />
<line x1="293.6206041697199" y1="166.17097701149427" x2="294.2673809295562" y2="163.183908045977" stroke="#7c4dcc" stroke-width="2"  />
<line x1="294.2673809295562" y1="163.183908045977" x2="300.48738005688756" y2="159.99454022988508" stroke="#7c4dcc" stroke-width="2"  />
<line x1="300.48738005688756" y1="159.99454022988508" x2="303.2377448801409" y2="166.1962643678161" stroke="#7c4dcc" stroke-width="2"  />
<line x1="303.2377448801409" y1="166.1962643678161" x2="329.96848163774183" y2="149.02794871794873" stroke="#7c4dcc" stroke-width="2"  />
<line x1="329.96848163774183" y1="149.02794871794873" x2="352.6246564929593" y2="145.81323155216288" stroke="#7c4dcc" stroke-width="2"  />
<line x1="352.6246564929593" y1="145.81323155216288" x2="352.7646530437277" y2="146.18269720101782" stroke="#7c4dcc" stroke-width="2"  />
<line x1="352.7646530437277" y1="146.18269720101782" x2="354.78774687121285" y2="147.3554707379135" stroke="#7c4dcc" stroke-width="2"  />
<line x1="354.78774687121285" y1="147.3554707379135" x2="355.14126705261657" y2="164.31450381679392" stroke="#7c4dcc" stroke-width="2"  />
<line x1="355.14126705261657" y1="164.31450381679392" x2="356.33674879825253" y2="143.91552162849874" stroke="#7c4dcc" stroke-width="2"  />
<line x1="356.33674879825253" y1="143.91552162849874" x2="380.0402050270646" y2="143.96870229007635" stroke="#7c4dcc" stroke-width="2"  />
<line x1="380.0402050270646" y1="143.96870229007635" x2="380.4105223406333" y2="146.37582697201017" stroke="#7c4dcc" stroke-width="2"  />
<line x1="380.4105223406333" y1="146.37582697201017" x2="380.5026359221897" y2="147.4058524173028" stroke="#7c4dcc" stroke-width="2"  />
<line x1="380.5026359221897" y1="147.4058524173028" x2="380.84333604564864" y2="140.88982188295165" stroke="#7c4dcc" stroke-width="2"  />
<line x1="380.84333604564864" y1="140.88982188295165" x2="399.659324162746" y2="146.29185750636134" stroke="#7c4dcc" stroke-width="2"  />
<line x1="399.659324162746" y1="146.29185750636134" x2="399.7130249369711" y2="144.81959287531808" stroke="#7c4dcc" stroke-width="2"  />
<line x1="399.7130249369711" y1="144.81959287531808" x2="401.1923179237722" y2="155.1730279898219" stroke="#7c4dcc" stroke-width="2"  />
<line x1="401.1923179237722" y1="155.1730279898219" x2="402.073743774637" y2="142.2527777777778" stroke="#7c4dcc" stroke-width="2"  />
<line x1="402.073743774637" y1="142.2527777777778" x2="402.5364828373729" y2="135.28055555555557" stroke="#7c4dcc" stroke-width="2"  />
<line x1="402.5364828373729" y1="135.28055555555557" x2="402.6048124422133" y2="151.00000000000003" stroke="#7c4dcc" stroke-width="2"  />
<line x1="402.6048124422133" y1="151.00000000000003" x2="403.3384910415607" y2="139.92777777777778" stroke="#7c4dcc" stroke-width="2"  />
<line x1="403.3384910415607" y1="139.92777777777778" x2="404.67957256701226" y2="155.86111111111114" stroke="#7c4dcc" stroke-width="2"  />
<line x1="404.67957256701226" y1="155.86111111111114" x2="404.98569628455243" y2="145.19722222222222" stroke="#7c4dcc" stroke-width="2"  />
<line x1="404.98569628455243" y1="145.19722222222222" x2="405.0596893252603" y2="148.57500000000002" stroke="#7c4dcc" stroke-width="2"  />
<line x1="405.0596893252603" y1="148.57500000000002" x2="406.05377554778363" y2="139.8527777777778" stroke="#7c4dcc" stroke-width="2"  />
<line x1="406.05377554778363" y1="139.8527777777778" x2="406.3982181956701" y2="149.43333333333334" stroke="#7c4dcc" stroke-width="2"  />
<line x1="406.3982181956701" y1="149.43333333333334" x2="414.8272823140037" y2="148.3138888888889" stroke="#7c4dcc" stroke-width="2"  />
<line x1="414.8272823140037" y1="148.3138888888889" x2="424.41212591746347" y2="144.38055555555556" stroke="#7c4dcc" stroke-width="2"  />
<line x1="424.41212591746347" y1="144.38055555555556" x2="428.95350239923414" y2="139.51111111111112" stroke="#7c4dcc" stroke-width="2"  />
<line x1="428.95350239923414" y1="139.51111111111112" x2="429.52415519640283" y2="140.48333333333335" stroke="#7c4dcc" stroke-width="2"  />
<line x1="429.52415519640283" y1="140.48333333333335" x2="429.76599400899283" y2="144.43609022556393" stroke="#7c4dcc" stroke-width="2"  />
<line x1="429.76599400899283" y1="144.43609022556393" x2="429.8545057389292" y2="141.54135338345867" stroke="#7c4dcc" stroke-width="2"  />
<line x1="429.8545057389292" y1="141.54135338345867" x2="429.93888688152094" y2="141.99072681704263" stroke="#7c4dcc" stroke-width="2"  />
<line x1="429.93888688152094" y1="141.99072681704263" x2="440.08329324293004" y2="142.9859649122807" stroke="#7c4dcc" stroke-width="2"  />
<line x1="440.08329324293004" y1="142.9859649122807" x2="441.50764821961724" y2="136.87393483709275" stroke="#7c4dcc" stroke-width="2"  />
<line x1="441.50764821961724" y1="136.87393483709275" x2="465.19606101824144" y2="139.6859649122807" stroke="#7c4dcc" stroke-width="2"  />
<line x1="465.19606101824144" y1="139.6859649122807" x2="465.4820248672352" y2="142.50350877192983" stroke="#7c4dcc" stroke-width="2"  />
<line x1="465.4820248672352" y1="142.50350877192983" x2="469.7212387266246" y2="140.32832080200504" stroke="#7c4dcc" stroke-width="2"  />
<line x1="469.7212387266246" y1="140.32832080200504" x2="478.4075386244672" y2="134.3182957393484" stroke="#7c4dcc" stroke-width="2"  />
<line x1="478.4075386244672" y1="134.3182957393484" x2="479.6714735273282" y2="152.0368421052632" stroke="#7c4dcc" stroke-width="2"  />
<line x1="479.6714735273282" y1="152.0368421052632" x2="525.6955474629126" y2="151.8549878345499" stroke="#7c4dcc" stroke-width="2"  />
<line x1="525.6955474629126" y1="151.8549878345499" x2="525.7315702592189" y2="148.4639902676399" stroke="#7c4dcc" stroke-width="2"  />
<line x1="525.7315702592189" y1="148.4639902676399" x2="526.0401242207777" y2="141.5535279805353" stroke="#7c4dcc" stroke-width="2"  />
<line x1="526.0401242207777" y1="141.5535279805353" x2="526.5355170659502" y2="140.45085158150852" stroke="#7c4dcc" stroke-width="2"  />
<line x1="526.5355170659502" y1="140.45085158150852" x2="550.9893029319998" y2="146.14087591240877" stroke="#7c4dcc" stroke-width="2"  />
<line x1="550.9893029319998" y1="146.14087591240877" x2="551.2237457219334" y2="141.9255474452555" stroke="#7c4dcc" stroke-width="2"  />
<line x1="551.2237457219334" y1="141.9255474452555" x2="552.0243069650528" y2="160.49440389294406" stroke="#7c4dcc" stroke-width="2"  />
<line x1="552.0243069650528" y1="160.49440389294406" x2="552.0667325141518" y2="162.69708029197082" stroke="#7c4dcc" stroke-width="2"  />
<line x1="552.0667325141518" y1="162.69708029197082" x2="575.2456255507171" y2="146.2880778588808" stroke="#7c4dcc" stroke-width="2"  />
<line x1="575.2456255507171" y1="146.2880778588808" x2="577.4873677220671" y2="147.85912408759125" stroke="#7c4dcc" stroke-width="2"  />
<line x1="577.4873677220671" y1="147.85912408759125" x2="600.9011038811195" y2="157.88491484184914" stroke="#7c4dcc" stroke-width="2"  />
<line x1="600.9011038811195" y1="157.88491484184914" x2="614.8863010462338" y2="144.98199513381996" stroke="#7c4dcc" stroke-width="2"  />
<line x1="614.8863010462338" y1="144.98199513381996" x2="615.0154971782689" y2="150.55961070559613" stroke="#7c4dcc" stroke-width="2"  />
<line x1="615.0154971782689" y1="150.55961070559613" x2="620.2552470941371" y2="159.87615571776155" stroke="#7c4dcc" stroke-width="2"  />
<line x1="620.2552470941371" y1="159.87615571776155" x2="624.4192503654159" y2="143.46447688564479" stroke="#7c4dcc" stroke-width="2"  />
<line x1="624.4192503654159" y1="143.46447688564479" x2="626.2946665644363" y2="148.37031630170318" stroke="#7c4dcc" stroke-width="2"  />
<line x1="626.2946665644363" y1="148.37031630170318" x2="639.8759492982482" y2="139.1153284671533" stroke="#7c4dcc" stroke-width="2"  />
<line x1="639.8759492982482" y1="139.1153284671533" x2="651.9308353406255" y2="142.47153284671535" stroke="#7c4dcc" stroke-width="2"  />
<line x1="651.9308353406255" y1="142.47153284671535" x2="662.5756850719376" y2="141.58029197080293" stroke="#7c4dcc" stroke-width="2"  />
<line x1="662.5756850719376" y1="141.58029197080293" x2="663.2617240974175" y2="143.02822384428225" stroke="#7c4dcc" stroke-width="2"  />
<line x1="663.2617240974175" y1="143.02822384428225" x2="675.3326459838253" y2="162.57128953771291" stroke="#7c4dcc" stroke-width="2"  />
<line x1="675.3326459838253" y1="162.57128953771291" x2="710.4665910265427" y2="153.27883211678832" stroke="#7c4dcc" stroke-width="2"  />
<line x1="710.4665910265427" y1="153.27883211678832" x2="725.6844609171159" y2="144.80267639902678" stroke="#7c4dcc" stroke-width="2"  />
<line x1="725.6844609171159" y1="144.80267639902678" x2="725.7983662288535" y2="141.9844282238443" stroke="#7c4dcc" stroke-width="2"  />
<line x1="725.7983662288535" y1="141.9844282238443" x2="726.0491981142083" y2="146.95182481751826" stroke="#7c4dcc" stroke-width="2"  />
<line x1="726.0491981142083" y1="146.95182481751826" x2="735.6194890729342" y2="147.42287104622872" stroke="#7c4dcc" stroke-width="2"  />
<line x1="735.6194890729342" y1="147.42287104622872" x2="772.1320036602622" y2="156.37769784172664" stroke="#7c4dcc" stroke-width="2"  />
<line x1="772.1320036602622" y1="156.37769784172664" x2="774.4000000000001" y2="151.519621749409" stroke="#7c4dcc" stroke-width="2" stroke-dasharray="5,4" />
<circle cx="60" cy="228.79518518518518" r="3.5" fill="#7c4dcc" />
<circle cx="69.83249194619188" cy="207.20586080586082" r="3.5" fill="#7c4dcc" />
<circle cx="80.02678893172845" cy="212.29890109890113" r="3.5" fill="#7c4dcc" />
<circle cx="82.95960125014298" cy="207.95934065934068" r="3.5" fill="#7c4dcc" />
<circle cx="83.93745417309276" cy="203.4062271062271" r="3.5" fill="#7c4dcc" />
<circle cx="98.48734308949159" cy="175.80693069306932" r="3.5" fill="#7c4dcc" />
<circle cx="104.4910516405202" cy="171.43960396039603" r="3.5" fill="#7c4dcc" />
<circle cx="108.70880961535605" cy="178.4752475247525" r="3.5" fill="#7c4dcc" />
<circle cx="123.46347391167174" cy="175.65082508250828" r="3.5" fill="#7c4dcc" />
<circle cx="126.09988462998243" cy="177.08429487179487" r="3.5" fill="#7c4dcc" />
<circle cx="127.78535515932897" cy="177.36282051282052" r="3.5" fill="#7c4dcc" />
<circle cx="130.0876254441826" cy="175.03589743589745" r="3.5" fill="#7c4dcc" />
<circle cx="131.01656474846692" cy="173.66089743589745" r="3.5" fill="#7c4dcc" />
<circle cx="131.3562116805823" cy="173.6115384615385" r="3.5" fill="#7c4dcc" />
<circle cx="132.04084997013535" cy="171.25993589743592" r="3.5" fill="#7c4dcc" />
<circle cx="132.36088945268057" cy="176.76346153846154" r="3.5" fill="#7c4dcc" />
<circle cx="142.96721566459382" cy="201.5382716049383" r="3.5" fill="#7c4dcc" />
<circle cx="143.41576788896342" cy="168.304012345679" r="3.5" fill="#7c4dcc" />
<circle cx="143.7685401932305" cy="177.24831804281348" r="3.5" fill="#7c4dcc" />
<circle cx="156.63730802369912" cy="176.39388379204894" r="3.5" fill="#7c4dcc" />
<circle cx="168.14180357465068" cy="211.2321428571429" r="3.5" fill="#7c4dcc" />
<circle cx="178.0436152568025" cy="177.54136904761904" r="3.5" fill="#7c4dcc" />
<circle cx="184.78718459185723" cy="167.8873563218391" r="3.5" fill="#7c4dcc" />
<circle cx="205.37046259495884" cy="167.88103448275862" r="3.5" fill="#7c4dcc" />
<circle cx="205.74807149660478" cy="172.33793103448278" r="3.5" fill="#7c4dcc" />
<circle cx="231.3104929101535" cy="172.44224137931033" r="3.5" fill="#7c4dcc" />
<circle cx="242.0742428365597" cy="192.54568965517242" r="3.5" fill="#7c4dcc" />
<circle cx="242.45477676244374" cy="167.5301724137931" r="3.5" fill="#7c4dcc" />
<circle cx="251.48301715837823" cy="165.04568965517242" r="3.5" fill="#7c4dcc" />
<circle cx="292.50772703746816" cy="165.05517241379312" r="3.5" fill="#7c4dcc" />
<circle cx="293.24592286037546" cy="170.0146551724138" r="3.5" fill="#7c4dcc" />
<circle cx="293.6206041697199" cy="166.17097701149427" r="3.5" fill="#7c4dcc" />
<circle cx="294.2673809295562" cy="163.183908045977" r="3.5" fill="#7c4dcc" />
<circle cx="300.48738005688756" cy="159.99454022988508" r="3.5" fill="#7c4dcc" />
<circle cx="303.2377448801409" cy="166.1962643678161" r="3.5" fill="#7c4dcc" />
<circle cx="329.96848163774183" cy="149.02794871794873" r="3.5" fill="#7c4dcc" />
<circle cx="352.6246564929593" cy="145.81323155216288" r="3.5" fill="#7c4dcc" />
<circle cx="352.7646530437277" cy="146.18269720101782" r="3.5" fill="#7c4dcc" />
<circle cx="354.78774687121285" cy="147.3554707379135" r="3.5" fill="#7c4dcc" />
<circle cx="355.14126705261657" cy="164.31450381679392" r="3.5" fill="#7c4dcc" />
<circle cx="356.33674879825253" cy="143.91552162849874" r="3.5" fill="#7c4dcc" />
<circle cx="380.0402050270646" cy="143.96870229007635" r="3.5" fill="#7c4dcc" />
<circle cx="380.4105223406333" cy="146.37582697201017" r="3.5" fill="#7c4dcc" />
<circle cx="380.5026359221897" cy="147.4058524173028" r="3.5" fill="#7c4dcc" />
<circle cx="380.84333604564864" cy="140.88982188295165" r="3.5" fill="#7c4dcc" />
<circle cx="399.659324162746" cy="146.29185750636134" r="3.5" fill="#7c4dcc" />
<circle cx="399.7130249369711" cy="144.81959287531808" r="3.5" fill="#7c4dcc" />
<circle cx="401.1923179237722" cy="155.1730279898219" r="3.5" fill="#7c4dcc" />
<circle cx="402.073743774637" cy="142.2527777777778" r="3.5" fill="#7c4dcc" />
<circle cx="402.5364828373729" cy="135.28055555555557" r="3.5" fill="#7c4dcc" />
<circle cx="402.6048124422133" cy="151.00000000000003" r="3.5" fill="#7c4dcc" />
<circle cx="403.3384910415607" cy="139.92777777777778" r="3.5" fill="#7c4dcc" />
<circle cx="404.67957256701226" cy="155.86111111111114" r="3.5" fill="#7c4dcc" />
<circle cx="404.98569628455243" cy="145.19722222222222" r="3.5" fill="#7c4dcc" />
<circle cx="405.0596893252603" cy="148.57500000000002" r="3.5" fill="#7c4dcc" />
<circle cx="406.05377554778363" cy="139.8527777777778" r="3.5" fill="#7c4dcc" />
<circle cx="406.3982181956701" cy="149.43333333333334" r="3.5" fill="#7c4dcc" />
<circle cx="414.8272823140037" cy="148.3138888888889" r="3.5" fill="#7c4dcc" />
<circle cx="424.41212591746347" cy="144.38055555555556" r="3.5" fill="#7c4dcc" />
<circle cx="428.95350239923414" cy="139.51111111111112" r="3.5" fill="#7c4dcc" />
<circle cx="429.52415519640283" cy="140.48333333333335" r="3.5" fill="#7c4dcc" />
<circle cx="429.76599400899283" cy="144.43609022556393" r="3.5" fill="#7c4dcc" />
<circle cx="429.8545057389292" cy="141.54135338345867" r="3.5" fill="#7c4dcc" />
<circle cx="429.93888688152094" cy="141.99072681704263" r="3.5" fill="#7c4dcc" />
<circle cx="440.08329324293004" cy="142.9859649122807" r="3.5" fill="#7c4dcc" />
<circle cx="441.50764821961724" cy="136.87393483709275" r="3.5" fill="#7c4dcc" />
<circle cx="465.19606101824144" cy="139.6859649122807" r="3.5" fill="#7c4dcc" />
<circle cx="465.4820248672352" cy="142.50350877192983" r="3.5" fill="#7c4dcc" />
<circle cx="469.7212387266246" cy="140.32832080200504" r="3.5" fill="#7c4dcc" />
<circle cx="478.4075386244672" cy="134.3182957393484" r="3.5" fill="#7c4dcc" />
<circle cx="479.6714735273282" cy="152.0368421052632" r="3.5" fill="#7c4dcc" />
<circle cx="525.6955474629126" cy="151.8549878345499" r="3.5" fill="#7c4dcc" />
<circle cx="525.7315702592189" cy="148.4639902676399" r="3.5" fill="#7c4dcc" />
<circle cx="526.0401242207777" cy="141.5535279805353" r="3.5" fill="#7c4dcc" />
<circle cx="526.5355170659502" cy="140.45085158150852" r="3.5" fill="#7c4dcc" />
<circle cx="550.9893029319998" cy="146.14087591240877" r="3.5" fill="#7c4dcc" />
<circle cx="551.2237457219334" cy="141.9255474452555" r="3.5" fill="#7c4dcc" />
<circle cx="552.0243069650528" cy="160.49440389294406" r="3.5" fill="#7c4dcc" />
<circle cx="552.0667325141518" cy="162.69708029197082" r="3.5" fill="#7c4dcc" />
<circle cx="575.2456255507171" cy="146.2880778588808" r="3.5" fill="#7c4dcc" />
<circle cx="577.4873677220671" cy="147.85912408759125" r="3.5" fill="#7c4dcc" />
<circle cx="600.9011038811195" cy="157.88491484184914" r="3.5" fill="#7c4dcc" />
<circle cx="614.8863010462338" cy="144.98199513381996" r="3.5" fill="#7c4dcc" />
<circle cx="615.0154971782689" cy="150.55961070559613" r="3.5" fill="#7c4dcc" />
<circle cx="620.2552470941371" cy="159.87615571776155" r="3.5" fill="#7c4dcc" />
<circle cx="624.4192503654159" cy="143.46447688564479" r="3.5" fill="#7c4dcc" />
<circle cx="626.2946665644363" cy="148.37031630170318" r="3.5" fill="#7c4dcc" />
<circle cx="639.8759492982482" cy="139.1153284671533" r="3.5" fill="#7c4dcc" />
<circle cx="651.9308353406255" cy="142.47153284671535" r="3.5" fill="#7c4dcc" />
<circle cx="662.5756850719376" cy="141.58029197080293" r="3.5" fill="#7c4dcc" />
<circle cx="663.2617240974175" cy="143.02822384428225" r="3.5" fill="#7c4dcc" />
<circle cx="675.3326459838253" cy="162.57128953771291" r="3.5" fill="#7c4dcc" />
<circle cx="710.4665910265427" cy="153.27883211678832" r="3.5" fill="#7c4dcc" />
<circle cx="725.6844609171159" cy="144.80267639902678" r="3.5" fill="#7c4dcc" />
<circle cx="725.7983662288535" cy="141.9844282238443" r="3.5" fill="#7c4dcc" />
<circle cx="726.0491981142083" cy="146.95182481751826" r="3.5" fill="#7c4dcc" />
<circle cx="735.6194890729342" cy="147.42287104622872" r="3.5" fill="#7c4dcc" />
<circle cx="772.1320036602622" cy="156.37769784172664" r="3.5" fill="#7c4dcc" />
<circle cx="774.4000000000001" cy="151.519621749409" r="4.5" fill="#fcfcfb" stroke="#7c4dcc" stroke-width="2" />
  <line x1="60" y1="312" x2="60" y2="317" stroke="#c3c2b7" stroke-width="1" />
<text x="60" y="328" font-size="10" text-anchor="middle" fill="#52514e" font-family="system-ui, -apple-system, sans-serif">Aug</text>
<line x1="499.57988985832566" y1="312" x2="499.57988985832566" y2="317" stroke="#c3c2b7" stroke-width="1" />
<text x="499.57988985832566" y="328" font-size="10" text-anchor="middle" fill="#52514e" font-family="system-ui, -apple-system, sans-serif">Sep</text>
  <text x="483.6714735273282" y="86" font-size="10" fill="#52514e" font-family="system-ui, -apple-system, sans-serif">Backend coverage instrumentation introduced</text>
</svg>