<svg xmlns="http://www.w3.org/2000/svg" width="2000" height="500" viewBox="0 0 2000 500" font-family="system-ui, -apple-system, sans-serif">
  <rect x="0" y="0" width="2000" height="500" fill="#fcfcfb" />
  <text x="24" y="34" font-size="18" font-weight="600" fill="#0b0b0b">CI workflow duration — per master push</text>
  <rect x="24" y="52" width="14" height="14" rx="2" fill="#2a78d6" />
<text x="44" y="63" font-size="12" fill="#52514e" font-family="system-ui, -apple-system, sans-serif">CI duration (min)</text>
<rect x="192.39999999999998" y="52" width="14" height="14" rx="2" fill="#2a78d6" opacity="0.55" />
<text x="212.39999999999998" y="63" font-size="12" fill="#52514e" font-family="system-ui, -apple-system, sans-serif">CI duration (min) (10-run avg)</text>
  <text x="48" y="82" font-size="14" font-weight="600" fill="#0b0b0b" font-family="system-ui, -apple-system, sans-serif">CI workflow duration per master push (minutes) — dashed segment is this run (so far), not yet merged</text>
<line x1="60" y1="472" x2="1976" y2="472" stroke="#e1e0d9" stroke-width="1" />
<text x="50" y="476" font-size="11" text-anchor="end" fill="#898781" font-family="system-ui, -apple-system, sans-serif">0</text>
<line x1="60" y1="437.45454545454544" x2="1976" y2="437.45454545454544" stroke="#e1e0d9" stroke-width="1" />
<text x="50" y="441.45454545454544" font-size="11" text-anchor="end" fill="#898781" font-family="system-ui, -apple-system, sans-serif">5</text>
<line x1="60" y1="402.9090909090909" x2="1976" y2="402.9090909090909" stroke="#e1e0d9" stroke-width="1" />
<text x="50" y="406.9090909090909" font-size="11" text-anchor="end" fill="#898781" font-family="system-ui, -apple-system, sans-serif">10</text>
<line x1="60" y1="368.3636363636364" x2="1976" y2="368.3636363636364" stroke="#e1e0d9" stroke-width="1" />
<text x="50" y="372.3636363636364" font-size="11" text-anchor="end" fill="#898781" font-family="system-ui, -apple-system, sans-serif">15</text>
<line x1="60" y1="333.8181818181818" x2="1976" y2="333.8181818181818" stroke="#e1e0d9" stroke-width="1" />
<text x="50" y="337.8181818181818" font-size="11" text-anchor="end" fill="#898781" font-family="system-ui, -apple-system, sans-serif">20</text>
<line x1="60" y1="299.27272727272725" x2="1976" y2="299.27272727272725" stroke="#e1e0d9" stroke-width="1" />
<text x="50" y="303.27272727272725" font-size="11" text-anchor="end" fill="#898781" font-family="system-ui, -apple-system, sans-serif">25</text>
<line x1="60" y1="264.72727272727275" x2="1976" y2="264.72727272727275" stroke="#e1e0d9" stroke-width="1" />
<text x="50" y="268.72727272727275" font-size="11" text-anchor="end" fill="#898781" font-family="system-ui, -apple-system, sans-serif">30</text>
<line x1="60" y1="230.1818181818182" x2="1976" y2="230.1818181818182" stroke="#e1e0d9" stroke-width="1" />
<text x="50" y="234.1818181818182" font-size="11" text-anchor="end" fill="#898781" font-family="system-ui, -apple-system, sans-serif">35</text>
<line x1="60" y1="195.63636363636363" x2="1976" y2="195.63636363636363" stroke="#e1e0d9" stroke-width="1" />
<text x="50" y="199.63636363636363" font-size="11" text-anchor="end" fill="#898781" font-family="system-ui, -apple-system, sans-serif">40</text>
<line x1="60" y1="161.09090909090907" x2="1976" y2="161.09090909090907" stroke="#e1e0d9" stroke-width="1" />
<text x="50" y="165.09090909090907" font-size="11" text-anchor="end" fill="#898781" font-family="system-ui, -apple-system, sans-serif">45</text>
<line x1="60" y1="126.54545454545456" x2="1976" y2="126.54545454545456" stroke="#e1e0d9" stroke-width="1" />
<text x="50" y="130.54545454545456" font-size="11" text-anchor="end" fill="#898781" font-family="system-ui, -apple-system, sans-serif">50</text>
<line x1="60" y1="92" x2="1976" y2="92" stroke="#e1e0d9" stroke-width="1" />
<text x="50" y="96" font-size="11" text-anchor="end" fill="#898781" font-family="system-ui, -apple-system, sans-serif">55</text>
<line x1="60" y1="472" x2="1976" y2="472" stroke="#c3c2b7" stroke-width="1.5" />
<path d="M 60 465.55151515151516 Q 60.04723043285233 465.1484848484848 60.162785317499946 465.2924242424242 Q 60.27834020214756 465.43636363636364 60.318847441711306 465.36439393939395 Q 60.35935468127505 465.29242424242426 60.36960755104015 465.1801515151515 Q 60.379860420805244 465.0678787878788 60.41608162464752 465.1369696969697 Q 60.452302828489785 465.2060606060606 60.46171529909381 465.15670995670996 Q 60.47112776969784 465.10735930735933 64.07744864969668 465.1711038961039 Q 67.68376952969551 465.2348484848485 69.88216969514782 465.1820707070707 Q 72.08056986060014 465.12929292929294 72.37739884429132 465.1388888888889 Q 72.67422782798249 465.1484848484848 72.83642486606969 465.14272727272726 Q 72.99862190415689 465.1369696969697 73.01425332855285 465.050606060606 Q 73.02988475294883 464.9642424242424 73.22872319445884 464.7512121212121 Q 73.42756163596883 464.53818181818184 73.50403795962652 464.4 Q 73.58051428328422 464.26181818181817 74.24014358481085 464.07757575757574 Q 74.89977288633749 463.8933333333333 75.21626721039779 463.62848484848485 Q 75.53276153445809 463.3636363636364 78.98629784697376 463.2830303030303 Q 82.43983415948942 463.20242424242423 82.48008927930485 462.93757575757576 Q 82.52034439912026 462.6727272727273 82.73817586167053 454.3127272727273 Q 82.9560073242208 445.95272727272726 83.51504084616693 446.07363636363635 Q 84.07407436811306 446.19454545454545 84.44569887713979 446.2924242424242 Q 84.8173233861665 446.390303030303 84.8618645417034 446.200303030303 Q 84.9064056972403 446.010303030303 85.52258636213944 445.9412121212121 Q 86.13876702703857 445.8721212121212 86.22969821626673 445.81454545454545 Q 86.32062940549488 445.7569696969697 86.42030074599822 445.50939393939393 Q 86.51997208650154 445.26181818181817 86.8086491983303 445.38272727272727 Q 87.09732631015906 445.50363636363636 87.46273186539383 445.1581818181818 Q 87.82813742062862 444.8127272727273 88.9875521032457 444.48454545454547 Q 90.14696678586279 444.1563636363636 92.82943686809347 451.93484848484843 Q 95.51190695032415 459.7133333333333 95.66132992116303 458.99939393939394 Q 95.8107528920019 458.28545454545457 95.81596336680056 457.4909090909091 Q 95.8211738415992 456.6963636363636 95.98320279985418 456.4430303030303 Q 96.14523175810918 456.18969696969697 100.04174246842672 455.8787878787879 Q 103.93825317874425 455.5678787878788 116.41313832572011 454.02484848484846 Q 128.88802347269598 452.4818181818182 130.19089429210828 451.11151515151516 Q 131.49376511152062 449.74121212121213 131.54553369984274 448.00242424242424 Q 131.59730228816488 446.26363636363635 131.6078913175944 444.7954545454545 Q 131.61848034702393 443.3272727272727 131.67470305089975 442.2448484848485 Q 131.73092575477557 441.16242424242427 131.77563499014468 440.0281818181818 Q 131.8203442255138 438.8939393939394 132.07128741501037 436.74636363636364 Q 132.32223060450693 434.5987878787879 132.38500842183913 432.57212121212126 Q 132.4477862391713 430.54545454545456 132.48157028544648 431.30545454545455 Q 132.51535433172165 432.06545454545454 132.52686780022836 429.75666666666666 Q 132.53838126873507 427.4478787878788 132.59082217638604 429.26151515151514 Q 132.64326308403702 431.0751515151515 132.6783917689699 429.82 Q 132.7135204539028 428.5648484848485 132.91521625256044 429.41696969696966 Q 133.1169120512181 430.2690909090909 133.39273105588245 431.1672727272727 Q 133.66855006054678 432.06545454545454 135.83921705368368 433.2975757575757 Q 138.00988404682056 434.52969696969694 138.54463003301166 435.2954545454545 Q 139.07937601920275 436.0612121212121 139.89061332938707 438.5081818181818 Q 140.70185063957135 440.9551515151515 140.74034092114852 442.6363636363636 Q 140.77883120272568 444.31757575757575 141.55258671032612 442.97030303030306 Q 142.32634221792654 441.6230303030303 142.58358840113115 443.40787878787876 Q 142.84083458433577 445.19272727272727 152.31885632292332 445.0315151515151 Q 161.79687806151088 444.87030303030303 166.75195555511667 447.39787878787877 Q 171.70703304872245 449.92545454545456 172.03378024254783 449.6663636363636 Q 172.36052743637325 449.4072727272727 232.3525055895251 446.9775757575758 Q 292.3444837426769 444.5478787878788 319.72073853439633 444.48454545454547 Q 347.0969933261157 444.42121212121214 351.66834456277525 444.0469696969697 Q 356.23969579943486 443.6727272727273 373.1384421303019 443.5460606060606 Q 390.03718846116897 443.41939393939396 427.48999727399246 442.9760606060606 Q 464.942806086816 442.5327272727273 464.96600110366165 442.12969696969697 Q 464.9891961205073 441.7266666666667 469.4307897266971 441.27757575757573 Q 473.87238333288695 440.82848484848483 474.1199649257392 439.33151515151513 Q 474.3675465185915 437.83454545454543 476.4575351922653 436.9478787878788 Q 478.5475238659391 436.0612121212121 487.3175093113222 436.99969696969697 Q 496.0874947567053 437.9381818181818 509.7562509519023 439.7460606060606 Q 523.4250071470992 441.5539393939394 523.4273602647502 440.2987878787879 Q 523.4297133824012 439.0436363636364 524.0364815766964 438.709696969697 Q 524.6432497709914 438.3757575757576 531.8436217032374 438.64060606060605 Q 539.0439936354835 438.9054545454545 545.5682644426458 438.4621212121212 Q 552.0925352498082 438.01878787878786 552.1311936112176 437.75969696969696 Q 552.1698519726269 437.50060606060606 552.2048966176437 437.2012121212121 Q 552.2399412626604 436.90181818181816 552.2468325357813 436.5793939393939 Q 552.2537238089021 436.2569696969697 552.5024819605799 437.5984848484849 Q 552.7512401122575 438.94 552.7944366291367 437.58121212121216 Q 552.837633146016 436.22242424242427 553.1590858251266 436.03818181818184 Q 553.4805385042372 435.8539393939394 553.5160033488346 436.48727272727274 Q 553.5514681934319 437.12060606060606 553.8203118850593 436.9133333333333 Q 554.0891555766866 436.7060606060606 554.3751434112 434.86939393939394 Q 554.6611312457134 433.03272727272724 557.4425163092023 433.0384848484848 Q 560.2239013726914 433.04424242424244 560.3871068897719 430.2057575757576 Q 560.5503124068523 427.36727272727273 561.9431059364996 426.98727272727274 Q 563.3358994661469 426.60727272727274 563.8852683977407 426.3769696969697 Q 564.4346373293345 426.14666666666665 566.7046395033102 424.12 Q 568.974641677286 422.09333333333336 578.9641303453028 421.47727272727275 Q 588.9536190133197 420.86121212121213 589.0066482003834 419.38151515151515 Q 589.0596773874472 417.90181818181816 592.424803708218 416.4451515151515 Q 595.7899300289887 414.98848484848486 595.7912746676463 414.4760606060606 Q 595.7926193063041 413.96363636363634 595.7938799050457 413.51454545454544 Q 595.7951405037874 413.06545454545454 595.7965691823612 412.6969696969697 Q 595.797997860935 412.32848484848483 621.5327009713294 414.67181818181814 Q 647.2674040817238 417.0151515151515 651.3990584773097 418.6272727272727 Q 655.5307128728956 420.23939393939395 655.5683627553117 416.96909090909094 Q 655.6060126377279 413.69878787878787 665.8311492305098 414.22848484848487 Q 676.0562858232918 414.7581818181818 679.1601320448847 415.05757575757576 Q 682.2639782664776 415.3569696969697 683.0863088455881 416.2206060606061 Q 683.9086394246985 417.0842424242424 690.7276382176494 417.130303030303 Q 697.5466370106003 417.17636363636365 700.475007887361 416.940303030303 Q 703.4033787641218 416.7042424242424 703.4891835184674 417.0957575757576 Q 703.574988272813 417.48727272727274 706.5694145236342 416.98636363636365 Q 709.5638407744555 416.48545454545456 791.1890379722984 416.46818181818185 Q 872.8142351701412 416.4509090909091 872.8616336828256 414.4242424242424 Q 872.9090321955102 412.39757575757574 872.9132341913156 415.16696969696966 Q 872.917436187121 417.93636363636364 924.3103660842521 413.18636363636364 Q 975.7032959813832 408.43636363636364 1000.8708136979691 404.2275757575758 Q 1026.038331414555 400.01878787878786 1026.0397600931287 396.6160606060606 Q 1026.0411887717028 393.21333333333337 1026.042197250696 389.76454545454544 Q 1026.0432057296894 386.3157575757576 1026.0443822885147 383.35636363636365 Q 1026.04555884734 380.3969696969697 1026.04707156583 376.3781818181818 Q 1026.04858428432 372.3593939393939 1026.8836048907626 369.18696969696964 Q 1027.7186254972053 366.01454545454544 1027.7211466946885 362.53696969696966 Q 1027.7236678921718 359.05939393939394 1027.7256848501584 355.77181818181816 Q 1027.727701808145 352.48424242424244 1037.6785321147527 348.9606060606061 Q 1047.6293624213602 345.4369696969697 1047.631715539011 345.63848484848484 Q 1047.6340686566623 345.84000000000003 1047.8699687011756 345.9148484848485 Q 1048.105868745689 345.989696969697 1054.1757357264587 346.04727272727274 Q 1060.2456027072285 346.1048484848485 1060.2477037051312 345.9436363636364 Q 1060.249804703034 345.78242424242427 1060.2519897408529 345.6212121212121 Q 1060.2541747786715 345.46000000000004 1061.1713864230671 346.2257575757576 Q 1062.0885980674627 346.99151515151516 1062.1024646536205 347.55 Q 1062.1163312397782 348.10848484848486 1075.1803361986667 346.71515151515155 Q 1088.244341157555 345.3218181818182 1089.4793917646687 344.0263636363636 Q 1090.7144423717823 342.7309090909091 1097.6458025325687 342.3509090909091 Q 1104.5771626933551 341.9709090909091 1133.0244221759467 341.2857575757576 Q 1161.4716816585383 340.6006060606061 1161.8353223755348 339.3051515151515 Q 1162.1989630925314 338.00969696969696 1162.2038374076656 336.7487878787879 Q 1162.2087117227998 335.4878787878788 1162.2143423971788 334.19242424242424 Q 1162.2199730715581 332.8969696969697 1162.2398905316754 331.57272727272726 Q 1162.259807991793 330.24848484848485 1162.2631695884374 329.07969696969695 Q 1162.2665311850817 327.91090909090906 1166.259015479594 326.8112121212121 Q 1170.251499774106 325.7115151515152 1170.2574666081496 326.18939393939394 Q 1170.2634334421932 326.6672727272727 1170.6212754049784 327.23727272727274 Q 1170.9791173677634 327.80727272727273 1171.1434154037534 327.18545454545455 Q 1171.307713439743 326.56363636363636 1171.4249491227129 326.44272727272727 Q 1171.5421848056826 326.3218181818182 1181.1730751516693 326.7478787878788 Q 1190.8039654976562 327.1739393939394 1191.2396284227568 327.4042424242424 Q 1191.6752913478574 327.63454545454545 1212.0827041762066 328.00878787878787 Q 1232.4901170045557 328.3830303030303 1232.8821632131965 328.2966666666666 Q 1233.2742094218372 328.210303030303 1233.4967471196896 327.70363636363635 Q 1233.7192848175418 327.1969696969697 1249.7543529305735 326.8342424242424 Q 1265.7894210436052 326.4715151515151 1277.0723680604306 326.07424242424236 Q 1288.355315077256 325.67696969696965 1288.3685933840009 325.31424242424237 Q 1288.3818716907458 324.9515151515151 1288.700803172373 325.25666666666666 Q 1289.0197346540006 325.5618181818182 1289.1141114797892 325.9533333333334 Q 1289.2084883055777 326.3448484848485 1295.4621505828745 327.16818181818184 Q 1301.7158128601711 327.99151515151516 1301.9939849824864 327.15666666666664 Q 1302.2721571048019 326.3218181818182 1311.1053405670978 325.5906060606061 Q 1319.9385240293934 324.85939393939395 1324.743842392496 322.3375757575758 Q 1329.5491607555982 319.81575757575763 1347.4686559075053 320.0460606060606 Q 1365.3881510594122 320.2763636363636 1365.7031326649826 319.97121212121215 Q 1366.018114270553 319.6660606060606 1366.0434943252174 319.60848484848486 Q 1366.0688743798817 319.55090909090904 1366.6837104061233 318.24393939393934 Q 1367.2985464323647 316.93696969696964 1388.2186867888847 316.9715151515151 Q 1409.1388271454048 317.0060606060606 1409.1493321349183 316.5742424242424 Q 1409.1598371244318 316.1424242424242 1409.68449832069 314.60515151515153 Q 1410.2091595169481 313.0678787878788 1410.2166390694817 312.98727272727274 Q 1410.2241186220153 312.90666666666664 1412.8608709898836 312.62454545454545 Q 1415.4976233577518 312.3424242424242 1415.499304156074 314.93909090909085 Q 1415.5009849543962 317.53575757575754 1419.7105443522137 317.760303030303 Q 1423.9201037500309 317.9848484848485 1424.482246748873 317.73151515151517 Q 1425.044389747715 317.47818181818184 1425.1825513697956 317.25939393939393 Q 1425.3207129918762 317.0406060606061 1439.091073445647 317.69696969696975 Q 1452.8614338994175 318.35333333333335 1453.406600835206 317.4321212121212 Q 1453.9517677709946 316.5109090909091 1454.0323620505415 316.2057575757576 Q 1454.1129563300883 315.9006060606061 1454.1178306452225 316.09636363636366 Q 1454.1227049603567 316.2921212121212 1459.639337173392 314.18484848484843 Q 1465.1559693864272 312.07757575757574 1466.2019301822993 311.7954545454545 Q 1467.2478909781714 311.5133333333333 1467.3810942452014 311.1160606060606 Q 1467.5142975122317 310.7187878787879 1467.922311304933 309.5039393939394 Q 1468.3303250976342 308.2890909090909 1468.6375750309226 308.260303030303 Q 1468.944824964211 308.23151515151517 1474.9539310856353 308.1681818181818 Q 1480.9630372070596 308.10484848484845 1481.83696829466 308.0012121212121 Q 1482.7108993822605 307.89757575757574 1483.097987235851 308.3466666666667 Q 1483.4850750894414 308.7957575757576 1483.4869239675957 308.83606060606064 Q 1483.48877284575 308.87636363636364 1483.4899494045756 309.32545454545453 Q 1483.4911259634011 309.77454545454543 1483.494235440297 312.69939393939393 Q 1483.497344917193 315.6242424242424 1483.498941675599 317.35727272727274 Q 1483.5005384340052 319.09030303030306 1489.1634841409832 319.7063636363637 Q 1494.8264298479612 320.32242424242423 1495.6653162905448 320.6045454545455 Q 1496.5042027331283 320.88666666666666 1503.2035286855423 320.78878787878784 Q 1509.9028546379564 320.6909090909091 1510.4041527375366 320.78878787878784 Q 1510.905450837117 320.88666666666666 1514.0534180146665 320.54696969696965 Q 1517.2013851922159 320.2072727272727 1517.2482794654038 319.75242424242424 Q 1517.2951737385915 319.2975757575757 1519.8751151231713 318.96363636363634 Q 1522.455056507751 318.62969696969697 1522.9407231829355 318.4684848484849 Q 1523.4263898581198 318.30727272727273 1523.4333651711568 317.9042424242424 Q 1523.4403404841937 317.5012121212121 1523.4480721564755 316.53969696969693 Q 1523.4558038287573 315.5781818181818 1543.1424062966537 314.5821212121212 Q 1562.82900876455 313.5860606060606 1562.8737179999193 312.86636363636364 Q 1562.9184272352884 312.14666666666665 1562.922040951681 312.57272727272726 Q 1562.9256546680735 312.9987878787879 1577.3684184906192 313.1657575757576 Q 1591.8111823131649 313.3327272727273 1591.8251329392388 314.7318181818182 Q 1591.8390835653124 316.1309090909091 1593.306336460631 316.7239393939394 Q 1594.7735893559493 317.3169696969697 1595.5862553447073 317.01181818181817 Q 1596.3989213334653 316.7066666666667 1600.3956076237828 316.05030303030304 Q 1604.3922939141003 315.3939393939394 1607.74254516972 314.65696969696967 Q 1611.0927964253399 313.91999999999996 1611.5176182012626 313.2521212121212 Q 1611.9424399771854 312.5842424242424 1612.1408582191148 311.2830303030303 Q 1612.3392764610442 309.9818181818182 1612.4638236167152 309.85515151515153 Q 1612.5883707723863 309.72848484848487 1619.5483045046492 308.22 Q 1626.5082382369121 306.7115151515152 1626.6099265354019 305.3527272727273 Q 1626.7116148338919 303.9939393939394 1627.4536872931199 303.46424242424246 Q 1628.1957597523478 302.9345454545455 1633.523806393638 302.0248484848485 Q 1638.8518530349281 301.1151515151515 1640.3756647937867 300.769696969697 Q 1641.8994765526454 300.4242424242425 1649.4918946935322 300.90212121212124 Q 1657.084312834419 301.38 1659.978395425408 301.1612121212121 Q 1662.872478016397 300.94242424242424 1665.8732913008425 300.9251515151515 Q 1668.8741045852878 300.9078787878788 1669.708620952234 301.51242424242423 Q 1670.54313731918 302.1169696969697 1670.5474233549014 302.2378787878788 Q 1670.5517093906228 302.3587878787879 1670.8364366263945 302.289696969697 Q 1671.1211638621662 302.2206060606061 1675.4161918546647 302.5487878787879 Q 1679.7112198471634 302.8769696969697 1681.4701752912904 301.9154545454545 Q 1683.2291307354174 300.9539393939394 1684.472753413974 300.75242424242424 Q 1685.7163760925307 300.55090909090904 1690.063004593519 300.2860606060606 Q 1694.4096330945076 300.0212121212121 1695.174732490749 298.49545454545455 Q 1695.9398318869903 296.96969696969694 1696.442894824809 296.9927272727273 Q 1696.9459577626276 297.01575757575756 1697.6170164927448 297.08484848484846 Q 1698.2880752228623 297.15393939393937 1698.5587677926442 296.1175757575757 Q 1698.8294603624258 295.08121212121205 1698.8659336860164 293.290606060606 Q 1698.902407009607 291.5 1699.1276339847748 290.5269696969697 Q 1699.3528609599425 289.5539393939394 1699.3995871532982 286.1454545454545 Q 1699.4463133466538 282.7369696969697 1700.2323386820058 281.4472727272727 Q 1701.018364017358 280.1575757575757 1703.4157707041527 278.70666666666665 Q 1705.8131773909472 277.25575757575757 1705.9341948701417 276.3921212121212 Q 1706.0552123493362 275.5284848484848 1706.0653811791851 275.15999999999997 Q 1706.075550009034 274.79151515151517 1706.0910133535979 269.3448484848485 Q 1706.1064766981617 263.8981818181818 1709.9694554819525 263.2418181818182 Q 1713.8324342657431 262.5854545454545 1717.2452952588628 262.4587878787879 Q 1720.6581562519825 262.33212121212125 1723.5463560488438 263.31090909090915 Q 1726.4345558457053 264.28969696969705 1728.4070567166611 263.24181818181825 Q 1730.379557587617 262.19393939393944 1736.4539627238564 264.00181818181824 Q 1742.528367860096 265.80969696969703 1742.6258541627808 266.14363636363635 Q 1742.7233404654653 266.4775757575757 1742.7314082974117 266.9439393939394 Q 1742.7394761293579 267.41030303030306 1742.7416611671767 266.7884848484848 Q 1742.7438462049956 266.16666666666663 1750.2790331630133 266.66181818181815 Q 1757.814220121031 267.1569696969697 1760.9980723427582 271.03181818181815 Q 1764.1819245644854 274.90666666666664 1764.2640315625222 273.7954545454545 Q 1764.346138560559 272.68424242424237 1767.0190280923534 272.76484848484847 Q 1769.691917624148 272.8454545454546 1781.773243843993 272.7187878787879 Q 1793.854570063838 272.59212121212124 1794.07063668815 274.0948484848485 Q 1794.2867033124621 275.5975757575758 1794.3161172830996 282.05757575757576 Q 1794.3455312537374 288.51757575757574 1794.3666252726803 284.33181818181816 Q 1794.3877192916232 280.1460606060606 1794.706818853083 284.5160606060606 Q 1795.0259184145425 288.8860606060606 1846.704163826858 294.4190909090909 Q 1898.3824092391735 299.95212121212126 1900.9231880228472 303.130303030303 Q 1903.463966806521 306.30848484848485 1903.8229012882155 309.23333333333335 Q 1904.1818357699099 312.1581818181818 1917.7523493031772 315.68757575757576 Q 1931.3228628364448 319.2169696969697 1931.4211054983743 322.86727272727273 Q 1931.5193481603037 326.51757575757574 1931.6637287361762 329.88575757575757 Q 1931.8081093120486 333.2539393939394 1939.0116747611069 336.77181818181816 Q 1946.2152402101651 340.28969696969693 1946.2847412207857 337.99242424242425 Q 1946.3542422314065 335.69515151515157 1946.5794692065742 342.20121212121217 Q 1946.804696181742 348.7072727272727 1946.8170500494098 346.75545454545454 Q 1946.8294039170776 344.8036363636363 1953.6588236596258 342.49484848484843 Q 1960.4882434021738 340.18606060606055 1961.1249298066032 337.7390909090909 Q 1961.7616162110323 335.29212121212123 1968.5614539031108 327.0012121212121 Q 1975.3612915951892 318.710303030303 1975.6806457975945 318.75060606060606 Q 1975.3612915951892 318.710303030303 1976 318.7909090909091" fill="none" stroke="#2a78d6" stroke-width="2" stroke-dasharray="1,4" stroke-linecap="round" opacity="0.55" />
<path d="M 60 465.55151515151516 Q 60.04723043285233 464.74545454545455 60.162785317499946 465.3787878787879 Q 60.27834020214756 466.0121212121212 60.318847441711306 465.43636363636364 Q 60.35935468127505 464.8606060606061 60.36960755104015 464.5151515151515 Q 60.379860420805244 464.169696969697 60.41608162464752 465.0333333333333 Q 60.452302828489785 465.8969696969697 60.46171529909381 465.2060606060606 Q 60.47112776969784 464.5151515151515 64.07744864969668 465.3212121212121 Q 67.68376952969551 466.1272727272727 69.88216969514782 465.20606060606065 Q 72.08056986060014 464.2848484848485 72.37739884429132 464.8030303030303 Q 72.67422782798249 465.3212121212121 72.83642486606969 465.3787878787879 Q 72.99862190415689 465.43636363636364 73.01425332855285 464.22727272727275 Q 73.02988475294883 463.0181818181818 73.22872319445884 462.3848484848485 Q 73.42756163596883 461.75151515151515 73.50403795962652 461.92424242424244 Q 73.58051428328422 462.0969696969697 74.24014358481085 461.2909090909091 Q 74.89977288633749 460.4848484848485 75.21626721039779 460.54242424242426 Q 75.53276153445809 460.6 78.98629784697376 461.75151515151515 Q 82.43983415948942 462.9030303030303 82.48008927930485 461.8666666666667 Q 82.52034439912026 460.830303030303 82.73817586167053 378.9575757575758 Q 82.9560073242208 297.0848484848485 83.51504084616693 382.41212121212124 Q 84.07407436811306 467.73939393939395 84.44569887713979 467.56666666666666 Q 84.8173233861665 467.3939393939394 84.8618645417034 463.30606060606056 Q 84.9064056972403 459.2181818181818 85.52258636213944 459.79393939393935 Q 86.13876702703857 460.369696969697 86.22969821626673 460.6575757575757 Q 86.32062940549488 460.94545454545454 86.42030074599822 458.23939393939395 Q 86.51997208650154 455.53333333333336 86.8086491983303 459.27575757575755 Q 87.09732631015906 463.0181818181818 87.46273186539383 459.5060606060606 Q 87.82813742062862 455.9939393939394 88.9875521032457 455.130303030303 Q 90.14696678586279 454.26666666666665 92.82943686809347 453.46060606060604 Q 95.51190695032415 452.6545454545454 95.66132992116303 453.0575757575757 Q 95.8107528920019 453.46060606060604 95.81596336680056 452.4818181818182 Q 95.8211738415992 451.5030303030303 95.98320279985418 452.8272727272727 Q 96.14523175810918 454.1515151515151 100.04174246842672 454.1515151515151 Q 103.93825317874425 454.1515151515151 116.41313832572011 442.1181818181818 Q 128.88802347269598 430.08484848484846 130.19089429210828 429.1060606060606 Q 131.49376511152062 428.1272727272727 131.54553369984274 428.1848484848485 Q 131.59730228816488 428.24242424242425 131.6078913175944 427.43636363636364 Q 131.61848034702393 426.630303030303 131.67470305089975 429.6242424242424 Q 131.73092575477557 432.6181818181818 131.77563499014468 431.2939393939394 Q 131.8203442255138 429.969696969697 132.07128741501037 420.23939393939395 Q 132.32223060450693 410.5090909090909 132.38500842183913 410.73939393939395 Q 132.4477862391713 410.96969696969694 132.48157028544648 440.160606060606 Q 132.51535433172165 469.3515151515152 132.52686780022836 438.6636363636364 Q 132.53838126873507 407.9757575757576 132.59082217638604 437.1666666666667 Q 132.64326308403702 466.3575757575758 132.6783917689699 434.6909090909091 Q 132.7135204539028 403.0242424242424 132.91521625256044 424.1545454545454 Q 133.1169120512181 445.2848484848485 133.39273105588245 444.939393939394 Q 133.66855006054678 444.5939393939394 135.83921705368368 450.92727272727274 Q 138.00988404682056 457.26060606060605 138.54463003301166 451.27272727272725 Q 139.07937601920275 445.2848484848485 139.89061332938707 452.3666666666667 Q 140.70185063957135 459.44848484848484 140.74034092114852 452.0212121212121 Q 140.77883120272568 444.5939393939394 141.55258671032612 443.5 Q 142.32634221792654 442.4060606060606 142.58358840113115 443.0393939393939 Q 142.84083458433577 443.6727272727273 152.31885632292332 453.4030303030303 Q 161.79687806151088 463.1333333333333 166.75195555511667 458.3545454545455 Q 171.70703304872245 453.57575757575756 172.03378024254783 446.839393939394 Q 172.36052743637325 440.1030303030303 232.3525055895251 418.05151515151516 Q 292.3444837426769 396 319.72073853439633 425.9969696969697 Q 347.0969933261157 455.9939393939394 351.66834456277525 446.8969696969697 Q 356.23969579943486 437.8 373.1384421303019 447.3575757575758 Q 390.03718846116897 456.91515151515154 427.48999727399246 446.32121212121217 Q 464.942806086816 435.72727272727275 464.96600110366165 435.03636363636366 Q 464.9891961205073 434.3454545454546 469.4307897266971 434.5181818181818 Q 473.87238333288695 434.6909090909091 474.1199649257392 433.94242424242424 Q 474.3675465185915 433.1939393939394 476.4575351922653 434.5181818181818 Q 478.5475238659391 435.8424242424243 487.3175093113222 447.3575757575758 Q 496.0874947567053 458.8727272727273 509.7562509519023 445.5151515151515 Q 523.4250071470992 432.1575757575757 523.4273602647502 431.5242424242424 Q 523.4297133824012 430.8909090909091 524.0364815766964 431.0060606060606 Q 524.6432497709914 431.1212121212121 531.8436217032374 446.66666666666663 Q 539.0439936354835 462.2121212121212 545.5682644426458 444.5363636363636 Q 552.0925352498082 426.8606060606061 552.1311936112176 428.0121212121212 Q 552.1698519726269 429.1636363636364 552.2048966176437 428.93333333333334 Q 552.2399412626604 428.7030303030303 552.2468325357813 427.72424242424245 Q 552.2537238089021 426.74545454545455 552.5024819605799 444.70909090909095 Q 552.7512401122575 462.6727272727273 552.7944366291367 447.1848484848485 Q 552.837633146016 431.6969696969697 553.1590858251266 430.0848484848485 Q 553.4805385042372 428.4727272727273 553.5160033488346 436.0151515151515 Q 553.5514681934319 443.55757575757576 553.8203118850593 435.26666666666665 Q 554.0891555766866 426.9757575757576 554.3751434112 426.22727272727275 Q 554.6611312457134 425.4787878787879 557.4425163092023 426.22727272727275 Q 560.2239013726914 426.9757575757576 560.3871068897719 399.6848484848485 Q 560.5503124068523 372.3939393939394 561.9431059364996 396.74848484848485 Q 563.3358994661469 421.1030303030303 563.8852683977407 421.6212121212121 Q 564.4346373293345 422.1393939393939 566.7046395033102 422.1393939393939 Q 568.974641677286 422.1393939393939 578.9641303453028 420.75757575757575 Q 588.9536190133197 419.3757575757576 589.0066482003834 409.1272727272727 Q 589.0596773874472 398.8787878787879 592.424803708218 406.6515151515151 Q 595.7899300289887 414.42424242424244 595.7912746676463 415.5757575757576 Q 595.7926193063041 416.72727272727275 595.7938799050457 416.6121212121212 Q 595.7951405037874 416.4969696969697 595.7965691823612 418.05151515151516 Q 595.797997860935 419.6060606060606 621.5327009713294 419.43333333333334 Q 647.2674040817238 419.26060606060605 651.3990584773097 436.3030303030303 Q 655.5307128728956 453.3454545454546 655.5683627553117 405.03939393939396 Q 655.6060126377279 356.73333333333335 665.8311492305098 394.73333333333335 Q 676.0562858232918 432.73333333333335 679.1601320448847 429.04848484848486 Q 682.2639782664776 425.3636363636364 683.0863088455881 420.75757575757575 Q 683.9086394246985 416.1515151515151 690.7276382176494 415.74848484848485 Q 697.5466370106003 415.3454545454546 700.475007887361 413.6757575757576 Q 703.4033787641218 412.0060606060606 703.4891835184674 418.16666666666663 Q 703.574988272813 424.3272727272727 706.5694145236342 416.95757575757574 Q 709.5638407744555 409.58787878787876 791.1890379722984 414.25151515151515 Q 872.8142351701412 418.91515151515154 872.8616336828256 415.8636363636364 Q 872.9090321955102 412.8121212121212 872.9132341913156 412.4666666666667 Q 872.917436187121 412.1212121212121 924.3103660842521 374.92727272727274 Q 975.7032959813832 337.73333333333335 1000.8708136979691 339.4606060606061 Q 1026.038331414555 341.1878787878788 1026.0397600931287 344.6424242424242 Q 1026.0411887717028 348.0969696969697 1026.042197250696 347.23333333333335 Q 1026.0432057296894 346.369696969697 1026.0443822885147 349.5939393939394 Q 1026.04555884734 352.8181818181818 1026.04707156583 348.3848484848485 Q 1026.04858428432 343.95151515151514 1026.8836048907626 345.0454545454545 Q 1027.7186254972053 346.1393939393939 1027.7211466946885 347.75151515151515 Q 1027.7236678921718 349.3636363636364 1027.7256848501584 348.21212121212125 Q 1027.727701808145 347.06060606060606 1037.6785321147527 344.3545454545455 Q 1047.6293624213602 341.6484848484848 1047.631715539011 341.7060606060606 Q 1047.6340686566623 341.76363636363635 1047.8699687011756 342.22424242424245 Q 1048.105868745689 342.6848484848485 1054.1757357264587 345.9666666666667 Q 1060.2456027072285 349.24848484848485 1060.2477037051312 346.1969696969697 Q 1060.249804703034 343.1454545454545 1060.2519897408529 346.369696969697 Q 1060.2541747786715 349.5939393939394 1061.1713864230671 354.43030303030304 Q 1062.0885980674627 359.26666666666665 1062.1024646536205 358.28787878787875 Q 1062.1163312397782 357.3090909090909 1075.1803361986667 339.4030303030303 Q 1088.244341157555 321.4969696969697 1089.4793917646687 321.3242424242424 Q 1090.7144423717823 321.1515151515151 1097.6458025325687 327.6 Q 1104.5771626933551 334.04848484848486 1133.0244221759467 331.05454545454546 Q 1161.4716816585383 328.06060606060606 1161.8353223755348 322.4181818181818 Q 1162.1989630925314 316.77575757575755 1162.2038374076656 320.4030303030303 Q 1162.2087117227998 324.030303030303 1162.2143423971788 320.6333333333333 Q 1162.2199730715581 317.23636363636365 1162.2398905316754 320.1727272727273 Q 1162.259807991793 323.1090909090909 1162.2631695884374 329.5 Q 1162.2665311850817 335.8909090909091 1166.259015479594 335.6030303030303 Q 1170.251499774106 335.3151515151515 1170.2574666081496 333.1848484848485 Q 1170.2634334421932 331.05454545454546 1170.6212754049784 331.8030303030303 Q 1170.9791173677634 332.55151515151516 1171.1434154037534 327.0818181818182 Q 1171.307713439743 321.6121212121212 1171.4249491227129 323.6272727272727 Q 1171.5421848056826 325.6424242424242 1181.1730751516693 325.46969696969694 Q 1190.8039654976562 325.29696969696965 1191.2396284227568 326.96666666666664 Q 1191.6752913478574 328.6363636363636 1212.0827041762066 326.6787878787879 Q 1232.4901170045557 324.72121212121215 1232.8821632131965 323.05151515151516 Q 1233.2742094218372 321.3818181818182 1233.4967471196896 323.56969696969696 Q 1233.7192848175418 325.75757575757575 1249.7543529305735 326.9090909090909 Q 1265.7894210436052 328.06060606060606 1277.0723680604306 325.5848484848485 Q 1288.355315077256 323.1090909090909 1288.3685933840009 324.2030303030303 Q 1288.3818716907458 325.29696969696965 1288.700803172373 326.5060606060606 Q 1289.0197346540006 327.71515151515155 1289.1141114797892 330.5939393939394 Q 1289.2084883055777 333.4727272727273 1295.4621505828745 337.6181818181818 Q 1301.7158128601711 341.76363636363635 1301.9939849824864 326.8515151515152 Q 1302.2721571048019 311.93939393939394 1311.1053405670978 311.0181818181818 Q 1319.9385240293934 310.0969696969697 1324.743842392496 290.5212121212121 Q 1329.5491607555982 270.94545454545454 1347.4686559075053 300.6545454545454 Q 1365.3881510594122 330.3636363636364 1365.7031326649826 326.1606060606061 Q 1366.018114270553 321.9575757575758 1366.0434943252174 321.9575757575758 Q 1366.0688743798817 321.9575757575758 1366.6837104061233 310.55757575757576 Q 1367.2985464323647 299.1575757575757 1388.2186867888847 313.78181818181815 Q 1409.1388271454048 328.4060606060606 1409.1493321349183 326.6212121212121 Q 1409.1598371244318 324.83636363636367 1409.68449832069 317.92727272727274 Q 1410.2091595169481 311.0181818181818 1410.2166390694817 310.6727272727273 Q 1410.2241186220153 310.32727272727277 1412.8608709898836 307.3909090909091 Q 1415.4976233577518 304.45454545454544 1415.499304156074 313.66666666666663 Q 1415.5009849543962 322.8787878787879 1419.7105443522137 328.8666666666667 Q 1423.9201037500309 334.8545454545455 1424.482246748873 325.8727272727273 Q 1425.044389747715 316.8909090909091 1425.1825513697956 317.23636363636365 Q 1425.3207129918762 317.58181818181816 1439.091073445647 314.9333333333333 Q 1452.8614338994175 312.28484848484845 1453.406600835206 311.1333333333333 Q 1453.9517677709946 309.9818181818182 1454.0323620505415 314.3575757575758 Q 1454.1129563300883 318.73333333333335 1454.1178306452225 316.83333333333337 Q 1454.1227049603567 314.93333333333334 1459.639337173392 291.55757575757576 Q 1465.1559693864272 268.1818181818182 1466.2019301822993 283.4969696969697 Q 1467.2478909781714 298.8121212121212 1467.3810942452014 306.8727272727273 Q 1467.5142975122317 314.93333333333334 1467.922311304933 312.74545454545455 Q 1468.3303250976342 310.55757575757576 1468.6375750309226 313.43636363636364 Q 1468.944824964211 316.3151515151515 1474.9539310856353 316.3151515151515 Q 1480.9630372070596 316.3151515151515 1481.83696829466 313.26363636363635 Q 1482.7108993822605 310.2121212121212 1483.097987235851 314.5878787878788 Q 1483.4850750894414 318.9636363636364 1483.4869239675957 319.25151515151515 Q 1483.48877284575 319.5393939393939 1483.4899494045756 321.7272727272727 Q 1483.4911259634011 323.9151515151515 1483.494235440297 325.29696969696965 Q 1483.497344917193 326.67878787878783 1483.498941675599 330.07575757575756 Q 1483.5005384340052 333.4727272727273 1489.1634841409832 330.3636363636364 Q 1494.8264298479612 327.25454545454545 1495.6653162905448 321.72727272727275 Q 1496.5042027331283 316.2 1503.2035286855423 315.27878787878785 Q 1509.9028546379564 314.3575757575758 1510.4041527375366 316.3151515151515 Q 1510.905450837117 318.27272727272725 1514.0534180146665 310.8454545454546 Q 1517.2013851922159 303.41818181818184 1517.2482794654038 306.6424242424242 Q 1517.2951737385915 309.8666666666667 1519.8751151231713 311.3636363636364 Q 1522.455056507751 312.8606060606061 1522.9407231829355 316.77575757575755 Q 1523.4263898581198 320.6909090909091 1523.4333651711568 319.6545454545454 Q 1523.4403404841937 318.6181818181818 1523.4480721564755 316.43030303030304 Q 1523.4558038287573 314.24242424242425 1543.1424062966537 310.7878787878788 Q 1562.82900876455 307.33333333333337 1562.8737179999193 304.569696969697 Q 1562.9184272352884 301.8060606060606 1562.922040951681 312.3424242424243 Q 1562.9256546680735 322.8787878787879 1577.3684184906192 322.24545454545455 Q 1591.8111823131649 321.6121212121212 1591.8251329392388 326.5060606060606 Q 1591.8390835653124 331.4 1593.306336460631 326.56363636363636 Q 1594.7735893559493 321.72727272727275 1595.5862553447073 314.24242424242425 Q 1596.3989213334653 306.75757575757575 1600.3956076237828 307.160606060606 Q 1604.3922939141003 307.56363636363636 1607.74254516972 305.72121212121215 Q 1611.0927964253399 303.8787878787879 1611.5176182012626 302.3818181818182 Q 1611.9424399771854 300.8848484848485 1612.1408582191148 291.09696969696967 Q 1612.3392764610442 281.30909090909086 1612.4638236167152 290.29090909090905 Q 1612.5883707723863 299.27272727272725 1619.5483045046492 295.9909090909091 Q 1626.5082382369121 292.70909090909095 1626.6099265354019 293.5727272727273 Q 1626.7116148338919 294.43636363636364 1627.4536872931199 307.6212121212121 Q 1628.1957597523478 320.8060606060606 1633.523806393638 312.16969696969693 Q 1638.8518530349281 303.5333333333333 1640.3756647937867 301.6909090909091 Q 1641.8994765526454 299.8484848484849 1649.4918946935322 308.4848484848485 Q 1657.084312834419 317.1212121212121 1659.978395425408 308.3121212121212 Q 1662.872478016397 299.5030303030303 1665.8732913008425 300.0212121212121 Q 1668.8741045852878 300.5393939393939 1669.708620952234 296.96969696969694 Q 1670.54313731918 293.4 1670.5474233549014 297.5454545454545 Q 1670.5517093906228 301.6909090909091 1670.8364366263945 296.5090909090909 Q 1671.1211638621662 291.32727272727277 1675.4161918546647 296.1636363636364 Q 1679.7112198471634 301 1681.4701752912904 301.28787878787875 Q 1683.2291307354174 301.57575757575756 1684.472753413974 300.5393939393939 Q 1685.7163760925307 299.5030303030303 1690.063004593519 297.0272727272727 Q 1694.4096330945076 294.55151515151516 1695.174732490749 290.5787878787879 Q 1695.9398318869903 286.6060606060606 1696.442894824809 293.2848484848485 Q 1696.9459577626276 299.9636363636364 1697.6170164927448 300.94242424242424 Q 1698.2880752228623 301.9212121212121 1698.5587677926442 287.29696969696965 Q 1698.8294603624258 272.67272727272723 1698.8659336860164 269.27575757575755 Q 1698.902407009607 265.8787878787879 1699.1276339847748 268.8727272727273 Q 1699.3528609599425 271.8666666666667 1699.3995871532982 252.34848484848484 Q 1699.4463133466538 232.830303030303 1700.2323386820058 254.30606060606058 Q 1701.018364017358 275.78181818181815 1703.4157707041527 273.1333333333333 Q 1705.8131773909472 270.4848484848485 1705.9341948701417 273.8818181818182 Q 1706.0552123493362 277.27878787878785 1706.0653811791851 278.25757575757575 Q 1706.075550009034 279.23636363636365 1706.0910133535979 235.13333333333335 Q 1706.1064766981617 191.03030303030306 1709.9694554819525 239.91212121212124 Q 1713.8324342657431 288.7939393939394 1717.2452952588628 279.4666666666667 Q 1720.6581562519825 270.1393939393939 1723.5463560488438 277.79696969696965 Q 1726.4345558457053 285.45454545454544 1728.4070567166611 268.1818181818182 Q 1730.379557587617 250.9090909090909 1736.4539627238564 259.94848484848484 Q 1742.528367860096 268.9878787878788 1742.6258541627808 275.72424242424245 Q 1742.7233404654653 282.4606060606061 1742.7314082974117 281.1363636363636 Q 1742.7394761293579 279.8121212121212 1742.7416611671767 272.32727272727277 Q 1742.7438462049956 264.8424242424243 1750.2790331630133 276.9909090909091 Q 1757.814220121031 289.1393939393939 1760.9980723427582 278.8333333333333 Q 1764.1819245644854 268.5272727272727 1764.2640315625222 267.5484848484848 Q 1764.346138560559 266.56969696969696 1767.0190280923534 269.160606060606 Q 1769.691917624148 271.75151515151515 1781.773243843993 277.3363636363636 Q 1793.854570063838 282.9212121212121 1794.07063668815 281.94242424242424 Q 1794.2867033124621 280.9636363636364 1794.3161172830996 339.5757575757576 Q 1794.3455312537374 398.1878787878788 1794.3666252726803 298.4666666666667 Q 1794.3877192916232 198.74545454545455 1794.706818853083 282.9787878787879 Q 1795.0259184145425 367.21212121212125 1846.704163826858 371.3575757575758 Q 1898.3824092391735 375.5030303030303 1900.9231880228472 364.1030303030303 Q 1903.463966806521 352.7030303030303 1903.8229012882155 339.8636363636364 Q 1904.1818357699099 327.0242424242424 1917.7523493031772 332.09090909090907 Q 1931.3228628364448 337.1575757575757 1931.4211054983743 340.95757575757574 Q 1931.5193481603037 344.75757575757575 1931.6637287361762 347.5212121212121 Q 1931.8081093120486 350.28484848484845 1939.0116747611069 350.80303030303025 Q 1946.2152402101651 351.3212121212121 1946.2847412207857 351.78181818181815 Q 1946.3542422314065 352.24242424242425 1946.5794692065742 340.55454545454546 Q 1946.804696181742 328.8666666666667 1946.8170500494098 328.5212121212121 Q 1946.8294039170776 328.1757575757576 1953.6588236596258 328.75151515151515 Q 1960.4882434021738 329.32727272727277 1961.1249298066032 316.54545454545456 Q 1961.7616162110323 303.76363636363635 1968.5614539031108 232.48484848484847 Q 1961.7616162110323 303.76363636363635 1975.3612915951892 161.2060606060606" fill="none" stroke="#2a78d6" stroke-width="2" />
<path d="M 1975.3612915951892 161.2060606060606 L 1976 337.9636363636364" fill="none" stroke="#2a78d6" stroke-width="2" stroke-dasharray="5,4" />
<circle cx="1976" cy="337.9636363636364" r="5" fill="#e8890c" stroke="#2a78d6" stroke-width="2" />
  <text x="1976" y="490" font-size="10" text-anchor="middle" fill="#0b0b0b" font-family="system-ui, -apple-system, sans-serif" font-weight="600">this run (so far)</text>
  
</svg>